<svg width="182" height="183" viewBox="0 0 182 183" fill="none" xmlns="http://www.w3.org/2000/svg">
<path d="M26.4926 142.127C26.4926 142.127 16.585 125.919 20.0043 104.313C23.6596 81.2164 47.3431 78.0587 59.0422 55.7774C70.7413 33.4956 90.318 24.9164 110.672 28.9719C135.685 33.9553 138.614 75.0971 147.63 85.8866C156.646 96.6756 171.976 124.399 154.143 142.128L26.4926 142.127Z" fill="#D1B8F4"/>
<path d="M84.1917 32.243H19.0559C17.9206 32.243 17 33.363 17 34.744V151.416C17 152.797 17.9206 153.917 19.0559 153.917H84.1913C85.3265 153.917 86.2471 152.797 86.2471 151.416V34.744C86.2476 33.3625 85.3269 32.243 84.1917 32.243Z" fill="#F0F0F0"/>
<path d="M58.9212 52.9933H20.5819V120.804H58.9212V52.9933Z" fill="white"/>
<path d="M84.1916 32.2429H19.0558C17.9205 32.2429 16.9999 33.3628 16.9999 34.7438V49.1347H86.247V34.7438C86.2474 33.3623 85.3268 32.2429 84.1916 32.2429Z" fill="#7846D1"/>
<path d="M30.2218 87.2668V72.212H24.8152V68.0301H41.2441V72.212H35.8375V87.2668H30.2218Z" fill="#7846D1"/>
<path d="M54.8796 59.6736H32.2466V61.0752H54.8796V59.6736Z" fill="#455A64"/>
<path d="M47.4933 62.5512H32.2466V63.9527H47.4933V62.5512Z" fill="#455A64"/>
<path d="M54.8796 65.5688H32.2466V66.9704H54.8796V65.5688Z" fill="#455A64"/>
<path d="M54.8798 68.5979H24.6237V69.9994H54.8798V68.5979Z" fill="#455A64"/>
<path d="M50.4338 71.5795H24.6237V72.9811H50.4338V71.5795Z" fill="#455A64"/>
<path d="M52.8654 74.5617H24.6237V75.9632H52.8654V74.5617Z" fill="#455A64"/>
<path d="M54.8798 95.9376H24.6237V97.3391H54.8798V95.9376Z" fill="#455A64"/>
<path d="M50.4338 98.9197H24.6237V100.321H50.4338V98.9197Z" fill="#455A64"/>
<path d="M52.8654 101.902H24.6237V103.303H52.8654V101.902Z" fill="#455A64"/>
<path d="M50.4338 107.739H24.6237V109.14H50.4338V107.739Z" fill="#455A64"/>
<path d="M52.8654 110.721H24.6237V112.122H52.8654V110.721Z" fill="#455A64"/>
<path d="M54.8814 78.0359H24.6631V93.6077H54.8814V78.0359Z" fill="#7846D1"/>
<path d="M83.5032 52.9932H61.3932V59.6736H83.5032V52.9932Z" fill="#7846D1"/>
<path d="M83.5032 102.761H61.3932V109.442H83.5032V102.761Z" fill="#7846D1"/>
<path d="M83.5025 123.597H20.5821V130.277H83.5025V123.597Z" fill="#7846D1"/>
<path d="M83.5032 61.1132H61.3932V100.821H83.5032V61.1132Z" fill="#AFAFAF"/>
<path d="M79.8418 148.489H24.2427C22.221 148.489 20.5821 146.495 20.5821 144.036V130.277H83.5025V144.036C83.5025 146.495 81.8636 148.489 79.8418 148.489Z" fill="#AFAFAF"/>
<path d="M31.4832 46.4027V35.8492H37.2843C38.355 35.8492 39.1689 36.1005 39.7261 36.6031C40.2832 37.1056 40.5618 37.8267 40.5618 38.7662C40.5618 39.3124 40.458 39.7713 40.2504 40.1427C40.0538 40.5142 39.7916 40.8092 39.4639 41.0277C39.9118 41.2025 40.2668 41.4592 40.529 41.7979C40.8022 42.1256 40.9387 42.6172 40.9387 43.2727C40.9387 44.2669 40.6328 45.0371 40.021 45.5833C39.4092 46.1296 38.5407 46.4027 37.4154 46.4027H31.4832ZM34.4493 40.0608H36.4486C37.2024 40.0608 37.5793 39.7221 37.5793 39.0448C37.5793 38.7061 37.4864 38.4494 37.3007 38.2746C37.1259 38.0998 36.8146 38.0124 36.3666 38.0124H34.4493V40.0608ZM34.4493 44.256H36.5797C36.9948 44.256 37.3007 44.1686 37.4974 43.9938C37.694 43.819 37.7923 43.5295 37.7923 43.1252C37.7923 42.7866 37.694 42.5298 37.4974 42.355C37.3007 42.1802 36.973 42.0928 36.5141 42.0928H34.4493V44.256ZM42.0934 46.4027V35.8492H45.1742V44.0429H49.9266V46.4027H42.0934ZM55.6548 46.5666C53.9068 46.5666 52.5685 46.1405 51.6399 45.2884C50.7222 44.4362 50.2634 43.0597 50.2634 41.1588C50.2634 39.8478 50.471 38.7935 50.8861 37.996C51.3013 37.1875 51.9076 36.6031 52.7051 36.2425C53.5136 35.8711 54.4968 35.6854 55.6548 35.6854C56.8129 35.6854 57.7907 35.8711 58.5882 36.2425C59.3966 36.6031 60.0084 37.1875 60.4236 37.996C60.8387 38.7935 61.0463 39.8478 61.0463 41.1588C61.0463 43.0597 60.582 44.4362 59.6534 45.2884C58.7247 46.1405 57.3919 46.5666 55.6548 46.5666ZM55.6548 43.9446C56.4414 43.9446 57.0095 43.7261 57.3591 43.2891C57.7196 42.8412 57.8999 42.1311 57.8999 41.1588C57.8999 40.1209 57.7196 39.3889 57.3591 38.9628C57.0095 38.5258 56.4414 38.3073 55.6548 38.3073C54.8682 38.3073 54.2947 38.5258 53.9342 38.9628C53.5846 39.3889 53.4098 40.1209 53.4098 41.1588C53.4098 42.1311 53.5846 42.8412 53.9342 43.2891C54.2947 43.7261 54.8682 43.9446 55.6548 43.9446ZM67.6341 46.5666C65.755 46.5666 64.3239 46.1077 63.3406 45.19C62.3574 44.2614 61.8658 42.9395 61.8658 41.2243C61.8658 39.4545 62.3738 38.0888 63.3898 37.1275C64.4058 36.1661 65.8916 35.6854 67.8472 35.6854C68.5027 35.6854 69.0926 35.7236 69.617 35.8001C70.1523 35.8766 70.6549 35.9913 71.1246 36.1442V38.7826C70.6439 38.5969 70.1469 38.4712 69.6334 38.4057C69.1199 38.3401 68.5955 38.3073 68.0602 38.3073C67.0442 38.3073 66.2794 38.5368 65.766 38.9956C65.2634 39.4545 65.0122 40.1974 65.0122 41.2243C65.0122 42.1857 65.2306 42.8794 65.6676 43.3055C66.1156 43.7316 66.7711 43.9446 67.6341 43.9446C67.9182 43.9446 68.1858 43.9282 68.4371 43.8954C68.6884 43.8517 68.9233 43.7971 69.1418 43.7316V42.1912H67.0442V40.2902H71.7146V45.5997C71.3104 45.851 70.7696 46.075 70.0922 46.2716C69.4258 46.4683 68.6064 46.5666 67.6341 46.5666Z" fill="white"/>
<path d="M164.255 77.3641V76.0161C164.753 75.8866 165.689 75.5779 165.569 75.1113C165.406 74.479 164.266 74.6466 164.266 74.6466C164.266 74.6466 165.759 74.441 165.548 73.6872C165.399 73.1565 164.674 73.051 164.255 73.0345V72.8629C165.269 72.6484 165.577 71.8986 165.4 71.3624C165.224 70.8267 164.255 70.9337 164.255 70.9337C164.255 70.9337 163.022 77.0425 163.022 77.2035C163.022 77.3646 163.727 79.4009 164.255 79.2933C164.784 79.1863 165.885 78.329 165.447 77.5787C165.009 76.8279 164.255 77.3641 164.255 77.3641Z" fill="#DD8762"/>
<path d="M157.795 84.1926C157.792 84.3657 157.906 84.5077 158.049 84.5077H163.798C164.118 84.5077 164.379 84.1976 164.386 83.809L164.516 66.4395C164.519 66.0959 164.379 65.7743 164.144 65.5837C164.094 65.5437 164.035 65.5262 163.977 65.5337L158.313 66.2479C158.186 66.2639 158.088 66.393 158.086 66.5491L157.795 84.1926Z" fill="#455A64"/>
<path d="M163.179 67.1753V82.8637C163.179 83.0398 163.062 83.1828 162.917 83.1828L158.87 83.1193C158.725 83.1193 158.607 82.9762 158.607 82.8002L158.739 67.5565C158.739 67.3934 158.839 67.2569 158.973 67.2394L162.889 66.8582C163.044 66.8377 163.179 66.9853 163.179 67.1753Z" fill="#9FC2FF"/>
<path d="M164.143 65.5833C164.094 65.5433 164.035 65.5257 163.976 65.5333L163.922 65.5403L163.759 84.5078H163.798C164.117 84.5078 164.378 84.1977 164.386 83.8091L164.516 66.4396C164.518 66.0955 164.378 65.7738 164.143 65.5833Z" fill="#263238"/>
<path d="M159.058 66.7042C159.058 66.8403 158.986 66.9503 158.896 66.9503C158.807 66.9503 158.734 66.8403 158.734 66.7042C158.734 66.5682 158.807 66.4581 158.896 66.4581C158.985 66.4581 159.058 66.5687 159.058 66.7042Z" fill="#263238"/>
<path d="M159.767 66.7842C159.688 66.7842 159.62 66.7102 159.613 66.6121C159.606 66.5091 159.669 66.4186 159.754 66.4101L162.02 66.1815C162.111 66.174 162.179 66.25 162.186 66.353C162.193 66.4561 162.13 66.5466 162.045 66.5551L159.78 66.7837C159.775 66.7837 159.771 66.7842 159.767 66.7842Z" fill="#263238"/>
<path d="M159.051 84.5052C159.742 82.8746 159.52 81.2475 159.543 80.4272C159.568 79.5714 160.843 77.7087 161.009 75.9466C161.174 74.1844 160.305 73.4291 159.808 74.5871C159.312 75.745 157.987 77.6582 157.987 77.6582V72.4218C157.987 72.4218 157.587 72.9695 157.256 73.2716C156.925 73.5737 155.412 75.3048 155.455 77.8593C155.497 80.4142 155.049 85.4611 154.677 86.8206C154.304 88.1801 153.642 89.1365 153.642 89.1365L157.336 91.3518C157.336 91.3518 158.94 90.4455 159.543 89.7912C160.147 89.137 160.429 86.4685 160.429 86.4685L161.03 84.5052H159.051Z" fill="#FFBE9D"/>
<path d="M161.03 84.5053H159.052L160.714 85.5397L161.03 84.5053Z" fill="#DD8762"/>
<path d="M157.031 80.5538C156.969 80.0101 157.058 79.4674 157.213 78.9627C157.374 78.462 157.623 77.9823 157.986 77.6577C157.818 78.1629 157.648 78.6171 157.5 79.0983C157.345 79.5739 157.209 80.0551 157.031 80.5538Z" fill="#DD8762"/>
<path d="M159.555 81.2946C159.778 82.2 159.673 83.1918 159.42 84.0817C159.279 84.5228 159.115 84.9565 158.887 85.3406C158.675 85.7353 158.406 86.0794 158.119 86.388C158.315 85.9839 158.51 85.5942 158.681 85.1901C158.858 84.7909 159 84.3743 159.13 83.9546C159.259 83.533 159.353 83.0983 159.427 82.6561C159.496 82.2125 159.551 81.7613 159.555 81.2946Z" fill="#DD8762"/>
<path d="M158.896 91.6513L154.279 88.6057C153.971 88.4021 153.586 88.5172 153.39 88.8708L146.826 100.727C146.264 101.793 146.005 101.93 145.134 101.235L138.378 97.0523C134.265 94.7325 131.516 92.4546 127.507 92.4561L122.687 92.4581C122.687 92.4581 122.471 92.4491 122.085 92.4576C114.201 92.6357 107.3 98.9511 104.877 108.079L96.3744 140.126H103.709L112.648 109.062L112.406 140.126H133.651V106.548L139.151 109.49C142.615 111.688 148.098 114.328 151.085 107.959C151.214 107.682 151.343 107.406 151.486 107.139L159.14 92.8303C159.358 92.4256 159.245 91.8819 158.896 91.6513Z" fill="#9C78ED"/>
<path d="M116.35 83.363V94.1515H116.363C116.498 98.2661 119.275 101.554 122.691 101.554C126.106 101.554 128.883 98.2661 129.019 94.1515H129.031V83.363H116.35Z" fill="#EB996E"/>
<path d="M107.761 71.487C107.761 71.487 105.113 68.0197 105.113 58.7843C105.113 49.5488 111.645 43.28 117.644 42.6843C123.645 42.0886 124.624 39.258 125.971 40.599C127.318 41.94 123.354 44.9186 123.354 44.9186C123.354 44.9186 134.665 39.7052 136.012 41.4923C137.359 43.28 131.604 45.8119 131.604 45.8119C131.604 45.8119 138.496 47.9507 139.72 52.4194C140.945 56.8881 137.726 57.0371 137.726 57.0371C137.726 57.0371 139.998 64.1753 137.149 73.8694C134.047 84.4228 114.457 85.5897 114.089 85.2921C113.722 84.995 107.761 71.487 107.761 71.487Z" fill="#263238"/>
<path d="M135.707 69.3026C135.697 69.3026 135.686 69.3036 135.676 69.3046C135.654 69.7847 135.637 70.0824 135.637 70.0824L135.124 75.0977C135.05 75.823 134.25 76.0106 133.968 75.3658C133.273 73.7777 132.619 70.9052 133.593 66.4155C133.041 65.3306 132.633 64.1381 132.4 62.8777L132.259 62.1164C129.483 62.9912 129.351 62.1309 127.503 61.1115C127.489 61.104 127.472 61.123 127.484 61.1355C128.174 61.8893 130.042 64.1651 128.707 65.4241C127.235 66.8126 122.461 62.1059 121.529 61.3166C121.492 61.2851 121.444 61.3301 121.459 61.3816C121.677 62.0929 122.35 64.5593 121.372 64.9785C119.872 65.6217 117.128 60.5763 116.348 59.0678C116.307 58.9877 116.206 59.0357 116.22 59.1288C116.37 60.1241 116.583 62.368 115.552 62.9172C114.586 63.4314 113.533 60.974 113.023 59.5709C112.941 59.3444 112.671 59.4009 112.647 59.647C112.44 61.7778 111.808 63.8235 111.151 65.4751C112.435 70.5085 111.74 73.6692 110.998 75.3653C110.715 76.0106 109.916 75.8225 109.842 75.0972L109.329 70.0819C109.329 70.0819 109.312 69.7847 109.29 69.3061C106.672 69.3491 104.559 71.9405 104.559 75.1357C104.559 78.3579 106.707 80.9699 109.355 80.9699C109.415 80.9699 109.472 80.9619 109.53 80.9594C110.61 88.4987 116.011 94.732 122.518 94.732C129.025 94.732 134.427 88.4977 135.507 80.9579C135.574 80.9614 135.64 80.9704 135.708 80.9704C138.357 80.9704 140.504 78.3584 140.504 75.1362C140.503 71.9145 138.356 69.3026 135.707 69.3026Z" fill="#FFBE9D"/>
<path d="M118.168 82.5726C118.961 83.479 119.764 84.2788 120.674 84.8235C121.122 85.1136 121.607 85.2881 122.103 85.4142C122.605 85.5567 123.121 85.5342 123.673 85.5492C123.18 85.8183 122.621 86.0079 122.055 85.9589C121.491 85.9374 120.924 85.7643 120.419 85.4527C119.915 85.1396 119.457 84.7314 119.076 84.2397C118.696 83.7506 118.369 83.1964 118.168 82.5726Z" fill="#263238"/>
<path d="M116.707 73.4668C116.707 74.2211 116.204 74.8328 115.584 74.8328C114.964 74.8328 114.461 74.2211 114.461 73.4668C114.461 72.7126 114.964 72.1008 115.584 72.1008C116.204 72.1008 116.707 72.7126 116.707 73.4668Z" fill="#263238"/>
<path d="M114.466 72.1008C114.416 71.5236 114.716 70.9378 115.123 70.5792C115.54 70.2241 116.042 70.076 116.516 70.0525C116.75 70.0285 117.017 70.066 117.263 70.1391C117.511 70.2296 117.749 70.3651 117.951 70.5602C118.349 70.9539 118.599 71.5256 118.594 72.1008C118.287 71.6771 117.958 71.3795 117.621 71.1969C117.277 71.0234 116.935 70.9644 116.543 70.9849C116.146 70.9969 115.765 71.0519 115.411 71.2075C115.061 71.3655 114.723 71.6341 114.466 72.1008Z" fill="#263238"/>
<path d="M113.896 68.8561C114.645 68.69 116.146 68.4424 118.259 68.5015C118.512 68.5085 118.679 68.2599 118.551 68.0643C118.227 67.5716 117.508 66.8729 116.067 66.9874C114.439 67.1164 113.784 67.9022 113.523 68.4514C113.417 68.675 113.633 68.9141 113.896 68.8561Z" fill="#263238"/>
<path d="M126.265 73.4668C126.265 74.2211 126.768 74.8328 127.388 74.8328C128.008 74.8328 128.511 74.2211 128.511 73.4668C128.511 72.7126 128.008 72.1008 127.388 72.1008C126.767 72.1008 126.265 72.7126 126.265 73.4668Z" fill="#263238"/>
<path d="M130.399 72.1008C130.449 71.5236 130.149 70.9379 129.742 70.5793C129.325 70.2241 128.823 70.0761 128.349 70.0526C128.115 70.0286 127.848 70.0661 127.602 70.1391C127.355 70.2297 127.116 70.3652 126.914 70.5603C126.516 70.9539 126.266 71.5256 126.27 72.1008C126.578 71.6772 126.907 71.3796 127.244 71.197C127.588 71.0234 127.93 70.9644 128.322 70.9849C128.718 70.9969 129.1 71.052 129.454 71.2075C129.804 71.3656 130.142 71.6342 130.399 72.1008Z" fill="#263238"/>
<path d="M130.486 68.8561C129.738 68.69 128.237 68.4424 126.124 68.5015C125.871 68.5085 125.703 68.2599 125.832 68.0643C126.156 67.5716 126.875 66.8729 128.315 66.9874C129.943 67.1164 130.599 67.9022 130.859 68.4514C130.966 68.675 130.749 68.9141 130.486 68.8561Z" fill="#263238"/>
<path d="M122.803 72.4304C123.201 73.4577 123.546 74.5066 123.871 75.5625C124.199 76.6174 124.496 77.6848 124.786 78.7547L124.994 79.561C125.081 79.8801 125.09 80.2638 124.999 80.5954C124.823 81.2671 124.267 81.7548 123.702 81.7203C122.77 81.6713 121.848 81.5933 120.921 81.4477C121.845 81.3012 122.776 81.2261 123.696 81.1726C124.066 81.1391 124.39 80.8185 124.477 80.4003C124.519 80.1927 124.52 79.9867 124.457 79.7726L124.238 78.9708C123.958 77.8964 123.685 76.82 123.444 75.7306C123.199 74.6427 122.974 73.5473 122.803 72.4304Z" fill="#263238"/>
<path d="M108.214 71.6641C107.583 71.9772 107.029 72.4769 106.649 73.1096C106.26 73.7393 106.102 74.5256 106.101 75.3074C106.088 76.0967 106.256 76.8795 106.621 77.5202C106.993 78.1555 107.565 78.6342 108.214 78.8857C107.535 78.8137 106.847 78.4231 106.385 77.7448C105.917 77.0696 105.708 76.1672 105.716 75.3069C105.721 74.4461 105.928 73.5363 106.415 72.8825C106.881 72.2178 107.541 71.8031 108.214 71.6641Z" fill="#DD8762"/>
<path d="M136.652 78.8862C137.283 78.5731 137.837 78.0734 138.217 77.4407C138.606 76.811 138.764 76.0247 138.765 75.2429C138.777 74.4536 138.61 73.6708 138.244 73.0301C137.873 72.3948 137.301 71.9161 136.652 71.6646C137.331 71.7366 138.019 72.1272 138.482 72.8055C138.949 73.4807 139.158 74.3831 139.15 75.2434C139.145 76.1042 138.938 77.014 138.451 77.6678C137.985 78.333 137.325 78.7477 136.652 78.8862Z" fill="#DD8762"/>
<path d="M122.151 61.8721C122.811 62.4108 123.468 62.9495 124.151 63.4322C124.827 63.9269 125.518 64.3885 126.226 64.7722C126.581 64.9602 126.943 65.1228 127.304 65.2364C127.662 65.3474 128.035 65.3889 128.326 65.2854C128.463 65.2208 128.585 65.1443 128.668 65.0083C128.753 64.8647 128.817 64.7152 128.824 64.5391C128.854 64.1865 128.733 63.7613 128.562 63.3702C128.223 62.5714 127.718 61.8351 127.197 61.1353C126.679 60.4256 126.11 59.7643 125.541 59.1016C124.389 57.7941 123.196 56.5241 121.981 55.2776C123.338 56.2885 124.639 57.4129 125.861 58.6639C126.477 59.2841 127.064 59.9469 127.625 60.6511C128.178 61.3649 128.71 62.1167 129.111 63.028C129.297 63.4867 129.472 64.0069 129.422 64.6226C129.402 64.9302 129.282 65.2324 129.128 65.4669C128.967 65.7175 128.725 65.8806 128.489 65.9651C128.007 66.1077 127.565 66.0056 127.163 65.8686C126.759 65.7265 126.383 65.5245 126.022 65.2989C124.581 64.3905 123.32 63.1826 122.151 61.8721Z" fill="#455A64"/>
<path d="M127.379 60.8522C127.893 61.2338 128.413 61.5364 128.95 61.7485C129.486 61.9516 130.033 62.0891 130.585 62.0756C130.722 62.0966 130.859 62.0626 130.997 62.0596C131.135 62.0556 131.273 62.0376 131.409 62.0026C131.546 61.9751 131.685 61.9551 131.822 61.9221C131.956 61.8725 132.092 61.83 132.23 61.7895C132.37 61.7565 132.504 61.696 132.637 61.6335L133.047 61.4604C133.318 61.3319 133.58 61.1728 133.871 61.0517C133.659 61.3093 133.433 61.5574 133.192 61.784C132.932 61.9706 132.687 62.2092 132.396 62.3392C131.84 62.6768 131.206 62.8079 130.578 62.8254C129.946 62.8239 129.318 62.6288 128.764 62.2867C128.212 61.9486 127.719 61.4634 127.379 60.8522Z" fill="#455A64"/>
<path d="M119.334 57.4794C119.788 57.9115 120.178 58.4217 120.532 58.9654C120.89 59.5071 121.198 60.0963 121.467 60.7176C121.722 61.3463 121.944 62.0111 122.03 62.7308C122.076 63.0875 122.084 63.4591 122.03 63.8222C121.971 64.1819 121.846 64.5385 121.631 64.7781C121.828 64.1143 121.717 63.4746 121.561 62.8604C121.395 62.2466 121.169 61.6474 120.918 61.0587C120.425 59.8708 119.846 58.7253 119.334 57.4794Z" fill="#455A64"/>
<path d="M127.217 45.1664C127.709 45.0854 128.206 45.0929 128.702 45.0974C129.197 45.1299 129.693 45.1824 130.185 45.2669C131.17 45.4345 132.143 45.7231 133.082 46.1267C134.018 46.5394 134.938 47.0186 135.788 47.6498C136.223 47.9434 136.628 48.295 137.038 48.6342C137.438 48.9898 137.815 49.3844 138.19 49.7731C137.346 49.1449 136.519 48.5051 135.637 47.9884C134.767 47.4472 133.865 46.9931 132.947 46.5994C132.031 46.1928 131.085 45.8987 130.131 45.6451C129.175 45.4015 128.203 45.2304 127.217 45.1664Z" fill="#455A64"/>
<path d="M137.726 57.0383C137.027 57.3934 136.256 57.4919 135.501 57.5034C134.742 57.5129 133.988 57.3849 133.248 57.1958C132.51 56.9942 131.792 56.7026 131.101 56.3415C130.754 56.1659 130.422 55.9463 130.089 55.7413C129.765 55.5092 129.444 55.2721 129.136 55.0105C129.503 55.1225 129.855 55.2676 130.207 55.4026L131.265 55.7913C131.621 55.8998 131.965 56.0534 132.322 56.1469C132.673 56.268 133.026 56.372 133.382 56.4635C134.09 56.6596 134.805 56.8127 135.527 56.9207C136.25 57.0162 136.979 57.0873 137.726 57.0383Z" fill="#455A64"/>
<path d="M114.466 62.4583C114.015 62.0381 113.659 61.4779 113.358 60.8942C113.053 60.308 112.817 59.6762 112.612 59.034C112.409 58.3892 112.259 57.724 112.141 57.0523C112.084 56.7161 112.044 56.3755 112.001 56.0374C111.98 55.6937 111.946 55.3541 111.938 55.0105C112.118 55.6622 112.285 56.309 112.451 56.9527C112.63 57.5915 112.793 58.2337 112.997 58.8564C113.189 59.4842 113.401 60.1024 113.638 60.7061C113.884 61.3038 114.132 61.9066 114.466 62.4583Z" fill="#455A64"/>
</svg>
