<svg width="224" height="197" viewBox="0 0 224 197" fill="none" xmlns="http://www.w3.org/2000/svg">
<g clip-path="url(#clip0_861_6977)">
<path d="M223.333 150.67H0.438858V150.767H223.333V150.67Z" fill="#EBEBEB"/>
<path d="M201 156.975H186.234V157.073H201V156.975Z" fill="#EBEBEB"/>
<path d="M148.093 158.039H144.218V158.136H148.093V158.039Z" fill="#EBEBEB"/>
<path d="M185.788 153.337H177.232V153.435H185.788V153.337Z" fill="#EBEBEB"/>
<path d="M43.0793 153.996H23.8243V154.094H43.0793V153.996Z" fill="#EBEBEB"/>
<path d="M49.8719 153.996H47.0488V154.094H49.8719V153.996Z" fill="#EBEBEB"/>
<path d="M100.807 155.65H59.047V155.748H100.807V155.65Z" fill="#EBEBEB"/>
<path d="M106.097 133.198H20.0156C18.6127 133.198 17.471 132.195 17.471 130.962V24.6263C17.471 23.3935 18.6127 22.3902 20.0156 22.3902H106.097C107.499 22.3902 108.641 23.3935 108.641 24.6263V130.962C108.641 132.195 107.499 133.198 106.097 133.198ZM20.0156 22.4885C18.6738 22.4885 17.5825 23.4475 17.5825 24.6267V130.962C17.5825 132.141 18.6738 133.1 20.0156 133.1H106.097C107.438 133.1 108.53 132.141 108.53 130.962V24.6263C108.53 23.4475 107.438 22.4881 106.097 22.4881L20.0156 22.4885Z" fill="#EBEBEB"/>
<path d="M202.519 133.198H116.438C115.036 133.198 113.894 132.195 113.894 130.962V24.6263C113.894 23.3935 115.036 22.3902 116.438 22.3902H202.519C203.923 22.3902 205.064 23.3935 205.064 24.6263V130.962C205.064 132.195 203.923 133.198 202.519 133.198ZM116.438 22.4885C115.097 22.4885 114.006 23.4475 114.006 24.6267V130.962C114.006 132.141 115.097 133.1 116.438 133.1H202.519C203.861 133.1 204.952 132.141 204.952 130.962V24.6263C204.952 23.4475 203.861 22.4881 202.519 22.4881L116.438 22.4885Z" fill="#EBEBEB"/>
<path d="M195.642 150.413V132.071H193.857V123.332H191.248V92.9445H187.477V89.0234L179.425 85.7232V81.7696H178.309V92.9445H176.748V123.332H175.186V107.354H170.948V99.1198H169.765V123.332H166.545V114.117H164.426V111.765H159.519V103.727H156.831V98.0417H153.527V89.7587H152.348V98.0417H149.044V103.727H146.357V111.765H141.448V114.117H139.329V123.332H136.816V111.765H131.908V86.8668H130.346V84.1221H119.861V86.8668H117.63V104.903H108.707V106.667H105.361V108.04H108.707V115.098H99.3375V91.5722H97.3297V86.573H92.9797V68.8307H91.7529V86.573H88.6297V91.5722H70.3198V89.9264H69.204V101.101H67.6424V101.297H66.7044V112.472H65.1428V115.511H61.8422V107.277H60.6595V126.881H59.3427V118.647H58.16V131.488H57.4405V122.274H55.3212V119.922H50.4131V111.884H47.7254V106.198H44.4217V97.9155H43.2426V106.198H39.9389V111.884H37.2512V119.922H32.3435V122.274H30.2242V131.292H29.8435V131.488H28.7941V150.413H195.642Z" fill="#E0D5F8"/>
<path d="M81.8001 92.6714H80.5359V93.7824H81.8001V92.6714Z" fill="#F0F0F0"/>
<path d="M81.8001 94.5338H80.5359V95.6449H81.8001V94.5338Z" fill="#F0F0F0"/>
<path d="M81.8001 101.983H80.5359V103.095H81.8001V101.983Z" fill="#F0F0F0"/>
<path d="M81.8001 103.846H80.5359V104.957H81.8001V103.846Z" fill="#F0F0F0"/>
<path d="M81.8001 105.708H80.5359V106.819H81.8001V105.708Z" fill="#F0F0F0"/>
<path d="M81.8001 111.296H80.5359V112.407H81.8001V111.296Z" fill="#F0F0F0"/>
<path d="M81.8001 113.158H80.5359V114.269H81.8001V113.158Z" fill="#F0F0F0"/>
<path d="M83.8075 100.121H82.5433V101.232H83.8075V100.121Z" fill="#F0F0F0"/>
<path d="M83.8075 101.983H82.5433V103.095H83.8075V101.983Z" fill="#F0F0F0"/>
<path d="M83.8075 103.846H82.5433V104.957H83.8075V103.846Z" fill="#F0F0F0"/>
<path d="M83.8075 105.708H82.5433V106.819H83.8075V105.708Z" fill="#F0F0F0"/>
<path d="M83.8075 107.571H82.5433V108.682H83.8075V107.571Z" fill="#F0F0F0"/>
<path d="M83.8075 111.296H82.5433V112.407H83.8075V111.296Z" fill="#F0F0F0"/>
<path d="M83.8075 113.158H82.5433V114.269H83.8075V113.158Z" fill="#F0F0F0"/>
<path d="M85.8155 92.6714H84.5512V93.7824H85.8155V92.6714Z" fill="#F0F0F0"/>
<path d="M85.8155 94.5338H84.5512V95.6449H85.8155V94.5338Z" fill="#F0F0F0"/>
<path d="M85.8155 96.3963H84.5512V97.5073H85.8155V96.3963Z" fill="#F0F0F0"/>
<path d="M85.8155 98.2587H84.5512V99.3697H85.8155V98.2587Z" fill="#F0F0F0"/>
<path d="M85.8155 100.121H84.5512V101.232H85.8155V100.121Z" fill="#F0F0F0"/>
<path d="M85.8155 101.983H84.5512V103.095H85.8155V101.983Z" fill="#F0F0F0"/>
<path d="M85.8155 103.846H84.5512V104.957H85.8155V103.846Z" fill="#F0F0F0"/>
<path d="M85.8155 105.708H84.5512V106.819H85.8155V105.708Z" fill="#F0F0F0"/>
<path d="M85.8155 107.571H84.5512V108.682H85.8155V107.571Z" fill="#F0F0F0"/>
<path d="M85.8155 109.433H84.5512V110.544H85.8155V109.433Z" fill="#F0F0F0"/>
<path d="M85.8155 113.158H84.5512V114.269H85.8155V113.158Z" fill="#F0F0F0"/>
<path d="M87.8232 92.6714H86.5589V93.7824H87.8232V92.6714Z" fill="#F0F0F0"/>
<path d="M87.8232 94.5338H86.5589V95.6449H87.8232V94.5338Z" fill="#F0F0F0"/>
<path d="M87.8232 96.3963H86.5589V97.5073H87.8232V96.3963Z" fill="#F0F0F0"/>
<path d="M87.8232 98.2587H86.5589V99.3697H87.8232V98.2587Z" fill="#F0F0F0"/>
<path d="M87.8232 100.121H86.5589V101.232H87.8232V100.121Z" fill="#F0F0F0"/>
<path d="M87.8232 101.983H86.5589V103.095H87.8232V101.983Z" fill="#F0F0F0"/>
<path d="M87.8232 103.846H86.5589V104.957H87.8232V103.846Z" fill="#F0F0F0"/>
<path d="M87.8232 120.608H86.5589V121.719H87.8232V120.608Z" fill="#F0F0F0"/>
<path d="M89.8311 92.6714H88.5669V93.7824H89.8311V92.6714Z" fill="#F0F0F0"/>
<path d="M89.8311 94.5338H88.5669V95.6449H89.8311V94.5338Z" fill="#F0F0F0"/>
<path d="M89.8311 96.3963H88.5669V97.5073H89.8311V96.3963Z" fill="#F0F0F0"/>
<path d="M89.8311 98.2587H88.5669V99.3697H89.8311V98.2587Z" fill="#F0F0F0"/>
<path d="M89.8311 100.121H88.5669V101.232H89.8311V100.121Z" fill="#F0F0F0"/>
<path d="M89.8311 101.983H88.5669V103.095H89.8311V101.983Z" fill="#F0F0F0"/>
<path d="M89.8311 103.846H88.5669V104.957H89.8311V103.846Z" fill="#F0F0F0"/>
<path d="M89.8311 105.708H88.5669V106.819H89.8311V105.708Z" fill="#F0F0F0"/>
<path d="M89.8311 116.883H88.5669V117.994H89.8311V116.883Z" fill="#F0F0F0"/>
<path d="M89.8311 118.745H88.5669V119.856H89.8311V118.745Z" fill="#F0F0F0"/>
<path d="M89.8311 120.608H88.5669V121.719H89.8311V120.608Z" fill="#F0F0F0"/>
<path d="M89.8311 122.47H88.5669V123.581H89.8311V122.47Z" fill="#F0F0F0"/>
<path d="M89.8311 129.92H88.5669V131.031H89.8311V129.92Z" fill="#F0F0F0"/>
<path d="M91.8391 92.6714H90.5748V93.7824H91.8391V92.6714Z" fill="#F0F0F0"/>
<path d="M91.8391 94.5338H90.5748V95.6449H91.8391V94.5338Z" fill="#F0F0F0"/>
<path d="M91.8391 96.3963H90.5748V97.5073H91.8391V96.3963Z" fill="#F0F0F0"/>
<path d="M91.8391 98.2587H90.5748V99.3697H91.8391V98.2587Z" fill="#F0F0F0"/>
<path d="M91.8391 100.121H90.5748V101.232H91.8391V100.121Z" fill="#F0F0F0"/>
<path d="M91.8391 101.983H90.5748V103.095H91.8391V101.983Z" fill="#F0F0F0"/>
<path d="M91.8391 103.846H90.5748V104.957H91.8391V103.846Z" fill="#F0F0F0"/>
<path d="M91.8391 105.708H90.5748V106.819H91.8391V105.708Z" fill="#F0F0F0"/>
<path d="M91.8391 107.571H90.5748V108.682H91.8391V107.571Z" fill="#F0F0F0"/>
<path d="M91.8391 109.433H90.5748V110.544H91.8391V109.433Z" fill="#F0F0F0"/>
<path d="M91.8391 115.02H90.5748V116.131H91.8391V115.02Z" fill="#F0F0F0"/>
<path d="M91.8391 116.883H90.5748V117.994H91.8391V116.883Z" fill="#F0F0F0"/>
<path d="M91.8391 118.745H90.5748V119.856H91.8391V118.745Z" fill="#F0F0F0"/>
<path d="M91.8391 120.608H90.5748V121.719H91.8391V120.608Z" fill="#F0F0F0"/>
<path d="M91.8391 122.47H90.5748V123.581H91.8391V122.47Z" fill="#F0F0F0"/>
<path d="M91.8391 129.92H90.5748V131.031H91.8391V129.92Z" fill="#F0F0F0"/>
<path d="M93.8468 92.6714H92.5825V93.7824H93.8468V92.6714Z" fill="#F0F0F0"/>
<path d="M93.8468 94.5338H92.5825V95.6449H93.8468V94.5338Z" fill="#F0F0F0"/>
<path d="M93.8468 96.3963H92.5825V97.5073H93.8468V96.3963Z" fill="#F0F0F0"/>
<path d="M93.8468 98.2587H92.5825V99.3697H93.8468V98.2587Z" fill="#F0F0F0"/>
<path d="M93.8468 100.121H92.5825V101.232H93.8468V100.121Z" fill="#F0F0F0"/>
<path d="M93.8468 101.983H92.5825V103.095H93.8468V101.983Z" fill="#F0F0F0"/>
<path d="M93.8468 103.846H92.5825V104.957H93.8468V103.846Z" fill="#F0F0F0"/>
<path d="M93.8468 105.708H92.5825V106.819H93.8468V105.708Z" fill="#F0F0F0"/>
<path d="M93.8468 107.571H92.5825V108.682H93.8468V107.571Z" fill="#F0F0F0"/>
<path d="M93.8468 109.433H92.5825V110.544H93.8468V109.433Z" fill="#F0F0F0"/>
<path d="M93.8468 111.296H92.5825V112.407H93.8468V111.296Z" fill="#F0F0F0"/>
<path d="M93.8468 113.158H92.5825V114.269H93.8468V113.158Z" fill="#F0F0F0"/>
<path d="M93.8468 115.02H92.5825V116.131H93.8468V115.02Z" fill="#F0F0F0"/>
<path d="M93.8468 116.883H92.5825V117.994H93.8468V116.883Z" fill="#F0F0F0"/>
<path d="M93.8468 118.745H92.5825V119.856H93.8468V118.745Z" fill="#F0F0F0"/>
<path d="M93.8468 120.608H92.5825V121.719H93.8468V120.608Z" fill="#F0F0F0"/>
<path d="M93.8468 122.47H92.5825V123.581H93.8468V122.47Z" fill="#F0F0F0"/>
<path d="M93.8468 124.333H92.5825V125.444H93.8468V124.333Z" fill="#F0F0F0"/>
<path d="M95.8547 92.6714H94.5905V93.7824H95.8547V92.6714Z" fill="#F0F0F0"/>
<path d="M95.8547 94.5338H94.5905V95.6449H95.8547V94.5338Z" fill="#F0F0F0"/>
<path d="M95.8547 96.3963H94.5905V97.5073H95.8547V96.3963Z" fill="#F0F0F0"/>
<path d="M95.8547 98.2587H94.5905V99.3697H95.8547V98.2587Z" fill="#F0F0F0"/>
<path d="M95.8547 100.121H94.5905V101.232H95.8547V100.121Z" fill="#F0F0F0"/>
<path d="M95.8547 101.983H94.5905V103.095H95.8547V101.983Z" fill="#F0F0F0"/>
<path d="M95.8547 103.846H94.5905V104.957H95.8547V103.846Z" fill="#F0F0F0"/>
<path d="M95.8547 105.708H94.5905V106.819H95.8547V105.708Z" fill="#F0F0F0"/>
<path d="M95.8547 107.571H94.5905V108.682H95.8547V107.571Z" fill="#F0F0F0"/>
<path d="M95.8547 109.433H94.5905V110.544H95.8547V109.433Z" fill="#F0F0F0"/>
<path d="M95.8547 115.02H94.5905V116.131H95.8547V115.02Z" fill="#F0F0F0"/>
<path d="M95.8547 116.883H94.5905V117.994H95.8547V116.883Z" fill="#F0F0F0"/>
<path d="M95.8547 118.745H94.5905V119.856H95.8547V118.745Z" fill="#F0F0F0"/>
<path d="M95.8547 120.608H94.5905V121.719H95.8547V120.608Z" fill="#F0F0F0"/>
<path d="M97.8621 92.6714H96.5979V93.7824H97.8621V92.6714Z" fill="#F0F0F0"/>
<path d="M97.8621 94.5338H96.5979V95.6449H97.8621V94.5338Z" fill="#F0F0F0"/>
<path d="M97.8621 96.3963H96.5979V97.5073H97.8621V96.3963Z" fill="#F0F0F0"/>
<path d="M97.8621 98.2587H96.5979V99.3697H97.8621V98.2587Z" fill="#F0F0F0"/>
<path d="M97.8621 100.121H96.5979V101.232H97.8621V100.121Z" fill="#F0F0F0"/>
<path d="M97.8621 101.983H96.5979V103.095H97.8621V101.983Z" fill="#F0F0F0"/>
<path d="M97.8621 103.846H96.5979V104.957H97.8621V103.846Z" fill="#F0F0F0"/>
<path d="M97.8621 105.708H96.5979V106.819H97.8621V105.708Z" fill="#F0F0F0"/>
<path d="M97.8621 107.571H96.5979V108.682H97.8621V107.571Z" fill="#F0F0F0"/>
<path d="M97.8621 109.433H96.5979V110.544H97.8621V109.433Z" fill="#F0F0F0"/>
<path d="M97.8621 115.02H96.5979V116.131H97.8621V115.02Z" fill="#F0F0F0"/>
<path d="M97.8621 116.883H96.5979V117.994H97.8621V116.883Z" fill="#F0F0F0"/>
<path d="M97.8621 118.745H96.5979V119.856H97.8621V118.745Z" fill="#F0F0F0"/>
<path d="M120.468 87.8356H119.204V88.9466H120.468V87.8356Z" fill="#F0F0F0"/>
<path d="M120.468 89.698H119.204V90.809H120.468V89.698Z" fill="#F0F0F0"/>
<path d="M120.468 91.5604H119.204V92.6714H120.468V91.5604Z" fill="#F0F0F0"/>
<path d="M120.468 93.4228H119.204V94.5338H120.468V93.4228Z" fill="#F0F0F0"/>
<path d="M120.468 95.2852H119.204V96.3963H120.468V95.2852Z" fill="#F0F0F0"/>
<path d="M120.468 97.1476H119.204V98.2587H120.468V97.1476Z" fill="#F0F0F0"/>
<path d="M120.468 99.0101H119.204V100.121H120.468V99.0101Z" fill="#F0F0F0"/>
<path d="M120.468 100.872H119.204V101.983H120.468V100.872Z" fill="#F0F0F0"/>
<path d="M120.468 106.46H119.204V107.571H120.468V106.46Z" fill="#F0F0F0"/>
<path d="M120.468 108.322H119.204V109.433H120.468V108.322Z" fill="#F0F0F0"/>
<path d="M122.476 87.8356H121.212V88.9466H122.476V87.8356Z" fill="#F0F0F0"/>
<path d="M122.476 89.698H121.212V90.809H122.476V89.698Z" fill="#F0F0F0"/>
<path d="M122.476 91.5604H121.212V92.6714H122.476V91.5604Z" fill="#F0F0F0"/>
<path d="M122.476 93.4228H121.212V94.5338H122.476V93.4228Z" fill="#F0F0F0"/>
<path d="M122.476 95.2852H121.212V96.3963H122.476V95.2852Z" fill="#F0F0F0"/>
<path d="M122.476 97.1476H121.212V98.2587H122.476V97.1476Z" fill="#F0F0F0"/>
<path d="M122.476 99.0101H121.212V100.121H122.476V99.0101Z" fill="#F0F0F0"/>
<path d="M122.476 100.872H121.212V101.983H122.476V100.872Z" fill="#F0F0F0"/>
<path d="M122.476 108.322H121.212V109.433H122.476V108.322Z" fill="#F0F0F0"/>
<path d="M124.484 87.8356H123.219V88.9466H124.484V87.8356Z" fill="#F0F0F0"/>
<path d="M124.484 89.698H123.219V90.809H124.484V89.698Z" fill="#F0F0F0"/>
<path d="M124.484 91.5604H123.219V92.6714H124.484V91.5604Z" fill="#F0F0F0"/>
<path d="M124.484 93.4228H123.219V94.5338H124.484V93.4228Z" fill="#F0F0F0"/>
<path d="M124.484 95.2852H123.219V96.3963H124.484V95.2852Z" fill="#F0F0F0"/>
<path d="M124.484 97.1476H123.219V98.2587H124.484V97.1476Z" fill="#F0F0F0"/>
<path d="M124.484 99.0101H123.219V100.121H124.484V99.0101Z" fill="#F0F0F0"/>
<path d="M124.484 100.872H123.219V101.983H124.484V100.872Z" fill="#F0F0F0"/>
<path d="M126.492 87.8356H125.227V88.9466H126.492V87.8356Z" fill="#F0F0F0"/>
<path d="M126.492 89.698H125.227V90.809H126.492V89.698Z" fill="#F0F0F0"/>
<path d="M126.492 91.5604H125.227V92.6714H126.492V91.5604Z" fill="#F0F0F0"/>
<path d="M126.492 93.4228H125.227V94.5338H126.492V93.4228Z" fill="#F0F0F0"/>
<path d="M126.492 95.2852H125.227V96.3963H126.492V95.2852Z" fill="#F0F0F0"/>
<path d="M126.492 97.1476H125.227V98.2587H126.492V97.1476Z" fill="#F0F0F0"/>
<path d="M126.492 100.872H125.227V101.983H126.492V100.872Z" fill="#F0F0F0"/>
<path d="M126.492 102.735H125.227V103.846H126.492V102.735Z" fill="#F0F0F0"/>
<path d="M126.492 108.322H125.227V109.433H126.492V108.322Z" fill="#F0F0F0"/>
<path d="M126.492 110.185H125.227V111.296H126.492V110.185Z" fill="#F0F0F0"/>
<path d="M126.492 112.047H125.227V113.158H126.492V112.047Z" fill="#F0F0F0"/>
<path d="M126.492 113.91H125.227V115.021H126.492V113.91Z" fill="#F0F0F0"/>
<path d="M126.492 115.772H125.227V116.883H126.492V115.772Z" fill="#F0F0F0"/>
<path d="M126.492 117.635H125.227V118.746H126.492V117.635Z" fill="#F0F0F0"/>
<path d="M126.492 119.497H125.227V120.608H126.492V119.497Z" fill="#F0F0F0"/>
<path d="M128.499 87.8356H127.235V88.9466H128.499V87.8356Z" fill="#F0F0F0"/>
<path d="M128.499 89.698H127.235V90.809H128.499V89.698Z" fill="#F0F0F0"/>
<path d="M128.499 91.5604H127.235V92.6714H128.499V91.5604Z" fill="#F0F0F0"/>
<path d="M128.499 93.4228H127.235V94.5338H128.499V93.4228Z" fill="#F0F0F0"/>
<path d="M128.499 95.2852H127.235V96.3963H128.499V95.2852Z" fill="#F0F0F0"/>
<path d="M128.499 97.1476H127.235V98.2587H128.499V97.1476Z" fill="#F0F0F0"/>
<path d="M128.499 102.735H127.235V103.846H128.499V102.735Z" fill="#F0F0F0"/>
<path d="M128.499 104.597H127.235V105.708H128.499V104.597Z" fill="#F0F0F0"/>
<path d="M128.499 106.46H127.235V107.571H128.499V106.46Z" fill="#F0F0F0"/>
<path d="M128.499 108.322H127.235V109.433H128.499V108.322Z" fill="#F0F0F0"/>
<path d="M128.499 110.185H127.235V111.296H128.499V110.185Z" fill="#F0F0F0"/>
<path d="M128.499 112.047H127.235V113.158H128.499V112.047Z" fill="#F0F0F0"/>
<path d="M128.499 113.91H127.235V115.021H128.499V113.91Z" fill="#F0F0F0"/>
<path d="M128.499 115.772H127.235V116.883H128.499V115.772Z" fill="#F0F0F0"/>
<path d="M128.499 117.635H127.235V118.746H128.499V117.635Z" fill="#F0F0F0"/>
<path d="M128.499 119.497H127.235V120.608H128.499V119.497Z" fill="#F0F0F0"/>
<path d="M128.499 121.359H127.235V122.47H128.499V121.359Z" fill="#F0F0F0"/>
<path d="M128.499 125.084H127.235V126.195H128.499V125.084Z" fill="#F0F0F0"/>
<path d="M130.507 87.8356H129.242V88.9466H130.507V87.8356Z" fill="#F0F0F0"/>
<path d="M130.507 89.698H129.242V90.809H130.507V89.698Z" fill="#F0F0F0"/>
<path d="M130.507 91.5604H129.242V92.6714H130.507V91.5604Z" fill="#F0F0F0"/>
<path d="M130.507 93.4228H129.242V94.5338H130.507V93.4228Z" fill="#F0F0F0"/>
<path d="M130.507 95.2852H129.242V96.3963H130.507V95.2852Z" fill="#F0F0F0"/>
<path d="M130.507 97.1476H129.242V98.2587H130.507V97.1476Z" fill="#F0F0F0"/>
<path d="M130.507 102.735H129.242V103.846H130.507V102.735Z" fill="#F0F0F0"/>
<path d="M130.507 104.597H129.242V105.708H130.507V104.597Z" fill="#F0F0F0"/>
<path d="M130.507 106.46H129.242V107.571H130.507V106.46Z" fill="#F0F0F0"/>
<path d="M130.507 108.322H129.242V109.433H130.507V108.322Z" fill="#F0F0F0"/>
<path d="M130.507 113.91H129.242V115.021H130.507V113.91Z" fill="#F0F0F0"/>
<path d="M130.507 115.772H129.242V116.883H130.507V115.772Z" fill="#F0F0F0"/>
<path d="M130.507 117.635H129.242V118.746H130.507V117.635Z" fill="#F0F0F0"/>
<path d="M130.507 119.497H129.242V120.608H130.507V119.497Z" fill="#F0F0F0"/>
<path d="M130.507 121.359H129.242V122.47H130.507V121.359Z" fill="#F0F0F0"/>
<path d="M130.507 125.084H129.242V126.195H130.507V125.084Z" fill="#F0F0F0"/>
<path d="M130.507 126.947H129.242V128.058H130.507V126.947Z" fill="#F0F0F0"/>
<path d="M148.726 105.153H147.461V106.264H148.726V105.153Z" fill="#F0F0F0"/>
<path d="M148.726 107.015H147.461V108.126H148.726V107.015Z" fill="#F0F0F0"/>
<path d="M148.726 108.878H147.461V109.989H148.726V108.878Z" fill="#F0F0F0"/>
<path d="M148.726 110.74H147.461V111.851H148.726V110.74Z" fill="#F0F0F0"/>
<path d="M148.726 112.602H147.461V113.714H148.726V112.602Z" fill="#F0F0F0"/>
<path d="M148.726 114.465H147.461V115.576H148.726V114.465Z" fill="#F0F0F0"/>
<path d="M148.726 116.328H147.461V117.439H148.726V116.328Z" fill="#F0F0F0"/>
<path d="M148.726 121.915H147.461V123.026H148.726V121.915Z" fill="#F0F0F0"/>
<path d="M148.726 123.777H147.461V124.888H148.726V123.777Z" fill="#F0F0F0"/>
<path d="M148.726 125.64H147.461V126.751H148.726V125.64Z" fill="#F0F0F0"/>
<path d="M150.733 105.153H149.469V106.264H150.733V105.153Z" fill="#F0F0F0"/>
<path d="M150.733 107.015H149.469V108.126H150.733V107.015Z" fill="#F0F0F0"/>
<path d="M150.733 108.878H149.469V109.989H150.733V108.878Z" fill="#F0F0F0"/>
<path d="M150.733 110.74H149.469V111.851H150.733V110.74Z" fill="#F0F0F0"/>
<path d="M150.733 112.602H149.469V113.714H150.733V112.602Z" fill="#F0F0F0"/>
<path d="M150.733 114.465H149.469V115.576H150.733V114.465Z" fill="#F0F0F0"/>
<path d="M150.733 116.328H149.469V117.439H150.733V116.328Z" fill="#F0F0F0"/>
<path d="M152.741 105.153H151.477V106.264H152.741V105.153Z" fill="#F0F0F0"/>
<path d="M152.741 107.015H151.477V108.126H152.741V107.015Z" fill="#F0F0F0"/>
<path d="M152.741 108.878H151.477V109.989H152.741V108.878Z" fill="#F0F0F0"/>
<path d="M152.741 110.74H151.477V111.851H152.741V110.74Z" fill="#F0F0F0"/>
<path d="M152.741 112.602H151.477V113.714H152.741V112.602Z" fill="#F0F0F0"/>
<path d="M152.741 114.465H151.477V115.576H152.741V114.465Z" fill="#F0F0F0"/>
<path d="M152.741 116.328H151.477V117.439H152.741V116.328Z" fill="#F0F0F0"/>
<path d="M154.749 105.153H153.484V106.264H154.749V105.153Z" fill="#F0F0F0"/>
<path d="M154.749 107.015H153.484V108.126H154.749V107.015Z" fill="#F0F0F0"/>
<path d="M154.749 108.878H153.484V109.989H154.749V108.878Z" fill="#F0F0F0"/>
<path d="M154.749 110.74H153.484V111.851H154.749V110.74Z" fill="#F0F0F0"/>
<path d="M154.749 112.602H153.484V113.714H154.749V112.602Z" fill="#F0F0F0"/>
<path d="M154.749 114.465H153.484V115.576H154.749V114.465Z" fill="#F0F0F0"/>
<path d="M154.749 116.328H153.484V117.439H154.749V116.328Z" fill="#F0F0F0"/>
<path d="M154.749 118.19H153.484V119.301H154.749V118.19Z" fill="#F0F0F0"/>
<path d="M154.749 120.053H153.484V121.164H154.749V120.053Z" fill="#F0F0F0"/>
<path d="M154.749 121.915H153.484V123.026H154.749V121.915Z" fill="#F0F0F0"/>
<path d="M154.749 123.777H153.484V124.888H154.749V123.777Z" fill="#F0F0F0"/>
<path d="M156.756 105.153H155.492V106.264H156.756V105.153Z" fill="#F0F0F0"/>
<path d="M156.756 107.015H155.492V108.126H156.756V107.015Z" fill="#F0F0F0"/>
<path d="M156.756 108.878H155.492V109.989H156.756V108.878Z" fill="#F0F0F0"/>
<path d="M156.756 110.74H155.492V111.851H156.756V110.74Z" fill="#F0F0F0"/>
<path d="M156.756 112.602H155.492V113.714H156.756V112.602Z" fill="#F0F0F0"/>
<path d="M156.756 114.465H155.492V115.576H156.756V114.465Z" fill="#F0F0F0"/>
<path d="M156.756 116.328H155.492V117.439H156.756V116.328Z" fill="#F0F0F0"/>
<path d="M156.756 118.19H155.492V119.301H156.756V118.19Z" fill="#F0F0F0"/>
<path d="M156.756 120.053H155.492V121.164H156.756V120.053Z" fill="#F0F0F0"/>
<path d="M156.756 121.915H155.492V123.026H156.756V121.915Z" fill="#F0F0F0"/>
<path d="M156.756 123.777H155.492V124.888H156.756V123.777Z" fill="#F0F0F0"/>
<path d="M156.756 125.64H155.492V126.751H156.756V125.64Z" fill="#F0F0F0"/>
<path d="M156.756 131.227H155.492V132.338H156.756V131.227Z" fill="#F0F0F0"/>
<path d="M156.756 133.089H155.492V134.2H156.756V133.089Z" fill="#F0F0F0"/>
<path d="M158.764 105.153H157.5V106.264H158.764V105.153Z" fill="#F0F0F0"/>
<path d="M158.764 107.015H157.5V108.126H158.764V107.015Z" fill="#F0F0F0"/>
<path d="M158.764 108.878H157.5V109.989H158.764V108.878Z" fill="#F0F0F0"/>
<path d="M158.764 114.465H157.5V115.576H158.764V114.465Z" fill="#F0F0F0"/>
<path d="M158.764 116.328H157.5V117.439H158.764V116.328Z" fill="#F0F0F0"/>
<path d="M158.764 118.19H157.5V119.301H158.764V118.19Z" fill="#F0F0F0"/>
<path d="M158.764 120.053H157.5V121.164H158.764V120.053Z" fill="#F0F0F0"/>
<path d="M158.764 121.915H157.5V123.026H158.764V121.915Z" fill="#F0F0F0"/>
<path d="M158.764 123.777H157.5V124.888H158.764V123.777Z" fill="#F0F0F0"/>
<path d="M158.764 125.64H157.5V126.751H158.764V125.64Z" fill="#F0F0F0"/>
<path d="M158.764 131.227H157.5V132.338H158.764V131.227Z" fill="#F0F0F0"/>
<path d="M158.764 133.089H157.5V134.2H158.764V133.089Z" fill="#F0F0F0"/>
<path d="M158.764 134.952H157.5V136.063H158.764V134.952Z" fill="#F0F0F0"/>
<path d="M179.809 93.9783H178.544V95.0894H179.809V93.9783Z" fill="#F0F0F0"/>
<path d="M179.809 95.8408H178.544V96.9518H179.809V95.8408Z" fill="#F0F0F0"/>
<path d="M179.809 97.7032H178.544V98.8142H179.809V97.7032Z" fill="#F0F0F0"/>
<path d="M179.809 99.5656H178.544V100.677H179.809V99.5656Z" fill="#F0F0F0"/>
<path d="M179.809 101.428H178.544V102.539H179.809V101.428Z" fill="#F0F0F0"/>
<path d="M179.809 103.29H178.544V104.401H179.809V103.29Z" fill="#F0F0F0"/>
<path d="M179.809 105.153H178.544V106.264H179.809V105.153Z" fill="#F0F0F0"/>
<path d="M179.809 107.015H178.544V108.126H179.809V107.015Z" fill="#F0F0F0"/>
<path d="M179.809 108.878H178.544V109.989H179.809V108.878Z" fill="#F0F0F0"/>
<path d="M179.809 110.74H178.544V111.851H179.809V110.74Z" fill="#F0F0F0"/>
<path d="M179.809 112.602H178.544V113.714H179.809V112.602Z" fill="#F0F0F0"/>
<path d="M179.809 114.465H178.544V115.576H179.809V114.465Z" fill="#F0F0F0"/>
<path d="M179.809 116.328H178.544V117.439H179.809V116.328Z" fill="#F0F0F0"/>
<path d="M179.809 118.19H178.544V119.301H179.809V118.19Z" fill="#F0F0F0"/>
<path d="M179.809 120.053H178.544V121.164H179.809V120.053Z" fill="#F0F0F0"/>
<path d="M179.809 121.915H178.544V123.026H179.809V121.915Z" fill="#F0F0F0"/>
<path d="M179.809 123.777H178.544V124.888H179.809V123.777Z" fill="#F0F0F0"/>
<path d="M179.809 125.64H178.544V126.751H179.809V125.64Z" fill="#F0F0F0"/>
<path d="M179.809 127.502H178.544V128.613H179.809V127.502Z" fill="#F0F0F0"/>
<path d="M179.809 129.365H178.544V130.476H179.809V129.365Z" fill="#F0F0F0"/>
<path d="M179.809 131.227H178.544V132.338H179.809V131.227Z" fill="#F0F0F0"/>
<path d="M179.809 133.089H178.544V134.2H179.809V133.089Z" fill="#F0F0F0"/>
<path d="M179.809 134.952H178.544V136.063H179.809V134.952Z" fill="#F0F0F0"/>
<path d="M181.817 93.9783H180.552V95.0894H181.817V93.9783Z" fill="#F0F0F0"/>
<path d="M181.817 95.8408H180.552V96.9518H181.817V95.8408Z" fill="#F0F0F0"/>
<path d="M181.817 97.7032H180.552V98.8142H181.817V97.7032Z" fill="#F0F0F0"/>
<path d="M181.817 99.5656H180.552V100.677H181.817V99.5656Z" fill="#F0F0F0"/>
<path d="M181.817 101.428H180.552V102.539H181.817V101.428Z" fill="#F0F0F0"/>
<path d="M181.817 103.29H180.552V104.401H181.817V103.29Z" fill="#F0F0F0"/>
<path d="M181.817 105.153H180.552V106.264H181.817V105.153Z" fill="#F0F0F0"/>
<path d="M181.817 107.015H180.552V108.126H181.817V107.015Z" fill="#F0F0F0"/>
<path d="M181.817 108.878H180.552V109.989H181.817V108.878Z" fill="#F0F0F0"/>
<path d="M181.817 110.74H180.552V111.851H181.817V110.74Z" fill="#F0F0F0"/>
<path d="M181.817 112.602H180.552V113.714H181.817V112.602Z" fill="#F0F0F0"/>
<path d="M181.817 114.465H180.552V115.576H181.817V114.465Z" fill="#F0F0F0"/>
<path d="M181.817 116.328H180.552V117.439H181.817V116.328Z" fill="#F0F0F0"/>
<path d="M181.817 118.19H180.552V119.301H181.817V118.19Z" fill="#F0F0F0"/>
<path d="M181.817 120.053H180.552V121.164H181.817V120.053Z" fill="#F0F0F0"/>
<path d="M181.817 121.915H180.552V123.026H181.817V121.915Z" fill="#F0F0F0"/>
<path d="M181.817 123.777H180.552V124.888H181.817V123.777Z" fill="#F0F0F0"/>
<path d="M181.817 125.64H180.552V126.751H181.817V125.64Z" fill="#F0F0F0"/>
<path d="M181.817 127.502H180.552V128.613H181.817V127.502Z" fill="#F0F0F0"/>
<path d="M183.824 93.9783H182.56V95.0894H183.824V93.9783Z" fill="#F0F0F0"/>
<path d="M183.824 95.8408H182.56V96.9518H183.824V95.8408Z" fill="#F0F0F0"/>
<path d="M183.824 97.7032H182.56V98.8142H183.824V97.7032Z" fill="#F0F0F0"/>
<path d="M183.824 99.5656H182.56V100.677H183.824V99.5656Z" fill="#F0F0F0"/>
<path d="M183.824 101.428H182.56V102.539H183.824V101.428Z" fill="#F0F0F0"/>
<path d="M183.824 103.29H182.56V104.401H183.824V103.29Z" fill="#F0F0F0"/>
<path d="M183.824 105.153H182.56V106.264H183.824V105.153Z" fill="#F0F0F0"/>
<path d="M183.824 107.015H182.56V108.126H183.824V107.015Z" fill="#F0F0F0"/>
<path d="M183.824 108.878H182.56V109.989H183.824V108.878Z" fill="#F0F0F0"/>
<path d="M183.824 110.74H182.56V111.851H183.824V110.74Z" fill="#F0F0F0"/>
<path d="M183.824 112.602H182.56V113.714H183.824V112.602Z" fill="#F0F0F0"/>
<path d="M183.824 114.465H182.56V115.576H183.824V114.465Z" fill="#F0F0F0"/>
<path d="M183.824 116.328H182.56V117.439H183.824V116.328Z" fill="#F0F0F0"/>
<path d="M183.824 118.19H182.56V119.301H183.824V118.19Z" fill="#F0F0F0"/>
<path d="M183.824 120.053H182.56V121.164H183.824V120.053Z" fill="#F0F0F0"/>
<path d="M183.824 121.915H182.56V123.026H183.824V121.915Z" fill="#F0F0F0"/>
<path d="M183.824 123.777H182.56V124.888H183.824V123.777Z" fill="#F0F0F0"/>
<path d="M183.824 125.64H182.56V126.751H183.824V125.64Z" fill="#F0F0F0"/>
<path d="M183.824 127.502H182.56V128.613H183.824V127.502Z" fill="#F0F0F0"/>
<path d="M185.832 93.9783H184.567V95.0894H185.832V93.9783Z" fill="#F0F0F0"/>
<path d="M185.832 95.8408H184.567V96.9518H185.832V95.8408Z" fill="#F0F0F0"/>
<path d="M185.832 97.7032H184.567V98.8142H185.832V97.7032Z" fill="#F0F0F0"/>
<path d="M185.832 99.5656H184.567V100.677H185.832V99.5656Z" fill="#F0F0F0"/>
<path d="M185.832 101.428H184.567V102.539H185.832V101.428Z" fill="#F0F0F0"/>
<path d="M185.832 103.29H184.567V104.401H185.832V103.29Z" fill="#F0F0F0"/>
<path d="M185.832 105.153H184.567V106.264H185.832V105.153Z" fill="#F0F0F0"/>
<path d="M185.832 107.015H184.567V108.126H185.832V107.015Z" fill="#F0F0F0"/>
<path d="M185.832 108.878H184.567V109.989H185.832V108.878Z" fill="#F0F0F0"/>
<path d="M185.832 110.74H184.567V111.851H185.832V110.74Z" fill="#F0F0F0"/>
<path d="M185.832 112.602H184.567V113.714H185.832V112.602Z" fill="#F0F0F0"/>
<path d="M185.832 114.465H184.567V115.576H185.832V114.465Z" fill="#F0F0F0"/>
<path d="M185.832 116.328H184.567V117.439H185.832V116.328Z" fill="#F0F0F0"/>
<path d="M185.832 118.19H184.567V119.301H185.832V118.19Z" fill="#F0F0F0"/>
<path d="M185.832 120.053H184.567V121.164H185.832V120.053Z" fill="#F0F0F0"/>
<path d="M187.84 93.9783H186.575V95.0894H187.84V93.9783Z" fill="#F0F0F0"/>
<path d="M187.84 95.8408H186.575V96.9518H187.84V95.8408Z" fill="#F0F0F0"/>
<path d="M187.84 97.7032H186.575V98.8142H187.84V97.7032Z" fill="#F0F0F0"/>
<path d="M187.84 99.5656H186.575V100.677H187.84V99.5656Z" fill="#F0F0F0"/>
<path d="M187.84 101.428H186.575V102.539H187.84V101.428Z" fill="#F0F0F0"/>
<path d="M187.84 103.29H186.575V104.401H187.84V103.29Z" fill="#F0F0F0"/>
<path d="M187.84 105.153H186.575V106.264H187.84V105.153Z" fill="#F0F0F0"/>
<path d="M187.84 107.015H186.575V108.126H187.84V107.015Z" fill="#F0F0F0"/>
<path d="M187.84 108.878H186.575V109.989H187.84V108.878Z" fill="#F0F0F0"/>
<path d="M187.84 110.74H186.575V111.851H187.84V110.74Z" fill="#F0F0F0"/>
<path d="M187.84 112.602H186.575V113.714H187.84V112.602Z" fill="#F0F0F0"/>
<path d="M187.84 114.465H186.575V115.576H187.84V114.465Z" fill="#F0F0F0"/>
<path d="M187.84 116.328H186.575V117.439H187.84V116.328Z" fill="#F0F0F0"/>
<path d="M189.847 93.9783H188.583V95.0894H189.847V93.9783Z" fill="#F0F0F0"/>
<path d="M189.847 95.8408H188.583V96.9518H189.847V95.8408Z" fill="#F0F0F0"/>
<path d="M189.847 97.7032H188.583V98.8142H189.847V97.7032Z" fill="#F0F0F0"/>
<path d="M189.847 99.5656H188.583V100.677H189.847V99.5656Z" fill="#F0F0F0"/>
<path d="M189.847 101.428H188.583V102.539H189.847V101.428Z" fill="#F0F0F0"/>
<path d="M189.847 103.29H188.583V104.401H189.847V103.29Z" fill="#F0F0F0"/>
<path d="M189.847 105.153H188.583V106.264H189.847V105.153Z" fill="#F0F0F0"/>
<path d="M189.847 107.015H188.583V108.126H189.847V107.015Z" fill="#F0F0F0"/>
<path d="M189.847 108.878H188.583V109.989H189.847V108.878Z" fill="#F0F0F0"/>
<path d="M189.847 110.74H188.583V111.851H189.847V110.74Z" fill="#F0F0F0"/>
<path d="M189.847 112.602H188.583V113.714H189.847V112.602Z" fill="#F0F0F0"/>
<path d="M189.847 114.465H188.583V115.576H189.847V114.465Z" fill="#F0F0F0"/>
<path d="M42.314 107.571H41.0498V108.682H42.314V107.571Z" fill="#F0F0F0"/>
<path d="M42.314 109.433H41.0498V110.544H42.314V109.433Z" fill="#F0F0F0"/>
<path d="M42.314 111.296H41.0498V112.407H42.314V111.296Z" fill="#F0F0F0"/>
<path d="M42.314 113.158H41.0498V114.269H42.314V113.158Z" fill="#F0F0F0"/>
<path d="M42.314 115.02H41.0498V116.131H42.314V115.02Z" fill="#F0F0F0"/>
<path d="M42.314 116.883H41.0498V117.994H42.314V116.883Z" fill="#F0F0F0"/>
<path d="M42.314 118.745H41.0498V119.856H42.314V118.745Z" fill="#F0F0F0"/>
<path d="M42.314 120.608H41.0498V121.719H42.314V120.608Z" fill="#F0F0F0"/>
<path d="M42.314 122.47H41.0498V123.581H42.314V122.47Z" fill="#F0F0F0"/>
<path d="M42.314 124.333H41.0498V125.444H42.314V124.333Z" fill="#F0F0F0"/>
<path d="M42.314 126.195H41.0498V127.306H42.314V126.195Z" fill="#F0F0F0"/>
<path d="M42.314 128.058H41.0498V129.169H42.314V128.058Z" fill="#F0F0F0"/>
<path d="M42.314 129.92H41.0498V131.031H42.314V129.92Z" fill="#F0F0F0"/>
<path d="M42.314 131.783H41.0498V132.894H42.314V131.783Z" fill="#F0F0F0"/>
<path d="M42.314 133.645H41.0498V134.756H42.314V133.645Z" fill="#F0F0F0"/>
<path d="M42.314 135.507H41.0498V136.618H42.314V135.507Z" fill="#F0F0F0"/>
<path d="M42.314 137.37H41.0498V138.481H42.314V137.37Z" fill="#F0F0F0"/>
<path d="M42.314 139.232H41.0498V140.343H42.314V139.232Z" fill="#F0F0F0"/>
<path d="M42.314 141.095H41.0498V142.206H42.314V141.095Z" fill="#F0F0F0"/>
<path d="M42.314 142.957H41.0498V144.068H42.314V142.957Z" fill="#F0F0F0"/>
<path d="M44.322 107.571H43.0577V108.682H44.322V107.571Z" fill="#F0F0F0"/>
<path d="M44.322 109.433H43.0577V110.544H44.322V109.433Z" fill="#F0F0F0"/>
<path d="M44.322 111.296H43.0577V112.407H44.322V111.296Z" fill="#F0F0F0"/>
<path d="M44.322 113.158H43.0577V114.269H44.322V113.158Z" fill="#F0F0F0"/>
<path d="M44.322 115.02H43.0577V116.131H44.322V115.02Z" fill="#F0F0F0"/>
<path d="M44.322 116.883H43.0577V117.994H44.322V116.883Z" fill="#F0F0F0"/>
<path d="M44.322 118.745H43.0577V119.856H44.322V118.745Z" fill="#F0F0F0"/>
<path d="M44.322 120.608H43.0577V121.719H44.322V120.608Z" fill="#F0F0F0"/>
<path d="M44.322 122.47H43.0577V123.581H44.322V122.47Z" fill="#F0F0F0"/>
<path d="M44.322 124.333H43.0577V125.444H44.322V124.333Z" fill="#F0F0F0"/>
<path d="M44.322 126.195H43.0577V127.306H44.322V126.195Z" fill="#F0F0F0"/>
<path d="M44.322 128.058H43.0577V129.169H44.322V128.058Z" fill="#F0F0F0"/>
<path d="M44.322 129.92H43.0577V131.031H44.322V129.92Z" fill="#F0F0F0"/>
<path d="M44.322 131.783H43.0577V132.894H44.322V131.783Z" fill="#F0F0F0"/>
<path d="M44.322 133.645H43.0577V134.756H44.322V133.645Z" fill="#F0F0F0"/>
<path d="M44.322 135.507H43.0577V136.618H44.322V135.507Z" fill="#F0F0F0"/>
<path d="M44.322 137.37H43.0577V138.481H44.322V137.37Z" fill="#F0F0F0"/>
<path d="M44.322 139.232H43.0577V140.343H44.322V139.232Z" fill="#F0F0F0"/>
<path d="M46.3297 107.571H45.0654V108.682H46.3297V107.571Z" fill="#F0F0F0"/>
<path d="M46.3297 109.433H45.0654V110.544H46.3297V109.433Z" fill="#F0F0F0"/>
<path d="M46.3297 111.296H45.0654V112.407H46.3297V111.296Z" fill="#F0F0F0"/>
<path d="M46.3297 113.158H45.0654V114.269H46.3297V113.158Z" fill="#F0F0F0"/>
<path d="M46.3297 115.02H45.0654V116.131H46.3297V115.02Z" fill="#F0F0F0"/>
<path d="M46.3297 116.883H45.0654V117.994H46.3297V116.883Z" fill="#F0F0F0"/>
<path d="M46.3297 118.745H45.0654V119.856H46.3297V118.745Z" fill="#F0F0F0"/>
<path d="M46.3297 120.608H45.0654V121.719H46.3297V120.608Z" fill="#F0F0F0"/>
<path d="M46.3297 122.47H45.0654V123.581H46.3297V122.47Z" fill="#F0F0F0"/>
<path d="M46.3297 124.333H45.0654V125.444H46.3297V124.333Z" fill="#F0F0F0"/>
<path d="M46.3297 126.195H45.0654V127.306H46.3297V126.195Z" fill="#F0F0F0"/>
<path d="M46.3297 128.058H45.0654V129.169H46.3297V128.058Z" fill="#F0F0F0"/>
<path d="M46.3297 129.92H45.0654V131.031H46.3297V129.92Z" fill="#F0F0F0"/>
<path d="M46.3297 131.783H45.0654V132.894H46.3297V131.783Z" fill="#F0F0F0"/>
<path d="M46.3297 133.645H45.0654V134.756H46.3297V133.645Z" fill="#F0F0F0"/>
<path d="M46.3297 135.507H45.0654V136.618H46.3297V135.507Z" fill="#F0F0F0"/>
<path d="M46.3297 137.37H45.0654V138.481H46.3297V137.37Z" fill="#F0F0F0"/>
<path d="M46.3297 139.232H45.0654V140.343H46.3297V139.232Z" fill="#F0F0F0"/>
<path d="M34.8034 121.164H33.5392V122.275H34.8034V121.164Z" fill="#F0F0F0"/>
<path d="M34.8034 123.026H33.5392V124.137H34.8034V123.026Z" fill="#F0F0F0"/>
<path d="M34.8034 124.888H33.5392V125.999H34.8034V124.888Z" fill="#F0F0F0"/>
<path d="M34.8034 126.751H33.5392V127.862H34.8034V126.751Z" fill="#F0F0F0"/>
<path d="M34.8034 128.613H33.5392V129.724H34.8034V128.613Z" fill="#F0F0F0"/>
<path d="M34.8034 130.476H33.5392V131.587H34.8034V130.476Z" fill="#F0F0F0"/>
<path d="M34.8034 132.338H33.5392V133.449H34.8034V132.338Z" fill="#F0F0F0"/>
<path d="M34.8034 134.2H33.5392V135.311H34.8034V134.2Z" fill="#F0F0F0"/>
<path d="M34.8034 136.063H33.5392V137.174H34.8034V136.063Z" fill="#F0F0F0"/>
<path d="M34.8034 137.925H33.5392V139.036H34.8034V137.925Z" fill="#F0F0F0"/>
<path d="M34.8034 139.788H33.5392V140.899H34.8034V139.788Z" fill="#F0F0F0"/>
<path d="M34.8034 141.65H33.5392V142.761H34.8034V141.65Z" fill="#F0F0F0"/>
<path d="M34.8034 143.513H33.5392V144.624H34.8034V143.513Z" fill="#F0F0F0"/>
<path d="M36.8114 121.164H35.5472V122.275H36.8114V121.164Z" fill="#F0F0F0"/>
<path d="M36.8114 123.026H35.5472V124.137H36.8114V123.026Z" fill="#F0F0F0"/>
<path d="M36.8114 124.888H35.5472V125.999H36.8114V124.888Z" fill="#F0F0F0"/>
<path d="M36.8114 126.751H35.5472V127.862H36.8114V126.751Z" fill="#F0F0F0"/>
<path d="M36.8114 128.613H35.5472V129.724H36.8114V128.613Z" fill="#F0F0F0"/>
<path d="M36.8114 130.476H35.5472V131.587H36.8114V130.476Z" fill="#F0F0F0"/>
<path d="M36.8114 132.338H35.5472V133.449H36.8114V132.338Z" fill="#F0F0F0"/>
<path d="M36.8114 134.2H35.5472V135.311H36.8114V134.2Z" fill="#F0F0F0"/>
<path d="M36.8114 136.063H35.5472V137.174H36.8114V136.063Z" fill="#F0F0F0"/>
<path d="M36.8114 137.925H35.5472V139.036H36.8114V137.925Z" fill="#F0F0F0"/>
<path d="M36.8114 139.788H35.5472V140.899H36.8114V139.788Z" fill="#F0F0F0"/>
<path d="M36.8114 141.65H35.5472V142.761H36.8114V141.65Z" fill="#F0F0F0"/>
<path d="M36.8114 143.513H35.5472V144.624H36.8114V143.513Z" fill="#F0F0F0"/>
<path d="M38.8191 121.164H37.5548V122.275H38.8191V121.164Z" fill="#F0F0F0"/>
<path d="M38.8191 123.026H37.5548V124.137H38.8191V123.026Z" fill="#F0F0F0"/>
<path d="M38.8191 124.888H37.5548V125.999H38.8191V124.888Z" fill="#F0F0F0"/>
<path d="M38.8191 126.751H37.5548V127.862H38.8191V126.751Z" fill="#F0F0F0"/>
<path d="M38.8191 128.613H37.5548V129.724H38.8191V128.613Z" fill="#F0F0F0"/>
<path d="M38.8191 130.476H37.5548V131.587H38.8191V130.476Z" fill="#F0F0F0"/>
<path d="M38.8191 132.338H37.5548V133.449H38.8191V132.338Z" fill="#F0F0F0"/>
<path d="M38.8191 134.2H37.5548V135.311H38.8191V134.2Z" fill="#F0F0F0"/>
<path d="M38.8191 136.063H37.5548V137.174H38.8191V136.063Z" fill="#F0F0F0"/>
<path d="M38.8191 137.925H37.5548V139.036H38.8191V137.925Z" fill="#F0F0F0"/>
<path d="M38.8191 139.788H37.5548V140.899H38.8191V139.788Z" fill="#F0F0F0"/>
<path d="M38.8191 141.65H37.5548V142.761H38.8191V141.65Z" fill="#F0F0F0"/>
<path d="M38.8191 143.513H37.5548V144.624H38.8191V143.513Z" fill="#F0F0F0"/>
<path d="M38.8191 145.375H37.5548V146.486H38.8191V145.375Z" fill="#F0F0F0"/>
<path d="M49.9731 121.719H48.7088V122.83H49.9731V121.719Z" fill="#F0F0F0"/>
<path d="M49.9731 123.581H48.7088V124.692H49.9731V123.581Z" fill="#F0F0F0"/>
<path d="M49.9731 125.444H48.7088V126.555H49.9731V125.444Z" fill="#F0F0F0"/>
<path d="M49.9731 127.306H48.7088V128.417H49.9731V127.306Z" fill="#F0F0F0"/>
<path d="M49.9731 129.168H48.7088V130.279H49.9731V129.168Z" fill="#F0F0F0"/>
<path d="M49.9731 131.031H48.7088V132.142H49.9731V131.031Z" fill="#F0F0F0"/>
<path d="M49.9731 132.894H48.7088V134.005H49.9731V132.894Z" fill="#F0F0F0"/>
<path d="M49.9731 134.756H48.7088V135.867H49.9731V134.756Z" fill="#F0F0F0"/>
<path d="M49.9731 136.618H48.7088V137.729H49.9731V136.618Z" fill="#F0F0F0"/>
<path d="M49.9731 138.481H48.7088V139.592H49.9731V138.481Z" fill="#F0F0F0"/>
<path d="M49.9731 144.068H48.7088V145.179H49.9731V144.068Z" fill="#F0F0F0"/>
<path d="M51.981 121.719H50.7168V122.83H51.981V121.719Z" fill="#F0F0F0"/>
<path d="M51.981 123.581H50.7168V124.692H51.981V123.581Z" fill="#F0F0F0"/>
<path d="M51.981 125.444H50.7168V126.555H51.981V125.444Z" fill="#F0F0F0"/>
<path d="M51.981 127.306H50.7168V128.417H51.981V127.306Z" fill="#F0F0F0"/>
<path d="M51.981 129.168H50.7168V130.279H51.981V129.168Z" fill="#F0F0F0"/>
<path d="M51.981 131.031H50.7168V132.142H51.981V131.031Z" fill="#F0F0F0"/>
<path d="M51.981 132.894H50.7168V134.005H51.981V132.894Z" fill="#F0F0F0"/>
<path d="M51.981 134.756H50.7168V135.867H51.981V134.756Z" fill="#F0F0F0"/>
<path d="M51.981 136.618H50.7168V137.729H51.981V136.618Z" fill="#F0F0F0"/>
<path d="M51.981 142.206H50.7168V143.317H51.981V142.206Z" fill="#F0F0F0"/>
<path d="M51.981 144.068H50.7168V145.179H51.981V144.068Z" fill="#F0F0F0"/>
<path d="M53.9887 121.719H52.7245V122.83H53.9887V121.719Z" fill="#F0F0F0"/>
<path d="M53.9887 123.581H52.7245V124.692H53.9887V123.581Z" fill="#F0F0F0"/>
<path d="M53.9887 125.444H52.7245V126.555H53.9887V125.444Z" fill="#F0F0F0"/>
<path d="M53.9887 127.306H52.7245V128.417H53.9887V127.306Z" fill="#F0F0F0"/>
<path d="M53.9887 129.168H52.7245V130.279H53.9887V129.168Z" fill="#F0F0F0"/>
<path d="M53.9887 131.031H52.7245V132.142H53.9887V131.031Z" fill="#F0F0F0"/>
<path d="M53.9887 132.894H52.7245V134.005H53.9887V132.894Z" fill="#F0F0F0"/>
<path d="M53.9887 134.756H52.7245V135.867H53.9887V134.756Z" fill="#F0F0F0"/>
<path d="M53.9887 140.343H52.7245V141.454H53.9887V140.343Z" fill="#F0F0F0"/>
<path d="M53.9887 142.206H52.7245V143.317H53.9887V142.206Z" fill="#F0F0F0"/>
<path d="M53.9887 144.068H52.7245V145.179H53.9887V144.068Z" fill="#F0F0F0"/>
<path d="M72.6535 93.4228H71.3893V94.5338H72.6535V93.4228Z" fill="#F0F0F0"/>
<path d="M72.6535 95.2852H71.3893V96.3963H72.6535V95.2852Z" fill="#F0F0F0"/>
<path d="M72.6535 97.1476H71.3893V98.2587H72.6535V97.1476Z" fill="#F0F0F0"/>
<path d="M72.6535 99.0101H71.3893V100.121H72.6535V99.0101Z" fill="#F0F0F0"/>
<path d="M72.6535 100.872H71.3893V101.983H72.6535V100.872Z" fill="#F0F0F0"/>
<path d="M72.6535 102.735H71.3893V103.846H72.6535V102.735Z" fill="#F0F0F0"/>
<path d="M72.6535 104.597H71.3893V105.708H72.6535V104.597Z" fill="#F0F0F0"/>
<path d="M72.6535 106.46H71.3893V107.571H72.6535V106.46Z" fill="#F0F0F0"/>
<path d="M72.6535 108.322H71.3893V109.433H72.6535V108.322Z" fill="#F0F0F0"/>
<path d="M72.6535 110.185H71.3893V111.296H72.6535V110.185Z" fill="#F0F0F0"/>
<path d="M72.6535 112.047H71.3893V113.158H72.6535V112.047Z" fill="#F0F0F0"/>
<path d="M72.6535 113.91H71.3893V115.021H72.6535V113.91Z" fill="#F0F0F0"/>
<path d="M72.6535 115.772H71.3893V116.883H72.6535V115.772Z" fill="#F0F0F0"/>
<path d="M72.6535 117.635H71.3893V118.746H72.6535V117.635Z" fill="#F0F0F0"/>
<path d="M72.6535 119.497H71.3893V120.608H72.6535V119.497Z" fill="#F0F0F0"/>
<path d="M72.6535 121.359H71.3893V122.47H72.6535V121.359Z" fill="#F0F0F0"/>
<path d="M72.6535 123.222H71.3893V124.333H72.6535V123.222Z" fill="#F0F0F0"/>
<path d="M72.6535 126.947H71.3893V128.058H72.6535V126.947Z" fill="#F0F0F0"/>
<path d="M72.6535 128.809H71.3893V129.92H72.6535V128.809Z" fill="#F0F0F0"/>
<path d="M72.6535 130.672H71.3893V131.783H72.6535V130.672Z" fill="#F0F0F0"/>
<path d="M72.6535 132.534H71.3893V133.645H72.6535V132.534Z" fill="#F0F0F0"/>
<path d="M72.6535 134.396H71.3893V135.507H72.6535V134.396Z" fill="#F0F0F0"/>
<path d="M74.6615 93.4228H73.3972V94.5338H74.6615V93.4228Z" fill="#F0F0F0"/>
<path d="M74.6615 95.2852H73.3972V96.3963H74.6615V95.2852Z" fill="#F0F0F0"/>
<path d="M74.6615 97.1476H73.3972V98.2587H74.6615V97.1476Z" fill="#F0F0F0"/>
<path d="M74.6615 99.0101H73.3972V100.121H74.6615V99.0101Z" fill="#F0F0F0"/>
<path d="M74.6615 100.872H73.3972V101.983H74.6615V100.872Z" fill="#F0F0F0"/>
<path d="M74.6615 102.735H73.3972V103.846H74.6615V102.735Z" fill="#F0F0F0"/>
<path d="M74.6615 104.597H73.3972V105.708H74.6615V104.597Z" fill="#F0F0F0"/>
<path d="M74.6615 106.46H73.3972V107.571H74.6615V106.46Z" fill="#F0F0F0"/>
<path d="M74.6615 108.322H73.3972V109.433H74.6615V108.322Z" fill="#F0F0F0"/>
<path d="M74.6615 110.185H73.3972V111.296H74.6615V110.185Z" fill="#F0F0F0"/>
<path d="M74.6615 112.047H73.3972V113.158H74.6615V112.047Z" fill="#F0F0F0"/>
<path d="M74.6615 113.91H73.3972V115.021H74.6615V113.91Z" fill="#F0F0F0"/>
<path d="M74.6615 115.772H73.3972V116.883H74.6615V115.772Z" fill="#F0F0F0"/>
<path d="M74.6615 117.635H73.3972V118.746H74.6615V117.635Z" fill="#F0F0F0"/>
<path d="M74.6615 119.497H73.3972V120.608H74.6615V119.497Z" fill="#F0F0F0"/>
<path d="M74.6615 121.359H73.3972V122.47H74.6615V121.359Z" fill="#F0F0F0"/>
<path d="M74.6615 132.534H73.3972V133.645H74.6615V132.534Z" fill="#F0F0F0"/>
<path d="M74.6615 134.396H73.3972V135.507H74.6615V134.396Z" fill="#F0F0F0"/>
<path d="M76.6692 93.4228H75.4049V94.5338H76.6692V93.4228Z" fill="#F0F0F0"/>
<path d="M76.6692 95.2852H75.4049V96.3963H76.6692V95.2852Z" fill="#F0F0F0"/>
<path d="M76.6692 97.1476H75.4049V98.2587H76.6692V97.1476Z" fill="#F0F0F0"/>
<path d="M76.6692 99.0101H75.4049V100.121H76.6692V99.0101Z" fill="#F0F0F0"/>
<path d="M76.6692 100.872H75.4049V101.983H76.6692V100.872Z" fill="#F0F0F0"/>
<path d="M76.6692 102.735H75.4049V103.846H76.6692V102.735Z" fill="#F0F0F0"/>
<path d="M76.6692 104.597H75.4049V105.708H76.6692V104.597Z" fill="#F0F0F0"/>
<path d="M76.6692 106.46H75.4049V107.571H76.6692V106.46Z" fill="#F0F0F0"/>
<path d="M76.6692 108.322H75.4049V109.433H76.6692V108.322Z" fill="#F0F0F0"/>
<path d="M76.6692 110.185H75.4049V111.296H76.6692V110.185Z" fill="#F0F0F0"/>
<path d="M76.6692 112.047H75.4049V113.158H76.6692V112.047Z" fill="#F0F0F0"/>
<path d="M76.6692 113.91H75.4049V115.021H76.6692V113.91Z" fill="#F0F0F0"/>
<path d="M76.6692 115.772H75.4049V116.883H76.6692V115.772Z" fill="#F0F0F0"/>
<path d="M76.6692 117.635H75.4049V118.746H76.6692V117.635Z" fill="#F0F0F0"/>
<path d="M76.6692 119.497H75.4049V120.608H76.6692V119.497Z" fill="#F0F0F0"/>
<path d="M76.6692 121.359H75.4049V122.47H76.6692V121.359Z" fill="#F0F0F0"/>
<path d="M76.6692 125.084H75.4049V126.195H76.6692V125.084Z" fill="#F0F0F0"/>
<path d="M76.6692 126.947H75.4049V128.058H76.6692V126.947Z" fill="#F0F0F0"/>
<path d="M76.6692 128.809H75.4049V129.92H76.6692V128.809Z" fill="#F0F0F0"/>
<path d="M76.6692 130.672H75.4049V131.783H76.6692V130.672Z" fill="#F0F0F0"/>
<path d="M76.6692 134.396H75.4049V135.507H76.6692V134.396Z" fill="#F0F0F0"/>
<path d="M65.3662 116.883H64.1019V117.994H65.3662V116.883Z" fill="#F0F0F0"/>
<path d="M65.3662 118.745H64.1019V119.856H65.3662V118.745Z" fill="#F0F0F0"/>
<path d="M65.3662 120.608H64.1019V121.719H65.3662V120.608Z" fill="#F0F0F0"/>
<path d="M65.3662 122.47H64.1019V123.581H65.3662V122.47Z" fill="#F0F0F0"/>
<path d="M65.3662 124.333H64.1019V125.444H65.3662V124.333Z" fill="#F0F0F0"/>
<path d="M65.3662 126.195H64.1019V127.306H65.3662V126.195Z" fill="#F0F0F0"/>
<path d="M65.3662 128.058H64.1019V129.169H65.3662V128.058Z" fill="#F0F0F0"/>
<path d="M65.3662 131.783H64.1019V132.894H65.3662V131.783Z" fill="#F0F0F0"/>
<path d="M65.3662 133.645H64.1019V134.756H65.3662V133.645Z" fill="#F0F0F0"/>
<path d="M65.3662 135.507H64.1019V136.618H65.3662V135.507Z" fill="#F0F0F0"/>
<path d="M65.3662 137.37H64.1019V138.481H65.3662V137.37Z" fill="#F0F0F0"/>
<path d="M65.3662 139.232H64.1019V140.343H65.3662V139.232Z" fill="#F0F0F0"/>
<path d="M65.3662 141.095H64.1019V142.206H65.3662V141.095Z" fill="#F0F0F0"/>
<path d="M65.3662 142.957H64.1019V144.068H65.3662V142.957Z" fill="#F0F0F0"/>
<path d="M65.3662 144.819H64.1019V145.93H65.3662V144.819Z" fill="#F0F0F0"/>
<path d="M67.3741 116.883H66.1099V117.994H67.3741V116.883Z" fill="#F0F0F0"/>
<path d="M67.3741 118.745H66.1099V119.856H67.3741V118.745Z" fill="#F0F0F0"/>
<path d="M67.3741 120.608H66.1099V121.719H67.3741V120.608Z" fill="#F0F0F0"/>
<path d="M67.3741 122.47H66.1099V123.581H67.3741V122.47Z" fill="#F0F0F0"/>
<path d="M67.3741 124.333H66.1099V125.444H67.3741V124.333Z" fill="#F0F0F0"/>
<path d="M67.3741 126.195H66.1099V127.306H67.3741V126.195Z" fill="#F0F0F0"/>
<path d="M67.3741 131.783H66.1099V132.894H67.3741V131.783Z" fill="#F0F0F0"/>
<path d="M67.3741 133.645H66.1099V134.756H67.3741V133.645Z" fill="#F0F0F0"/>
<path d="M67.3741 135.507H66.1099V136.618H67.3741V135.507Z" fill="#F0F0F0"/>
<path d="M67.3741 137.37H66.1099V138.481H67.3741V137.37Z" fill="#F0F0F0"/>
<path d="M67.3741 139.232H66.1099V140.343H67.3741V139.232Z" fill="#F0F0F0"/>
<path d="M67.3741 141.095H66.1099V142.206H67.3741V141.095Z" fill="#F0F0F0"/>
<path d="M67.3741 142.957H66.1099V144.068H67.3741V142.957Z" fill="#F0F0F0"/>
<path d="M67.3741 144.819H66.1099V145.93H67.3741V144.819Z" fill="#F0F0F0"/>
<path d="M69.3818 116.883H68.1175V117.994H69.3818V116.883Z" fill="#F0F0F0"/>
<path d="M69.3818 118.745H68.1175V119.856H69.3818V118.745Z" fill="#F0F0F0"/>
<path d="M69.3818 120.608H68.1175V121.719H69.3818V120.608Z" fill="#F0F0F0"/>
<path d="M69.3818 122.47H68.1175V123.581H69.3818V122.47Z" fill="#F0F0F0"/>
<path d="M69.3818 124.333H68.1175V125.444H69.3818V124.333Z" fill="#F0F0F0"/>
<path d="M69.3818 126.195H68.1175V127.306H69.3818V126.195Z" fill="#F0F0F0"/>
<path d="M69.3818 129.92H68.1175V131.031H69.3818V129.92Z" fill="#F0F0F0"/>
<path d="M69.3818 131.783H68.1175V132.894H69.3818V131.783Z" fill="#F0F0F0"/>
<path d="M69.3818 133.645H68.1175V134.756H69.3818V133.645Z" fill="#F0F0F0"/>
<path d="M69.3818 135.507H68.1175V136.618H69.3818V135.507Z" fill="#F0F0F0"/>
<path d="M69.3818 137.37H68.1175V138.481H69.3818V137.37Z" fill="#F0F0F0"/>
<path d="M69.3818 139.232H68.1175V140.343H69.3818V139.232Z" fill="#F0F0F0"/>
<path d="M69.3818 141.095H68.1175V142.206H69.3818V141.095Z" fill="#F0F0F0"/>
<path d="M69.3818 142.957H68.1175V144.068H69.3818V142.957Z" fill="#F0F0F0"/>
<path d="M69.3818 144.819H68.1175V145.93H69.3818V144.819Z" fill="#F0F0F0"/>
<path d="M111.694 106.46H110.429V107.571H111.694V106.46Z" fill="#F0F0F0"/>
<path d="M111.694 108.322H110.429V109.433H111.694V108.322Z" fill="#F0F0F0"/>
<path d="M111.694 110.185H110.429V111.296H111.694V110.185Z" fill="#F0F0F0"/>
<path d="M111.694 112.047H110.429V113.158H111.694V112.047Z" fill="#F0F0F0"/>
<path d="M111.694 113.91H110.429V115.021H111.694V113.91Z" fill="#F0F0F0"/>
<path d="M111.694 115.772H110.429V116.883H111.694V115.772Z" fill="#F0F0F0"/>
<path d="M111.694 117.635H110.429V118.746H111.694V117.635Z" fill="#F0F0F0"/>
<path d="M111.694 119.497H110.429V120.608H111.694V119.497Z" fill="#F0F0F0"/>
<path d="M111.694 121.359H110.429V122.47H111.694V121.359Z" fill="#F0F0F0"/>
<path d="M111.694 123.222H110.429V124.333H111.694V123.222Z" fill="#F0F0F0"/>
<path d="M111.694 125.084H110.429V126.195H111.694V125.084Z" fill="#F0F0F0"/>
<path d="M111.694 126.947H110.429V128.058H111.694V126.947Z" fill="#F0F0F0"/>
<path d="M111.694 128.809H110.429V129.92H111.694V128.809Z" fill="#F0F0F0"/>
<path d="M111.694 132.534H110.429V133.645H111.694V132.534Z" fill="#F0F0F0"/>
<path d="M111.694 134.396H110.429V135.507H111.694V134.396Z" fill="#F0F0F0"/>
<path d="M111.694 136.259H110.429V137.37H111.694V136.259Z" fill="#F0F0F0"/>
<path d="M111.694 138.121H110.429V139.232H111.694V138.121Z" fill="#F0F0F0"/>
<path d="M111.694 141.846H110.429V142.957H111.694V141.846Z" fill="#F0F0F0"/>
<path d="M111.694 143.708H110.429V144.819H111.694V143.708Z" fill="#F0F0F0"/>
<path d="M111.694 145.571H110.429V146.682H111.694V145.571Z" fill="#F0F0F0"/>
<path d="M113.701 106.46H112.437V107.571H113.701V106.46Z" fill="#F0F0F0"/>
<path d="M113.701 108.322H112.437V109.433H113.701V108.322Z" fill="#F0F0F0"/>
<path d="M113.701 110.185H112.437V111.296H113.701V110.185Z" fill="#F0F0F0"/>
<path d="M113.701 112.047H112.437V113.158H113.701V112.047Z" fill="#F0F0F0"/>
<path d="M113.701 113.91H112.437V115.021H113.701V113.91Z" fill="#F0F0F0"/>
<path d="M113.701 115.772H112.437V116.883H113.701V115.772Z" fill="#F0F0F0"/>
<path d="M113.701 117.635H112.437V118.746H113.701V117.635Z" fill="#F0F0F0"/>
<path d="M113.701 119.497H112.437V120.608H113.701V119.497Z" fill="#F0F0F0"/>
<path d="M113.701 121.359H112.437V122.47H113.701V121.359Z" fill="#F0F0F0"/>
<path d="M113.701 123.222H112.437V124.333H113.701V123.222Z" fill="#F0F0F0"/>
<path d="M113.701 125.084H112.437V126.195H113.701V125.084Z" fill="#F0F0F0"/>
<path d="M113.701 126.947H112.437V128.058H113.701V126.947Z" fill="#F0F0F0"/>
<path d="M113.701 128.809H112.437V129.92H113.701V128.809Z" fill="#F0F0F0"/>
<path d="M113.701 134.396H112.437V135.507H113.701V134.396Z" fill="#F0F0F0"/>
<path d="M113.701 136.259H112.437V137.37H113.701V136.259Z" fill="#F0F0F0"/>
<path d="M113.701 139.984H112.437V141.095H113.701V139.984Z" fill="#F0F0F0"/>
<path d="M113.701 141.846H112.437V142.957H113.701V141.846Z" fill="#F0F0F0"/>
<path d="M113.701 143.708H112.437V144.819H113.701V143.708Z" fill="#F0F0F0"/>
<path d="M113.701 145.571H112.437V146.682H113.701V145.571Z" fill="#F0F0F0"/>
<path d="M115.709 106.46H114.445V107.571H115.709V106.46Z" fill="#F0F0F0"/>
<path d="M115.709 108.322H114.445V109.433H115.709V108.322Z" fill="#F0F0F0"/>
<path d="M115.709 110.185H114.445V111.296H115.709V110.185Z" fill="#F0F0F0"/>
<path d="M115.709 112.047H114.445V113.158H115.709V112.047Z" fill="#F0F0F0"/>
<path d="M115.709 113.91H114.445V115.021H115.709V113.91Z" fill="#F0F0F0"/>
<path d="M115.709 115.772H114.445V116.883H115.709V115.772Z" fill="#F0F0F0"/>
<path d="M115.709 117.635H114.445V118.746H115.709V117.635Z" fill="#F0F0F0"/>
<path d="M115.709 119.497H114.445V120.608H115.709V119.497Z" fill="#F0F0F0"/>
<path d="M115.709 121.359H114.445V122.47H115.709V121.359Z" fill="#F0F0F0"/>
<path d="M115.709 123.222H114.445V124.333H115.709V123.222Z" fill="#F0F0F0"/>
<path d="M115.709 125.084H114.445V126.195H115.709V125.084Z" fill="#F0F0F0"/>
<path d="M115.709 126.947H114.445V128.058H115.709V126.947Z" fill="#F0F0F0"/>
<path d="M115.709 128.809H114.445V129.92H115.709V128.809Z" fill="#F0F0F0"/>
<path d="M115.709 130.672H114.445V131.783H115.709V130.672Z" fill="#F0F0F0"/>
<path d="M115.709 134.396H114.445V135.507H115.709V134.396Z" fill="#F0F0F0"/>
<path d="M115.709 138.121H114.445V139.232H115.709V138.121Z" fill="#F0F0F0"/>
<path d="M115.709 139.984H114.445V141.095H115.709V139.984Z" fill="#F0F0F0"/>
<path d="M115.709 141.846H114.445V142.957H115.709V141.846Z" fill="#F0F0F0"/>
<path d="M115.709 143.708H114.445V144.819H115.709V143.708Z" fill="#F0F0F0"/>
<path d="M115.709 145.571H114.445V146.682H115.709V145.571Z" fill="#F0F0F0"/>
<path d="M103.514 117.079H102.25V118.19H103.514V117.079Z" fill="#F0F0F0"/>
<path d="M103.514 118.941H102.25V120.053H103.514V118.941Z" fill="#F0F0F0"/>
<path d="M103.514 120.804H102.25V121.915H103.514V120.804Z" fill="#F0F0F0"/>
<path d="M103.514 122.666H102.25V123.777H103.514V122.666Z" fill="#F0F0F0"/>
<path d="M103.514 124.529H102.25V125.64H103.514V124.529Z" fill="#F0F0F0"/>
<path d="M103.514 126.391H102.25V127.502H103.514V126.391Z" fill="#F0F0F0"/>
<path d="M103.514 131.978H102.25V133.089H103.514V131.978Z" fill="#F0F0F0"/>
<path d="M103.514 133.841H102.25V134.952H103.514V133.841Z" fill="#F0F0F0"/>
<path d="M103.514 135.703H102.25V136.814H103.514V135.703Z" fill="#F0F0F0"/>
<path d="M103.514 137.566H102.25V138.677H103.514V137.566Z" fill="#F0F0F0"/>
<path d="M103.514 139.428H102.25V140.539H103.514V139.428Z" fill="#F0F0F0"/>
<path d="M103.514 141.291H102.25V142.402H103.514V141.291Z" fill="#F0F0F0"/>
<path d="M103.514 143.153H102.25V144.264H103.514V143.153Z" fill="#F0F0F0"/>
<path d="M105.521 117.079H104.257V118.19H105.521V117.079Z" fill="#F0F0F0"/>
<path d="M105.521 118.941H104.257V120.053H105.521V118.941Z" fill="#F0F0F0"/>
<path d="M105.521 120.804H104.257V121.915H105.521V120.804Z" fill="#F0F0F0"/>
<path d="M105.521 122.666H104.257V123.777H105.521V122.666Z" fill="#F0F0F0"/>
<path d="M105.521 124.529H104.257V125.64H105.521V124.529Z" fill="#F0F0F0"/>
<path d="M105.521 126.391H104.257V127.502H105.521V126.391Z" fill="#F0F0F0"/>
<path d="M105.521 131.978H104.257V133.089H105.521V131.978Z" fill="#F0F0F0"/>
<path d="M105.521 133.841H104.257V134.952H105.521V133.841Z" fill="#F0F0F0"/>
<path d="M105.521 135.703H104.257V136.814H105.521V135.703Z" fill="#F0F0F0"/>
<path d="M105.521 137.566H104.257V138.677H105.521V137.566Z" fill="#F0F0F0"/>
<path d="M105.521 139.428H104.257V140.539H105.521V139.428Z" fill="#F0F0F0"/>
<path d="M105.521 141.291H104.257V142.402H105.521V141.291Z" fill="#F0F0F0"/>
<path d="M105.521 145.016H104.257V146.127H105.521V145.016Z" fill="#F0F0F0"/>
<path d="M172.224 108.878H170.959V109.989H172.224V108.878Z" fill="#F0F0F0"/>
<path d="M172.224 110.74H170.959V111.851H172.224V110.74Z" fill="#F0F0F0"/>
<path d="M172.224 112.602H170.959V113.714H172.224V112.602Z" fill="#F0F0F0"/>
<path d="M172.224 114.465H170.959V115.576H172.224V114.465Z" fill="#F0F0F0"/>
<path d="M172.224 116.328H170.959V117.439H172.224V116.328Z" fill="#F0F0F0"/>
<path d="M172.224 118.19H170.959V119.301H172.224V118.19Z" fill="#F0F0F0"/>
<path d="M172.224 120.053H170.959V121.164H172.224V120.053Z" fill="#F0F0F0"/>
<path d="M172.224 121.915H170.959V123.026H172.224V121.915Z" fill="#F0F0F0"/>
<path d="M172.224 123.777H170.959V124.888H172.224V123.777Z" fill="#F0F0F0"/>
<path d="M172.224 125.64H170.959V126.751H172.224V125.64Z" fill="#F0F0F0"/>
<path d="M172.224 127.502H170.959V128.613H172.224V127.502Z" fill="#F0F0F0"/>
<path d="M172.224 131.227H170.959V132.338H172.224V131.227Z" fill="#F0F0F0"/>
<path d="M172.224 133.089H170.959V134.2H172.224V133.089Z" fill="#F0F0F0"/>
<path d="M172.224 134.952H170.959V136.063H172.224V134.952Z" fill="#F0F0F0"/>
<path d="M172.224 136.814H170.959V137.925H172.224V136.814Z" fill="#F0F0F0"/>
<path d="M172.224 138.677H170.959V139.788H172.224V138.677Z" fill="#F0F0F0"/>
<path d="M172.224 140.539H170.959V141.65H172.224V140.539Z" fill="#F0F0F0"/>
<path d="M172.224 142.401H170.959V143.513H172.224V142.401Z" fill="#F0F0F0"/>
<path d="M172.224 144.264H170.959V145.375H172.224V144.264Z" fill="#F0F0F0"/>
<path d="M174.231 108.878H172.967V109.989H174.231V108.878Z" fill="#F0F0F0"/>
<path d="M174.231 110.74H172.967V111.851H174.231V110.74Z" fill="#F0F0F0"/>
<path d="M174.231 112.602H172.967V113.714H174.231V112.602Z" fill="#F0F0F0"/>
<path d="M174.231 114.465H172.967V115.576H174.231V114.465Z" fill="#F0F0F0"/>
<path d="M174.231 116.328H172.967V117.439H174.231V116.328Z" fill="#F0F0F0"/>
<path d="M174.231 118.19H172.967V119.301H174.231V118.19Z" fill="#F0F0F0"/>
<path d="M174.231 120.053H172.967V121.164H174.231V120.053Z" fill="#F0F0F0"/>
<path d="M174.231 121.915H172.967V123.026H174.231V121.915Z" fill="#F0F0F0"/>
<path d="M174.231 123.777H172.967V124.888H174.231V123.777Z" fill="#F0F0F0"/>
<path d="M174.231 125.64H172.967V126.751H174.231V125.64Z" fill="#F0F0F0"/>
<path d="M174.231 127.502H172.967V128.613H174.231V127.502Z" fill="#F0F0F0"/>
<path d="M174.231 129.365H172.967V130.476H174.231V129.365Z" fill="#F0F0F0"/>
<path d="M174.231 131.227H172.967V132.338H174.231V131.227Z" fill="#F0F0F0"/>
<path d="M174.231 133.089H172.967V134.2H174.231V133.089Z" fill="#F0F0F0"/>
<path d="M174.231 134.952H172.967V136.063H174.231V134.952Z" fill="#F0F0F0"/>
<path d="M174.231 136.814H172.967V137.925H174.231V136.814Z" fill="#F0F0F0"/>
<path d="M174.231 138.677H172.967V139.788H174.231V138.677Z" fill="#F0F0F0"/>
<path d="M174.231 140.539H172.967V141.65H174.231V140.539Z" fill="#F0F0F0"/>
<path d="M174.231 142.401H172.967V143.513H174.231V142.401Z" fill="#F0F0F0"/>
<path d="M174.231 144.264H172.967V145.375H174.231V144.264Z" fill="#F0F0F0"/>
<path d="M162.334 116.131H161.069V117.242H162.334V116.131Z" fill="#F0F0F0"/>
<path d="M162.334 117.994H161.069V119.105H162.334V117.994Z" fill="#F0F0F0"/>
<path d="M162.334 119.856H161.069V120.967H162.334V119.856Z" fill="#F0F0F0"/>
<path d="M162.334 121.719H161.069V122.83H162.334V121.719Z" fill="#F0F0F0"/>
<path d="M162.334 123.581H161.069V124.692H162.334V123.581Z" fill="#F0F0F0"/>
<path d="M162.334 125.444H161.069V126.555H162.334V125.444Z" fill="#F0F0F0"/>
<path d="M162.334 127.306H161.069V128.417H162.334V127.306Z" fill="#F0F0F0"/>
<path d="M162.334 129.168H161.069V130.279H162.334V129.168Z" fill="#F0F0F0"/>
<path d="M162.334 131.031H161.069V132.142H162.334V131.031Z" fill="#F0F0F0"/>
<path d="M162.334 132.894H161.069V134.005H162.334V132.894Z" fill="#F0F0F0"/>
<path d="M164.341 116.131H163.077V117.242H164.341V116.131Z" fill="#F0F0F0"/>
<path d="M164.341 117.994H163.077V119.105H164.341V117.994Z" fill="#F0F0F0"/>
<path d="M164.341 119.856H163.077V120.967H164.341V119.856Z" fill="#F0F0F0"/>
<path d="M164.341 121.719H163.077V122.83H164.341V121.719Z" fill="#F0F0F0"/>
<path d="M164.341 123.581H163.077V124.692H164.341V123.581Z" fill="#F0F0F0"/>
<path d="M164.341 125.444H163.077V126.555H164.341V125.444Z" fill="#F0F0F0"/>
<path d="M164.341 127.306H163.077V128.417H164.341V127.306Z" fill="#F0F0F0"/>
<path d="M164.341 129.168H163.077V130.279H164.341V129.168Z" fill="#F0F0F0"/>
<path d="M164.341 131.031H163.077V132.142H164.341V131.031Z" fill="#F0F0F0"/>
<path d="M66.0318 71.5859C66.0318 69.6784 64.2718 68.1318 62.1013 68.1318C61.709 68.1318 61.3305 68.1839 60.9725 68.2779C61.0296 67.9316 61.0608 67.5778 61.0608 67.2174C61.0608 63.1776 57.3345 59.9029 52.7375 59.9029C52.2137 59.9029 51.7015 59.9476 51.2044 60.029C49.925 58.189 47.6256 56.9569 44.9924 56.9569C41.007 56.9569 37.7742 59.7709 37.7149 63.261C37.6743 63.2603 37.6346 63.2556 37.5936 63.2556C33.8905 63.2556 30.8885 65.8937 30.8885 69.148C30.8885 72.4023 33.8905 75.04 37.5936 75.04H62.2167L62.2118 75.0353C64.3311 74.9832 66.0318 73.4608 66.0318 71.5859Z" fill="#F0F0F0"/>
<path d="M98.009 65.3753C98.009 64.1574 99.1324 63.1697 100.518 63.1697C100.769 63.1697 101.01 63.203 101.239 63.263C101.203 63.042 101.183 62.816 101.183 62.586C101.183 60.0067 103.562 57.9159 106.497 57.9159C106.832 57.9159 107.159 57.9445 107.476 57.9962C108.293 56.8213 109.761 56.0347 111.442 56.0347C113.987 56.0347 116.051 57.8313 116.089 60.0596C116.115 60.0592 116.14 60.0561 116.166 60.0561C118.53 60.0561 120.447 61.7402 120.447 63.8181C120.447 65.896 118.53 67.5802 116.166 67.5802H100.445L100.448 67.577C99.0949 67.5445 98.009 66.5726 98.009 65.3753Z" fill="#F0F0F0"/>
<path d="M170.869 70.8643C170.869 69.6463 171.993 68.6591 173.379 68.6591C173.629 68.6591 173.871 68.6924 174.099 68.7523C174.062 68.5314 174.043 68.3053 174.043 68.0753C174.043 65.496 176.422 63.4052 179.357 63.4052C179.691 63.4052 180.019 63.4338 180.336 63.4855C181.153 62.3106 182.621 61.524 184.302 61.524C186.847 61.524 188.911 63.3206 188.949 65.5489C188.974 65.5485 189 65.5454 189.026 65.5454C191.39 65.5454 193.307 67.2295 193.307 69.3074C193.307 71.3853 191.39 73.0695 189.026 73.0695H173.305L173.308 73.0663C171.955 73.0334 170.869 72.0611 170.869 70.8643Z" fill="#F0F0F0"/>
<path d="M70.8375 43.3519C70.8375 42.6056 71.5258 42.0011 72.3745 42.0011C72.5279 42.0011 72.6759 42.0215 72.8159 42.0583C72.7936 41.9228 72.7815 41.7845 72.7815 41.6435C72.7815 40.0635 74.2388 38.7825 76.0371 38.7825C76.2422 38.7825 76.4424 38.8001 76.6367 38.8318C77.1369 38.1122 78.0365 37.6303 79.0663 37.6303C80.6252 37.6303 81.8894 38.7312 81.9126 40.096C81.9287 40.0956 81.9438 40.0941 81.9599 40.0941C83.4083 40.0941 84.5825 41.126 84.5825 42.3988C84.5825 43.6716 83.4083 44.7035 81.9599 44.7035H72.3291L72.3309 44.7015C71.503 44.6808 70.8375 44.0853 70.8375 43.3519Z" fill="#F0F0F0"/>
<path d="M136.347 44.338C136.347 43.5917 137.036 42.9868 137.884 42.9868C138.038 42.9868 138.186 43.0072 138.326 43.044C138.303 42.9085 138.291 42.7702 138.291 42.6291C138.291 41.0492 139.749 39.7685 141.547 39.7685C141.752 39.7685 141.952 39.7862 142.147 39.8179C142.647 39.0982 143.546 38.6164 144.576 38.6164C146.135 38.6164 147.399 39.7168 147.423 41.0821C147.439 41.0817 147.454 41.0801 147.47 41.0801C148.918 41.0801 150.092 42.112 150.092 43.3848C150.092 44.6577 148.918 45.6895 147.47 45.6895H137.839L137.841 45.6876C137.012 45.6664 136.347 45.071 136.347 44.338Z" fill="#F0F0F0"/>
<path d="M111.886 168.362C159.622 168.362 198.319 166.376 198.319 163.927C198.319 161.477 159.622 159.491 111.886 159.491C64.15 159.491 25.4525 161.477 25.4525 163.927C25.4525 166.376 64.15 168.362 111.886 168.362Z" fill="#F5F5F5"/>
<path d="M38.4289 90.6613H33.1048V158.158H38.4289V90.6613Z" fill="#9C78ED"/>
<path d="M48.6682 104.963H43.3441V158.158H48.6682V104.963Z" fill="#9C78ED"/>
<path d="M58.9079 116.125H53.5839V158.158H58.9079V116.125Z" fill="#9C78ED"/>
<path d="M69.1474 126.01H63.8234V158.158H69.1474V126.01Z" fill="#9C78ED"/>
<path d="M79.3872 134.654H74.0632V158.158H79.3872V134.654Z" fill="#9C78ED"/>
<path d="M89.6264 140.908H84.3024V158.158H89.6264V140.908Z" fill="#9C78ED"/>
<path d="M99.8656 146.048H94.5416V158.158H99.8656V146.048Z" fill="#9C78ED"/>
<g opacity="0.7">
<path d="M38.4289 90.6613H33.1048V158.158H38.4289V90.6613Z" fill="#C3C8FF"/>
<path d="M48.6682 104.963H43.3441V158.158H48.6682V104.963Z" fill="#C3C8FF"/>
<path d="M58.9079 116.125H53.5839V158.158H58.9079V116.125Z" fill="#C3C8FF"/>
<path d="M69.1474 126.01H63.8234V158.158H69.1474V126.01Z" fill="#C3C8FF"/>
<path d="M79.3872 134.654H74.0632V158.158H79.3872V134.654Z" fill="#C3C8FF"/>
<path d="M89.6264 140.908H84.3024V158.158H89.6264V140.908Z" fill="#C3C8FF"/>
<path d="M99.8656 146.048H94.5416V158.158H99.8656V146.048Z" fill="#C3C8FF"/>
</g>
<path d="M32.3679 72.3976L31.2918 77.682L37.2988 75.5669L32.3679 72.3976Z" fill="#7846D1"/>
<path d="M34.075 76.3105C34.075 76.3105 54.415 124.137 108.2 146.682" stroke="#7846D1" stroke-width="9.16391" stroke-miterlimit="10"/>
<path d="M160.19 159.673C160.19 159.673 156.645 153.594 157.536 152.998C158.427 152.403 160.188 158.077 160.19 157.635C160.191 157.194 160.091 149.465 161.728 149.771C163.365 150.078 161.728 157.194 161.728 157.194C161.728 157.194 163.932 153.558 164.795 153.833C165.658 154.107 162.248 158.432 162.248 158.432C162.248 158.432 164.284 157.35 164.795 157.434C165.306 157.517 162.248 159.673 162.248 159.673H160.19V159.673Z" fill="#E0D5F8"/>
<path d="M64.4821 161.378C64.4821 161.378 68.0265 155.299 67.1354 154.704C66.2443 154.108 64.4838 159.783 64.4821 159.341C64.4807 158.9 64.581 151.171 62.9437 151.477C61.3063 151.783 62.9437 158.9 62.9437 158.9C62.9437 158.9 59.8784 153.762 59.0653 155.073C58.3596 156.209 62.423 160.138 62.423 160.138C62.423 160.138 58.3815 157.733 58.3596 158.792C58.3364 159.929 62.423 161.379 62.423 161.379H64.4821V161.378Z" fill="#E0D5F8"/>
<path d="M118.831 156.264C118.831 156.264 115.467 152.588 116.758 152.25C118.05 151.913 118.936 154.972 119.166 154.568C119.396 154.163 119.245 150.121 121.395 150.728C123.545 151.335 120.594 154.785 120.594 154.785C120.594 154.785 122.534 153.481 123.056 153.812C123.579 154.142 120.725 156.553 120.725 156.553L118.831 156.264Z" fill="#E0D5F8"/>
<path d="M88.0169 151.748C88.0169 151.748 90.2931 147.475 88.9473 147.416C87.601 147.357 87.1646 150.666 87.1646 150.666C87.1646 150.666 86.4032 146.233 84.3878 146.846C82.2533 147.495 85.9302 150.991 85.9302 150.991C85.9302 150.991 82.4031 149.028 82.1682 150.113C81.8798 151.444 86.7322 152.24 86.7322 152.24L88.0169 151.748Z" fill="#E0D5F8"/>
<path d="M52.3874 164.191H172.462L167.524 159.491L131.756 156.182H119.244L110.209 149.75L86.7434 151.429L67.4737 157.778L63.508 160.99H57.3534L52.3874 164.191Z" fill="#263238"/>
<path opacity="0.5" d="M52.3874 164.191H172.462L167.524 159.491L131.756 156.182H119.244L110.209 149.75L86.7434 151.429L67.4737 157.778L63.508 160.99H57.3534L52.3874 164.191Z" fill="white"/>
<path opacity="0.2" d="M63.5081 160.99L76.1462 162.881H82.9908L75.231 161.7L67.4738 157.778L63.5081 160.99Z" fill="black"/>
<path opacity="0.2" d="M119.245 156.182H112.425L101.45 159.619L107.093 154.717L115.249 153.337L119.245 156.182Z" fill="black"/>
<path opacity="0.2" d="M167.524 159.491L154.591 162.881L143.361 160.33L153.358 164.191H172.462L167.524 159.491Z" fill="black"/>
<path d="M105.912 152.308L102.789 151.533L103.946 144.959L107.068 145.735L105.912 152.308Z" fill="#E4897B"/>
<path d="M102.718 149.231H106.674C106.807 149.231 106.922 149.312 106.952 149.426L107.622 151.96C107.691 152.223 107.459 152.472 107.152 152.467C105.88 152.448 104.95 152.383 103.347 152.383C102.361 152.383 99.3881 152.473 98.0263 152.473C96.6942 152.473 96.4731 151.289 97.0295 151.182C99.5237 150.702 101.4 150.039 102.193 149.407C102.337 149.293 102.524 149.231 102.718 149.231Z" fill="#263238"/>
<path d="M156.301 159.929L153.126 160.516L150.678 154.221L153.853 153.634L156.301 159.929Z" fill="#E4897B"/>
<path d="M128.508 97.74C128.508 97.74 113.686 112.109 109.681 117.794C105.676 123.48 102.188 147.53 102.188 147.53L108.094 148.783C108.094 148.783 114.959 125.334 116.787 122.986C118.616 120.637 138.025 104.721 138.025 104.721L128.508 97.74Z" fill="#263238"/>
<path opacity="0.1" d="M138.028 104.721C138.028 104.721 137.297 105.32 136.102 106.305C134.497 107.631 132.055 109.651 129.436 111.849C123.991 116.409 117.784 121.705 116.786 122.984C114.957 125.332 108.093 148.784 108.093 148.784L102.19 147.528C102.19 147.528 105.678 123.481 109.683 117.796C113.688 112.107 128.508 97.7419 128.508 97.7419L138.028 104.721Z" fill="white"/>
<path opacity="0.2" d="M136.102 106.305C134.497 107.631 132.055 109.651 129.436 111.849C131.169 107.715 135.361 105.039 135.361 105.039L136.102 106.305Z" fill="black"/>
<path d="M133.672 98.7695C133.672 98.7695 137.483 123.223 139.324 131.431C141.34 140.419 150.312 157.095 150.312 157.095L156.128 156.02C156.128 156.02 150.014 140.608 148.661 131.584C147.148 121.492 144.878 98.6967 144.878 98.6967L133.672 98.7695Z" fill="#263238"/>
<g opacity="0.1">
<path d="M133.672 98.7695C133.672 98.7695 137.483 123.223 139.324 131.431C141.34 140.419 150.312 157.095 150.312 157.095L156.128 156.02C156.128 156.02 150.014 140.608 148.661 131.584C147.148 121.492 144.878 98.6967 144.878 98.6967L133.672 98.7695Z" fill="white"/>
</g>
<path d="M111.069 68.2007L110.814 65.3033L114.236 66.4652C114.236 66.4652 114.286 69.0626 112.761 69.0289L111.069 68.2007Z" fill="#E4897B"/>
<path d="M112.145 63.6313L115.376 63.8099L114.235 66.4652L110.814 65.3033L112.145 63.6313Z" fill="#E4897B"/>
<path d="M110.952 68.7104L111.043 67.9081L113.805 68.4036L113.587 69.2494L110.952 68.7104Z" fill="#E0D5F8"/>
<path opacity="0.7" d="M110.952 68.7104L111.043 67.9081L113.805 68.4036L113.587 69.2494L110.952 68.7104Z" fill="white"/>
<path d="M124.134 64.4061H116.981C116.729 64.4061 116.524 64.8856 116.524 65.4768C116.524 66.068 116.729 66.5475 116.981 66.5475H124.134C124.386 66.5475 124.591 66.068 124.591 65.4768C124.591 64.8856 124.386 64.4061 124.134 64.4061Z" fill="#E0D5F8"/>
<path opacity="0.4" d="M124.134 64.4061H116.981C116.729 64.4061 116.524 64.8856 116.524 65.4768C116.524 66.068 116.729 66.5475 116.981 66.5475H124.134C124.386 66.5475 124.591 66.068 124.591 65.4768C124.591 64.8856 124.386 64.4061 124.134 64.4061Z" fill="white"/>
<path d="M116.874 64.1115H108.339C108.017 64.1115 107.756 64.7227 107.756 65.4768C107.756 66.2309 108.017 66.8421 108.339 66.8421H116.874C117.196 66.8421 117.457 66.2309 117.457 65.4768C117.457 64.723 117.196 64.1115 116.874 64.1115Z" fill="#E0D5F8"/>
<path opacity="0.2" d="M116.874 64.1115H108.339C108.017 64.1115 107.756 64.7227 107.756 65.4768C107.756 66.2309 108.017 66.8421 108.339 66.8421H116.874C117.196 66.8421 117.457 66.2309 117.457 65.4768C117.457 64.723 117.196 64.1115 116.874 64.1115Z" fill="white"/>
<path d="M108.456 63.8361H99.5371C99.1502 63.8361 98.8368 64.5707 98.8368 65.4772C98.8368 66.3833 99.1506 67.1183 99.5371 67.1183H108.456C108.843 67.1183 109.157 66.3837 109.157 65.4772C109.157 64.5707 108.843 63.8361 108.456 63.8361Z" fill="#E0D5F8"/>
<path opacity="0.4" d="M108.456 63.8361H99.5371C99.1502 63.8361 98.8368 64.5707 98.8368 65.4772C98.8368 66.3833 99.1506 67.1183 99.5371 67.1183H108.456C108.843 67.1183 109.157 66.3837 109.157 65.4772C109.157 64.5707 108.843 63.8361 108.456 63.8361Z" fill="white"/>
<path opacity="0.2" d="M100.238 65.4772C100.238 66.3833 99.9244 67.1183 99.5374 67.1183C99.1505 67.1183 98.8371 66.3837 98.8371 65.4772C98.8371 64.5707 99.1509 63.8361 99.5374 63.8361C99.9239 63.8361 100.238 64.5707 100.238 65.4772Z" fill="white"/>
<path d="M99.5371 66.9314C99.3655 66.9314 99.0494 66.379 99.0494 65.4768C99.0494 64.575 99.3655 64.0226 99.5371 64.0226C99.7092 64.0226 100.025 64.575 100.025 65.4768C100.026 66.379 99.7096 66.9314 99.5371 66.9314Z" fill="black"/>
<path d="M151.971 157.673H155.926C156.059 157.673 156.174 157.754 156.205 157.868L156.875 160.402C156.944 160.665 156.712 160.914 156.405 160.909C155.133 160.89 154.203 160.824 152.6 160.824C151.614 160.824 148.641 160.914 147.279 160.914C145.947 160.914 145.726 159.731 146.282 159.624C148.777 159.143 150.653 158.481 151.446 157.848C151.589 157.734 151.776 157.673 151.971 157.673Z" fill="#263238"/>
<path d="M122.877 75.4619C122.877 75.4619 121.117 75.8345 119.253 76.0825C118.32 76.2008 117.39 76.3152 116.494 76.3963C116.046 76.4362 115.608 76.4613 115.209 76.4781C115.126 76.4813 115.048 76.4825 114.972 76.4836C114.868 76.2341 114.771 75.9407 114.686 75.6367C114.477 74.8915 114.302 74.0822 114.152 73.265C113.854 71.6282 113.764 68.8479 113.764 68.8479L110.894 68.2313C110.624 69.993 110.475 71.7316 110.479 73.5223C110.487 74.4179 110.518 75.3197 110.647 76.2678C110.716 76.7441 110.801 77.2291 110.964 77.7721C111.049 78.0456 111.148 78.3343 111.329 78.6712C111.429 78.8479 111.529 79.023 111.711 79.2416C111.891 79.4535 112.123 79.7027 112.551 79.9499C112.668 80.013 112.787 80.071 112.912 80.1223C113.049 80.1748 113.202 80.2222 113.339 80.2563L113.649 80.3232C113.857 80.3652 114.017 80.3844 114.197 80.4102C114.526 80.4486 114.833 80.4733 115.121 80.4878C115.7 80.5191 116.24 80.516 116.769 80.5042C117.825 80.4819 118.841 80.4169 119.849 80.3272C121.868 80.1501 123.816 79.8884 125.803 79.5382L122.877 75.4619Z" fill="#263238"/>
<path d="M141.444 74.5327C141.328 77.7153 141.569 80.4552 141.968 83.4608C142.263 85.666 142.647 87.7576 143.046 89.6494C143.982 94.0927 144.997 97.4313 145.162 98.5979C142.709 98.9152 133.18 100.145 127.786 100.84C120.87 84.5777 123.282 75.3988 123.282 75.3988C123.282 75.3988 125.16 74.81 127.395 74.4096C127.687 74.3556 127.986 74.309 128.29 74.2651C130.245 73.9818 133.475 73.8396 135.685 73.7922C136.147 73.7828 136.615 73.7836 137.072 73.7907C139.381 73.831 141.444 74.5327 141.444 74.5327Z" fill="#E0D5F8"/>
<path opacity="0.7" d="M141.444 74.5327C141.328 77.7153 141.569 80.4552 141.968 83.4608C142.263 85.666 142.647 87.7576 143.046 89.6494C143.982 94.0927 144.997 97.4313 145.162 98.5979C142.709 98.9152 133.18 100.145 127.786 100.84C120.87 84.5777 123.282 75.3988 123.282 75.3988C123.282 75.3988 125.16 74.81 127.395 74.4096C127.687 74.3556 127.986 74.309 128.29 74.2651C130.245 73.9818 133.475 73.8396 135.685 73.7922C136.147 73.7828 136.615 73.7836 137.072 73.7907C139.381 73.831 141.444 74.5327 141.444 74.5327Z" fill="white"/>
<path d="M129.828 77.9555C129.611 79.1401 128.924 82.1837 128.955 85.1834C129.276 85.7656 129.708 87.1837 130.098 87.7596C130.383 87.103 130.878 85.7507 131.217 85.0886C130.915 82.2378 130.34 79.3791 130.518 77.883L129.828 77.9555Z" fill="#E0D5F8"/>
<path d="M130.033 78.8573L129.182 77.5249L130.263 76.9224L131.217 77.2718L130.033 78.8573Z" fill="#E0D5F8"/>
<path d="M133.52 67.0979C133.441 69.2169 133.681 73.0479 135.578 74.1997C134.575 75.4482 132.963 76.6125 130.316 76.9165C128.289 77.1496 128.358 75.6574 128.681 74.9115C130.791 74.1237 130.414 72.5876 129.662 71.0503L133.52 67.0979Z" fill="#E4897B"/>
<path d="M130.263 76.9224C130.263 76.9224 131.176 77.6789 132.22 78.4087C133.446 77.6194 136.285 75.5638 135.909 74.0418C135.662 73.6156 134.942 73.4295 134.942 73.4295C134.942 73.4295 133.246 75.3213 130.263 76.9224Z" fill="white"/>
<path d="M130.263 76.9224C130.263 76.9224 129.343 77.7999 128.813 78.8354C127.759 78.3692 128.134 75.3201 128.443 74.9581C129.309 74.054 130.11 73.7852 130.11 73.7852C130.11 73.7852 129.427 75.4216 130.263 76.9224Z" fill="white"/>
<path opacity="0.2" d="M131.947 68.7104L129.663 71.0484C129.843 71.4119 129.999 71.7841 130.098 72.1532C131.075 71.8922 132.271 70.7456 132.207 69.8136C132.175 69.349 132.071 68.9121 131.947 68.7104Z" fill="black"/>
<path d="M125.187 62.2029C124.689 63.2673 124.687 65.5297 126.496 64.9295C128.305 64.329 126.042 60.3734 125.187 62.2029Z" fill="#263238"/>
<path d="M134.011 64.3505C133.93 67.1755 134.046 68.8342 132.482 70.3193C130.13 72.5539 126.108 71.3543 125.224 68.5568C124.429 66.039 124.694 61.8421 127.795 60.6464C130.85 59.4684 134.091 61.5255 134.011 64.3505Z" fill="#E4897B"/>
<path d="M132.065 59.5538C131.953 59.5585 131.861 59.5973 131.768 59.6001C131.768 59.6001 132.044 65.1239 133.49 66.3305C137.183 65.4134 139.081 59.2588 132.065 59.5538Z" fill="#263238"/>
<path d="M135.345 66.6607C135.119 67.3945 134.526 67.9649 133.901 68.263C132.961 68.7112 132.244 68.0205 132.298 67.1296C132.346 66.3277 132.894 65.1281 133.938 65.0467C134.965 64.9664 135.604 65.8216 135.345 66.6607Z" fill="#E4897B"/>
<path d="M126.207 65.3209C126.217 65.5505 126.086 65.7401 125.915 65.744C125.744 65.7479 125.597 65.565 125.588 65.3354C125.578 65.1058 125.709 64.9162 125.88 64.9123C126.051 64.9084 126.198 65.0913 126.207 65.3209Z" fill="#263238"/>
<path d="M127.153 65.4133C127.153 65.4133 126.596 66.703 125.96 67.3376C126.432 67.6855 127.212 67.4936 127.212 67.4936L127.153 65.4133Z" fill="#DE5753"/>
<path d="M128.65 68.3394C128.543 68.3547 128.43 68.3645 128.31 68.3668C128.268 68.368 128.232 68.3386 128.231 68.3014C128.229 68.2638 128.263 68.2332 128.305 68.2321C129.455 68.2042 129.961 67.4889 129.966 67.4814C129.988 67.4497 130.035 67.4399 130.072 67.4591C130.108 67.4787 130.12 67.5202 130.098 67.552C130.078 67.5813 129.641 68.1984 128.65 68.3394Z" fill="#263238"/>
<path d="M129.378 64.6459C129.333 64.6706 129.273 64.6737 129.222 64.6494C128.618 64.3603 128.114 64.5883 128.109 64.5907C128.034 64.6255 127.941 64.6008 127.9 64.5354C127.86 64.47 127.888 64.3885 127.963 64.3536C127.989 64.3411 128.62 64.0551 129.37 64.414C129.445 64.4496 129.473 64.5315 129.432 64.5965C129.418 64.6173 129.4 64.6341 129.378 64.6459Z" fill="#263238"/>
<path d="M124.73 64.2886C124.702 64.2835 124.674 64.2714 124.652 64.2518C124.591 64.1993 124.59 64.1135 124.649 64.0602C125.242 63.5274 125.935 63.6516 125.966 63.6536C126.049 63.6689 126.103 63.7405 126.087 63.8134C126.071 63.8863 125.991 63.9333 125.908 63.9188C125.88 63.9125 125.345 63.8232 124.869 64.2506C124.831 64.2847 124.779 64.2968 124.73 64.2886Z" fill="#263238"/>
<path d="M128.443 65.3283C128.443 65.3283 128.772 65.0471 129.17 65.2167" stroke="#263238" stroke-width="0.342616" stroke-miterlimit="10" stroke-linecap="round" stroke-linejoin="round"/>
<path d="M132.928 63.214C132.928 63.214 131.511 63.1521 130.936 61.9471C130.361 60.742 129.869 61.7238 129.869 61.7238C129.869 61.7238 129.68 61.3598 128.443 61.1436C127.207 60.9273 126.388 63.8479 125.052 63.3766C123.716 62.9049 124.104 61.7238 124.104 61.7238C124.104 61.7238 124.689 61.4719 125.348 59.8766C126.09 58.08 129.658 57.2809 132.752 58.6406C135.847 60.0004 132.928 63.214 132.928 63.214Z" fill="#263238"/>
<path d="M147.59 102.344L134.614 104.72L131.217 100.398L129.191 104.421L123.537 101.604L126.545 97.7419C120.972 85.8427 122.876 75.4619 122.876 75.4619C125.346 74.4073 128.508 74.2341 128.508 74.2341C125.271 78.5552 130.097 87.7596 130.097 87.7596C132.998 80.6499 136.47 73.784 136.47 73.784C139.42 73.5917 141.963 74.2855 141.963 74.2855C141.963 74.2855 143.227 90.5011 144.902 94.6208C146.571 98.7358 147.59 102.344 147.59 102.344Z" fill="#263238"/>
<path opacity="0.1" d="M134.577 79.6612L137.286 82.6605C137.286 82.6605 130.956 86.6442 129.095 93.2571L129.761 89.3952L124.556 82.97L126.95 80.3409L124.103 78.4851C124.103 78.4851 126.551 74.8625 128.508 74.2342C125.271 78.5552 130.097 87.7596 130.097 87.7596C132.998 80.65 136.47 73.784 136.47 73.784C136.47 73.784 138.763 75.2135 139.996 78.2081L134.577 79.6612Z" fill="white"/>
<path d="M162.334 99.6655C162.55 100.445 160.942 101.458 158.742 101.929C156.542 102.4 154.584 102.15 154.368 101.37C154.152 100.591 155.76 99.5777 157.96 99.1068C160.159 98.6359 162.118 98.8859 162.334 99.6655Z" stroke="#263238" stroke-width="1.37035" stroke-miterlimit="10"/>
<path d="M168.472 98.7057L171.905 111.091C172.017 111.497 171.736 111.909 171.27 112.009L150.71 116.409C150.248 116.508 149.778 116.256 149.666 115.851L146.233 103.466C146.119 103.056 146.407 102.647 146.868 102.548L167.428 98.1478C167.895 98.0479 168.358 98.2959 168.472 98.7057Z" fill="#263238"/>
<path opacity="0.1" d="M168.472 98.7057L171.905 111.091C172.017 111.497 171.736 111.909 171.27 112.009L150.71 116.409C150.248 116.508 149.778 116.256 149.666 115.851L146.233 103.466C146.119 103.056 146.407 102.647 146.868 102.548L167.428 98.1478C167.895 98.0479 168.358 98.2959 168.472 98.7057Z" fill="white"/>
<path d="M148.254 103.033L151.686 115.418C151.799 115.823 151.512 116.237 151.051 116.336L150.71 116.409C150.248 116.508 149.778 116.256 149.666 115.851L146.233 103.466C146.119 103.056 146.407 102.647 146.868 102.548L147.21 102.475C147.671 102.376 148.14 102.623 148.254 103.033Z" fill="#263238"/>
<path d="M147.437 102.437C147.869 102.345 148.322 102.626 148.428 103.006L150.019 108.748C150.109 109.071 150.479 109.269 150.847 109.191L169.734 105.148C170.101 105.069 170.327 104.744 170.237 104.421L168.64 98.6598C168.528 98.2563 168.066 98.0091 167.607 98.1074L147.038 102.51L147.437 102.437Z" fill="#263238"/>
<path opacity="0.2" d="M147.437 102.437C147.869 102.345 148.322 102.626 148.428 103.006L150.019 108.748C150.109 109.071 150.479 109.269 150.847 109.191L169.734 105.148C170.101 105.069 170.327 104.744 170.237 104.421L168.64 98.6598C168.528 98.2563 168.066 98.0091 167.607 98.1074L147.038 102.51L147.437 102.437Z" fill="white"/>
<path d="M162.138 109.7L160.609 110.027C160.472 110.056 160.335 109.983 160.301 109.863L159.38 106.537L161.404 106.104L162.326 109.429C162.359 109.55 162.275 109.671 162.138 109.7Z" fill="#263238"/>
<path d="M162 108.744L160.232 109.122C160.019 109.168 159.805 109.053 159.754 108.867L159.548 108.124C159.496 107.937 159.626 107.749 159.838 107.704L161.606 107.325C161.819 107.28 162.033 107.394 162.084 107.581L162.29 108.324C162.342 108.51 162.212 108.698 162 108.744Z" stroke="white" stroke-width="0.685232" stroke-miterlimit="10"/>
<path d="M156.149 95.7887L155.583 98.6367L159.601 97.6801C159.601 97.6801 159.467 95.1666 157.935 95.0909L156.149 95.7887Z" fill="#E4897B"/>
<path d="M156.851 100.728L160.131 99.8014L159.601 97.6797L155.583 98.6363L156.851 100.728Z" fill="#E4897B"/>
<path d="M155.897 94.6439L156 95.9222L158.661 95.44L158.452 94.2396L155.897 94.6439Z" fill="#E0D5F8"/>
<path opacity="0.7" d="M155.897 94.6439L156 95.9222L158.661 95.44L158.452 94.2396L155.897 94.6439Z" fill="white"/>
<path d="M141.895 74.2487C144.261 75.0721 146.483 75.9814 148.71 77.0556C149.817 77.5954 150.917 78.1698 152.001 78.8381C152.544 79.1719 153.085 79.5323 153.626 79.9381C154.164 80.3538 154.703 80.7988 155.238 81.4445C155.371 81.6184 155.501 81.77 155.629 81.9902C155.69 82.0909 155.758 82.2025 155.808 82.2961L155.91 82.5202L156.111 82.9688L156.273 83.3891C156.384 83.6708 156.473 83.9462 156.558 84.2158C156.648 84.4888 156.733 84.7591 156.808 85.0263C157.132 86.0985 157.382 87.1618 157.623 88.2226C158.092 90.3487 158.452 92.4689 158.705 94.622L155.841 95.0902C155.841 95.0902 154.766 91.0539 154.001 89.0637C153.626 88.0667 153.227 87.0783 152.829 86.1189C152.73 85.876 152.627 85.6414 152.52 85.4106C152.418 85.1748 152.309 84.9468 152.202 84.7325L152.043 84.4058L151.883 84.1221L151.804 83.9803C151.784 83.9556 151.775 83.9529 151.763 83.9372C151.755 83.9184 151.691 83.8632 151.652 83.8189C151.455 83.6152 151.092 83.3366 150.696 83.0777C150.298 82.8121 149.857 82.548 149.39 82.2946C148.452 81.7904 147.449 81.3042 146.418 80.8455C144.363 79.9299 142.179 79.0567 140.066 78.2606L141.895 74.2487Z" fill="#263238"/>
<path d="M168.164 75.3491C179.842 75.3491 189.309 67.0294 189.309 56.7665C189.309 46.5036 179.842 38.1838 168.164 38.1838C156.486 38.1838 147.018 46.5036 147.018 56.7665C147.018 67.0294 156.486 75.3491 168.164 75.3491Z" fill="#E0D5F8"/>
<path opacity="0.7" d="M168.164 75.3491C179.842 75.3491 189.309 67.0294 189.309 56.7665C189.309 46.5036 179.842 38.1838 168.164 38.1838C156.486 38.1838 147.018 46.5036 147.018 56.7665C147.018 67.0294 156.486 75.3491 168.164 75.3491Z" fill="white"/>
<path d="M146.43 65.7984C147.663 65.7984 148.662 64.9199 148.662 63.8361C148.662 62.7524 147.663 61.8738 146.43 61.8738C145.196 61.8738 144.197 62.7524 144.197 63.8361C144.197 64.9199 145.196 65.7984 146.43 65.7984Z" fill="#E0D5F8"/>
<path opacity="0.7" d="M146.43 65.7984C147.663 65.7984 148.662 64.9199 148.662 63.8361C148.662 62.7524 147.663 61.8738 146.43 61.8738C145.196 61.8738 144.197 62.7524 144.197 63.8361C144.197 64.9199 145.196 65.7984 146.43 65.7984Z" fill="white"/>
<path d="M142.928 65.1845C142.879 65.8047 142.268 66.2724 141.563 66.2301C140.857 66.1874 140.325 65.6503 140.373 65.0306C140.422 64.4104 141.033 63.9423 141.738 63.985C142.444 64.0277 142.976 64.5648 142.928 65.1845Z" fill="#E0D5F8"/>
<path opacity="0.7" d="M142.928 65.1845C142.879 65.8047 142.268 66.2724 141.563 66.2301C140.857 66.1874 140.325 65.6503 140.373 65.0306C140.422 64.4104 141.033 63.9423 141.738 63.985C142.444 64.0277 142.976 64.5648 142.928 65.1845Z" fill="white"/>
<path d="M139.078 64.8837C139.053 65.1935 138.748 65.4278 138.395 65.4063C138.042 65.3847 137.776 65.1164 137.8 64.8065C137.824 64.4966 138.13 64.2623 138.483 64.2839C138.835 64.3054 139.102 64.5738 139.078 64.8837Z" fill="#E0D5F8"/>
<path opacity="0.7" d="M139.078 64.8837C139.053 65.1935 138.748 65.4278 138.395 65.4063C138.042 65.3847 137.776 65.1164 137.8 64.8065C137.824 64.4966 138.13 64.2623 138.483 64.2839C138.835 64.3054 139.102 64.5738 139.078 64.8837Z" fill="white"/>
<path d="M171.123 65.6184C175.403 64.2731 177.331 59.393 175.428 54.7185C173.525 50.0441 168.513 47.3452 164.233 48.6906C159.953 50.0359 158.026 54.916 159.929 59.5904C161.832 64.2649 166.843 66.9638 171.123 65.6184Z" fill="#E0D5F8"/>
<path d="M171.068 63.7932C174.522 62.7074 176.078 58.7685 174.542 54.9955C173.006 51.2225 168.961 49.0441 165.507 50.13C162.052 51.2158 160.497 55.1547 162.033 58.9277C163.568 62.7007 167.614 64.8791 171.068 63.7932Z" fill="white"/>
<path d="M173.818 55.2273C175.048 58.2489 173.802 61.4033 171.036 62.273C168.269 63.1427 165.029 61.3978 163.8 58.3762C162.57 55.3546 163.816 52.2001 166.582 51.3304C169.349 50.4611 172.589 52.2056 173.818 55.2273Z" fill="#E0D5F8"/>
<path d="M172.877 55.523C173.822 57.8434 172.933 60.2449 170.892 60.8862C168.851 61.5275 166.431 60.1665 165.487 57.8461C164.542 55.5257 165.431 53.1243 167.472 52.483C169.513 51.8417 171.933 53.2026 172.877 55.523Z" fill="white"/>
<path d="M172.182 55.8842C172.855 57.539 172.274 59.2349 170.882 59.6721C169.491 60.1093 167.817 59.1225 167.144 57.4677C166.47 55.8129 167.052 54.117 168.443 53.6798C169.834 53.2426 171.508 54.2295 172.182 55.8842Z" fill="#E0D5F8"/>
<path d="M171.695 56.037C172.181 57.2323 171.812 58.4412 170.869 58.7374C169.927 59.0335 168.769 58.3049 168.282 57.1096C167.796 55.9148 168.165 54.7058 169.108 54.4092C170.05 54.1135 171.208 54.8421 171.695 56.037Z" fill="white"/>
<path d="M182.923 50.6374L180.39 51.4335L179.903 53.4573L181.74 54.7505L184.273 53.9544L182.394 52.6746L182.923 50.6374Z" fill="#E0D5F8"/>
<path d="M170.382 56.4495L182.781 52.5527" stroke="#263238" stroke-width="2.29098" stroke-miterlimit="10" stroke-linecap="round" stroke-linejoin="round"/>
</g>
<defs>
<clipPath id="clip0_861_6977">
<rect width="222.894" height="195.879" fill="white" transform="translate(0.438721 0.862305)"/>
</clipPath>
</defs>
</svg>
