<svg width="38" height="38" viewBox="0 0 38 38" fill="none" xmlns="http://www.w3.org/2000/svg">
<g clip-path="url(#clip0_1229_3291)">
<path d="M37.3441 11.4188C37.2565 9.43262 36.9353 8.06713 36.4752 6.88391C36.0006 5.62796 35.2703 4.5035 34.3136 3.56874C33.3788 2.61943 32.247 1.88177 31.0056 1.41453C29.8155 0.954426 28.4572 0.633235 26.471 0.545663C24.4699 0.450675 23.8347 0.428711 18.7595 0.428711C13.6844 0.428711 13.0491 0.450675 11.0555 0.538247C9.06932 0.625819 7.70384 0.947295 6.52091 1.40712C5.26467 1.88177 4.14022 2.61201 3.20545 3.56874C2.25614 4.5035 1.51877 5.63537 1.05125 6.87678C0.591144 8.06713 0.269953 9.4252 0.182382 11.4114C0.0873939 13.4124 0.0654297 14.0477 0.0654297 19.1228C0.0654297 24.198 0.0873939 24.8333 0.174965 26.8269C0.262537 28.8131 0.584013 30.1785 1.04412 31.3618C1.51877 32.6177 2.25614 33.7422 3.20545 34.6769C4.14022 35.6262 5.27209 36.3639 6.51349 36.8311C7.70384 37.2912 9.06191 37.6124 11.0484 37.7C13.0417 37.7879 13.6772 37.8095 18.7524 37.8095C23.8276 37.8095 24.4628 37.7879 26.4564 37.7C28.4426 37.6124 29.8081 37.2912 30.991 36.8311C33.5032 35.8599 35.4894 33.8737 36.4607 31.3618C36.9205 30.1714 37.242 28.8131 37.3295 26.8269C37.4171 24.8333 37.4391 24.198 37.4391 19.1228C37.4391 14.0477 37.4317 13.4124 37.3441 11.4188ZM33.9779 26.6808C33.8974 28.5064 33.5908 29.4922 33.3352 30.1495C32.7071 31.7779 31.4146 33.0704 29.7861 33.6985C29.1289 33.9541 28.136 34.2608 26.3175 34.3409C24.3459 34.4288 23.7545 34.4504 18.7669 34.4504C13.7794 34.4504 13.1806 34.4288 11.2161 34.3409C9.39052 34.2608 8.40469 33.9541 7.74748 33.6985C6.93709 33.399 6.19943 32.9244 5.60069 32.3037C4.97999 31.6975 4.50534 30.9673 4.20582 30.1569C3.95024 29.4997 3.6436 28.5064 3.56344 26.6882C3.47559 24.7166 3.45391 24.125 3.45391 19.1374C3.45391 14.1498 3.47559 13.5511 3.56344 11.5868C3.6436 9.76123 3.95024 8.7754 4.20582 8.11819C4.50534 7.30751 4.97999 6.57014 5.60811 5.97111C6.21398 5.35041 6.94422 4.87575 7.7549 4.57653C8.41211 4.32094 9.40535 4.0143 11.2235 3.93386C13.1952 3.84629 13.7868 3.82432 18.7741 3.82432C23.7691 3.82432 24.3604 3.84629 26.3249 3.93386C28.1505 4.0143 29.1363 4.32094 29.7935 4.57653C30.6039 4.87575 31.3416 5.35041 31.9403 5.97111C32.561 6.57727 33.0357 7.30751 33.3352 8.11819C33.5908 8.7754 33.8974 9.76836 33.9779 11.5868C34.0654 13.5585 34.0874 14.1498 34.0874 19.1374C34.0874 24.125 34.0654 24.7092 33.9779 26.6808Z" fill="#6020BD"/>
<path d="M18.7599 9.52002C13.4585 9.52002 9.15723 13.821 9.15723 19.1227C9.15723 24.4243 13.4585 28.7253 18.7599 28.7253C24.0615 28.7253 28.3625 24.4243 28.3625 19.1227C28.3625 13.821 24.0615 9.52002 18.7599 9.52002ZM18.7599 25.3517C15.3206 25.3517 12.5309 22.5622 12.5309 19.1227C12.5309 15.6831 15.3206 12.8937 18.7599 12.8937C22.1994 12.8937 24.9889 15.6831 24.9889 19.1227C24.9889 22.5622 22.1994 25.3517 18.7599 25.3517V25.3517Z" fill="#6020BD"/>
<path d="M30.9844 9.14071C30.9844 10.3787 29.9806 11.3825 28.7423 11.3825C27.5043 11.3825 26.5005 10.3787 26.5005 9.14071C26.5005 7.90244 27.5043 6.89893 28.7423 6.89893C29.9806 6.89893 30.9844 7.90244 30.9844 9.14071V9.14071Z" fill="#6020BD"/>
</g>
<defs>
<clipPath id="clip0_1229_3291">
<rect width="37.381" height="37.381" fill="white" transform="translate(0 0.428711)"/>
</clipPath>
</defs>
</svg>
