<svg width="204" height="193" viewBox="0 0 204 193" fill="none" xmlns="http://www.w3.org/2000/svg">
<path d="M88.629 61.3432C82.3098 39.6544 53.8333 32.6674 37.5134 48.8768C37.2789 49.1094 37.0452 49.3462 36.811 49.5869C13.4142 73.6501 24.467 132.949 73.2955 147.979C122.124 163.009 172.912 135.563 175.765 111.028C178.619 86.4937 156.092 78.7845 121.132 85.6451C101.381 89.5208 92.5628 74.8449 88.629 61.3432Z" fill="#E0D5F8"/>
<path d="M129.248 65.0528C122.715 66.059 120.904 71.5355 125.948 75.4203C127.616 76.7043 129.997 77.7714 133.389 78.3035C146.31 80.3317 153.167 74.9226 147.987 67.9096C144.791 63.5814 135.722 64.0558 129.248 65.0528Z" fill="#E0D5F8"/>
<path d="M25.0804 108.877C21.0189 103.932 15.0705 105.05 13.8804 111.099C13.4869 113.099 13.637 115.588 14.7668 118.66C19.071 130.365 27.3728 133.471 31.4008 125.811C33.8873 121.083 29.1056 113.777 25.0804 108.877Z" fill="#E0D5F8"/>
<path d="M180.37 113.879C179.769 116.86 182.37 118.972 185.318 117.823C186.292 117.443 187.275 116.711 188.149 115.424C191.48 110.522 189.793 106.317 185.156 106.749C182.294 107.016 180.967 110.925 180.37 113.879Z" fill="#E0D5F8"/>
<path d="M163.854 82.4237C166.994 83.0439 169.27 80.6187 168.106 77.8108C167.721 76.8826 166.964 75.9403 165.62 75.0913C160.496 71.8573 156.023 73.3811 156.401 77.7756C156.634 80.4874 160.743 81.8093 163.854 82.4237Z" fill="#E0D5F8"/>
<path d="M87.5381 50.5253C90.0242 52.4429 93.224 51.281 93.5568 48.2811C93.6668 47.2898 93.4533 46.1236 92.672 44.7842C89.6962 39.6819 84.9844 39.0877 83.1817 43.1532C82.0693 45.6626 85.0746 48.625 87.5381 50.5253Z" fill="#E0D5F8"/>
<path d="M188.155 128.791C193.14 124.049 196.937 118.69 193.16 117.855C189.38 117.019 183.031 126.357 181.924 134.857L180.817 137.664C181.738 131.483 179.499 123.953 176.221 123.643C172.964 123.334 174.936 128.218 177.523 132.395C179.491 135.574 180.011 138.083 180.14 139.379L174.911 152.633C176.339 142.841 172.793 130.96 167.606 130.469C162.439 129.98 165.567 137.729 169.671 144.356C172.772 149.365 173.607 153.326 173.821 155.395L172.778 158.038C173.234 158.281 173.692 158.522 174.15 158.759L180.372 142.99C181.572 142.142 183.395 141.118 185.989 140.287C190.836 138.736 195.708 136.269 193.034 134.482C190.714 132.932 185.259 135.916 181.501 140.127L183.653 134.674C184.623 133.095 186.003 130.837 188.155 128.791Z" fill="#D1B8F4"/>
<path d="M30.9992 66.9268C31.6458 61.1998 31.1424 55.6644 28.1298 57.0295C25.1143 58.3961 26.1714 67.9059 30.2709 74.1785L31.1262 76.6278C28.2228 72.0073 22.4297 68.0926 20.0519 69.5556C17.6892 71.0095 21.7956 73.284 25.9122 74.7696C29.0461 75.9005 30.8233 77.3203 31.649 78.1249L35.6888 89.6934C31.0688 82.3886 21.9181 76.2189 18.1558 78.5339C14.4068 80.841 20.9222 84.45 27.4544 86.8075C32.3907 88.5889 35.2084 90.8232 36.5307 92.1045L37.3362 94.4112C37.781 94.3419 38.225 94.27 38.6686 94.1954L33.8626 80.4324C34.1857 79.2509 34.8258 77.6333 36.0952 75.7521C38.4664 72.2384 40.3322 68.0972 37.519 68.2609C35.0773 68.4032 33.1141 73.1895 32.99 77.9336L31.328 73.1742C31.0797 71.6185 30.7202 69.3987 30.9992 66.9268Z" fill="#D1B8F4"/>
<path d="M154.501 144.544C154.564 144.868 154.637 145.222 154.723 145.599V145.6C155.621 149.549 157.825 156.013 162.783 157.284C162.783 157.284 160.084 143.969 169.704 140.5C179.325 137.032 178.261 133.73 177.711 127.852C177.161 121.974 175.035 120.854 181.71 115.348C188.385 109.842 187.108 101.641 187.108 101.641C187.108 101.641 180.791 111.005 174.044 111.222C167.297 111.439 166.115 116.889 166.403 120.942C166.691 124.994 160.961 125.453 157.86 127.803C154.759 130.154 154.175 142.498 154.175 142.498C154.175 142.498 154.261 143.305 154.501 144.544Z" fill="#6020BD"/>
<path d="M154.501 144.544C154.564 144.868 154.637 145.222 154.723 145.599C155.415 143.617 156.388 141.953 157.299 140.676C159.457 137.651 162.496 135.166 165.229 134.191C169.581 132.639 171.707 128.6 172.118 121.095C172.357 116.739 177.174 114.166 177.223 114.14C177.364 114.067 177.416 113.898 177.337 113.765C177.259 113.631 177.082 113.583 176.941 113.656C176.731 113.766 171.79 116.4 171.535 121.066C171.137 128.322 169.129 132.21 165.023 133.674C162.139 134.702 159.071 137.204 156.815 140.366C156.017 141.484 155.173 142.891 154.501 144.544Z" fill="#9C78ED"/>
<path d="M48.0179 157.212H54.7779C51.1251 156.641 42.0691 152.963 41.2616 145.587C40.2389 136.244 36.7224 136.361 30.7979 135.384C24.873 134.407 23.2409 136.002 19.479 128.749C15.7171 121.496 7.32428 120.582 7.32428 120.582C7.32428 120.582 14.9739 128.479 13.51 134.48C12.0462 140.482 17.1187 142.879 21.181 143.633C25.2434 144.387 24.2697 149.552 25.8132 152.87C26.5176 154.384 29.4012 155.953 32.3281 157.212H48.0179Z" fill="#9C78ED"/>
<path d="M33.376 148.015C33.6712 150.813 35.3716 154.141 37.9244 156.915C38.0142 157.013 38.1076 157.112 38.203 157.212H38.9722C38.7522 156.992 38.5435 156.776 38.3498 156.565C35.9078 153.911 34.2163 150.614 33.9357 147.962C33.49 143.74 30.0419 140.862 22.7534 138.633C18.5228 137.339 17.1868 132.453 17.1747 132.403C17.137 132.261 16.9838 132.174 16.8334 132.209C16.6821 132.245 16.5899 132.389 16.6275 132.532C16.6833 132.744 18.0485 137.754 22.5796 139.14C29.625 141.295 32.955 144.032 33.376 148.015Z" fill="#D1B8F4"/>
<path d="M51.6637 139.873C51.5206 140.327 51.3584 140.821 51.1752 141.346L51.1748 141.347C49.2528 146.851 45.3101 156.119 38.0293 157.212C38.0293 157.212 43.7917 138.241 30.6313 131.894C17.4708 125.547 19.5251 120.991 21.2647 112.686C23.0039 104.381 26.2187 103.091 17.5909 94.2662C8.96317 85.4409 12.1169 73.9275 12.1169 73.9275C12.1169 73.9275 19.6076 88.204 29.1974 89.4952C38.7876 90.7865 39.5878 98.7329 38.519 104.473C37.4503 110.212 45.5503 111.699 49.5917 115.504C53.633 119.308 52.4607 137.002 52.4607 137.002C52.4607 137.002 52.2072 138.141 51.6637 139.873Z" fill="#6020BD"/>
<path d="M51.6638 139.873C51.5207 140.327 51.3585 140.821 51.1753 141.346C50.5105 138.419 49.3924 135.903 48.3006 133.949C45.7138 129.319 41.7821 125.332 38.0416 123.544C32.0851 120.698 29.7098 114.627 30.3415 103.86C30.709 97.6111 24.2552 93.2392 24.1885 93.1968C23.9996 93.0709 23.9535 92.8234 24.0866 92.6447C24.22 92.4649 24.4816 92.4213 24.6705 92.5471C24.9523 92.7342 31.572 97.2102 31.1789 103.904C30.5675 114.312 32.8005 120.152 38.4189 122.837C42.366 124.724 46.3378 128.739 49.0422 133.578C49.9978 135.288 50.9736 137.418 51.6638 139.873Z" fill="#9C78ED"/>
<path d="M56.8835 152.751C56.9058 154.193 56.9333 155.694 56.9668 157.212H71.67C71.6979 155.55 71.7193 153.958 71.7355 152.464C71.7796 148.415 71.7848 145.083 71.7812 143.012C71.7796 141.542 71.7731 140.71 71.7731 140.71L56.7804 140.559C56.7804 140.559 56.7804 141.785 56.7917 143.789C56.8015 146.017 56.8277 149.206 56.8835 152.751Z" fill="#18315B"/>
<path d="M56.7919 143.789C56.8016 146.017 56.8279 149.206 56.8837 152.751C61.5025 153.084 66.5657 153.087 71.7357 152.464C71.7801 148.415 71.785 145.083 71.7818 143.012L56.7919 143.789Z" fill="#000B29"/>
<path d="M38.3539 149.552C38.3704 151.82 38.3987 154.417 38.4465 157.212H53.1508C53.1872 155.576 53.2163 153.959 53.2402 152.414C53.2911 149.099 53.3174 146.114 53.3303 143.969C53.3417 141.857 53.3417 140.559 53.3417 140.559L38.3421 140.71C38.3421 140.71 38.3308 142.214 38.334 144.746C38.3344 146.085 38.3409 147.709 38.3539 149.552Z" fill="#18315B"/>
<path d="M38.3344 144.746C38.3344 146.085 38.3409 147.709 38.3542 149.552C41.3401 150.385 46.6852 151.68 53.2405 152.414C53.2915 149.099 53.3178 146.114 53.3307 143.969L38.3344 144.746Z" fill="#000B29"/>
<path d="M62.9829 65.9251C62.9829 65.9251 65.3457 63.7723 65.338 61.6462C65.3299 59.5201 63.8026 60.1484 62.9829 58.1673C62.1632 56.1862 59.7277 54.978 58.392 55.2198C57.0564 55.4616 54.2363 50.5326 50.4117 51.4023C46.5867 52.2719 46.9195 56.9109 45.272 57.5873C43.6246 58.2637 44.084 61.018 44.9526 61.6462C45.8208 62.2744 46.1884 64.7988 46.6768 64.7418C47.1649 64.6848 62.9829 65.9251 62.9829 65.9251Z" fill="#18315B"/>
<path d="M47.0808 65.8742C47.0808 65.8742 45.5951 64.0003 44.4908 65.5498C43.386 67.0993 44.9477 71.6759 47.6522 70.5587L47.0808 65.8742Z" fill="#F97853"/>
<path d="M47.062 69.1446C46.9621 69.1446 46.8703 69.0823 46.842 68.9866C46.423 67.5737 44.8755 67.001 44.8601 66.9952C44.7425 66.9528 44.683 66.828 44.7279 66.7163C44.7724 66.6046 44.9046 66.5484 45.0223 66.5908C45.0947 66.6165 46.7995 67.2428 47.2823 68.8699C47.3163 68.9851 47.2455 69.1041 47.1242 69.1366C47.1032 69.142 47.0822 69.1446 47.062 69.1446Z" fill="#EA5143"/>
<path d="M45.5 68.4326C45.4576 68.4326 45.4147 68.4215 45.3767 68.3982C45.2708 68.3335 45.24 68.1996 45.3084 68.0994C45.3197 68.0826 45.5935 67.6877 46.166 67.4452C46.2805 67.3962 46.4164 67.4452 46.4677 67.5542C46.5191 67.6632 46.4677 67.791 46.3525 67.8396C45.9097 68.0271 45.6945 68.3305 45.6925 68.3332C45.6484 68.3978 45.5749 68.4326 45.5 68.4326Z" fill="#EA5143"/>
<path d="M62.3897 65.8742C62.3897 65.8742 63.8749 64.0003 64.9797 65.5498C66.0841 67.0993 64.5228 71.6759 61.8183 70.5587L62.3897 65.8742Z" fill="#F97853"/>
<path d="M62.4088 69.1446C62.5087 69.1446 62.6005 69.0823 62.6288 68.9866C63.0477 67.5737 64.5948 67.001 64.6106 66.9952C64.7283 66.9528 64.7877 66.828 64.7428 66.7163C64.698 66.6046 64.5661 66.5484 64.4485 66.5908C64.3761 66.6165 62.6712 67.2428 62.1884 68.8699C62.1544 68.9851 62.2252 69.1041 62.3469 69.1366C62.3675 69.142 62.3886 69.1446 62.4088 69.1446Z" fill="#EA5143"/>
<path d="M63.9705 68.4326C64.013 68.4326 64.0558 68.4215 64.0938 68.3982C64.2002 68.3335 64.2305 68.1996 64.1622 68.0994C64.1509 68.0826 63.8771 67.6877 63.3045 67.4452C63.1901 67.3962 63.0542 67.4452 63.0024 67.5542C62.9511 67.6632 63.0024 67.791 63.1177 67.8396C63.5605 68.0271 63.7756 68.3305 63.7776 68.3332C63.8221 68.3978 63.8953 68.4326 63.9705 68.4326Z" fill="#EA5143"/>
<path d="M58.392 74.4409V78.9922C58.392 78.9922 56.9572 81.3104 55.0174 81.468C53.0793 81.6279 51.357 79.4724 51.357 79.4724V74.7611L58.392 74.4409Z" fill="#FFA681"/>
<path d="M58.3921 74.4409V76.4606C57.0904 77.8276 54.7782 78.1689 51.3568 77.691V74.7611L58.3921 74.4409Z" fill="#F97853"/>
<path d="M63.4637 62.7519C63.3747 64.5206 63.1964 66.7324 62.8398 68.5011C62.7508 68.9422 62.6501 69.3574 62.5381 69.7292C61.5255 73.0827 58.9937 78.8342 51.9046 76.4384C48.7735 75.3813 47.3226 72.0818 46.6756 68.7257C46.2369 66.4466 46.1706 64.1441 46.2025 62.4986C46.2369 60.8186 47.2058 59.2833 48.7505 58.4554C52.935 56.2111 57.3503 57.0478 60.257 58.1049C62.2752 58.8383 63.5664 60.713 63.4637 62.7519Z" fill="#FFA681"/>
<path d="M46.6761 68.7257C46.6761 68.7257 47.3639 72.6033 48.0137 74.017C48.6648 75.4303 50.4396 75.697 51.106 76.8914C52.0567 78.5947 53.506 79.9449 55.8898 79.1223C57.8733 78.4379 57.7835 77.4783 58.8947 76.7361C60.7985 75.4643 61.7419 74.0648 61.8188 72.9052C61.8952 71.7455 62.8406 68.5011 62.8406 68.5011L61.8188 68.433C61.8188 68.433 61.2365 69.5739 60.38 70.8308C59.5203 69.0448 55.3791 70.3437 55.3791 70.3437L54.5885 70.5859L53.7765 70.3437C53.7765 70.3437 49.586 69.0999 48.7586 70.9727C48.2515 70.2393 47.8395 69.4144 47.6522 68.5402L46.6761 68.7257ZM54.5881 71.19C59.3379 70.4187 58.4891 73.0498 58.4584 73.1443V73.1458C58.4568 73.1474 58.4568 73.1474 58.4568 73.1474C58.1349 73.4374 57.8069 73.6807 57.4806 73.8475C55.6403 74.7883 55.4413 74.6464 54.7151 74.6766C53.9767 74.7099 52.9577 74.5025 51.9237 73.9562C51.6018 73.7851 51.121 73.4546 50.5937 72.9993C50.5937 72.9993 49.8476 70.5855 54.5881 71.19Z" fill="#18315B"/>
<path d="M51.7334 66.468C51.7334 66.9539 51.469 67.3476 51.1422 67.3476C50.8159 67.3476 50.551 66.9539 50.551 66.468C50.551 65.9821 50.8159 65.5884 51.1422 65.5884C51.4686 65.5884 51.7334 65.9821 51.7334 66.468Z" fill="#18315B"/>
<path d="M58.7607 66.468C58.7607 66.9539 58.4959 67.3476 58.1695 67.3476C57.8432 67.3476 57.5784 66.9539 57.5784 66.468C57.5784 65.9821 57.8428 65.5884 58.1695 65.5884C58.4959 65.5884 58.7607 65.9821 58.7607 66.468Z" fill="#18315B"/>
<path d="M60.4964 63.5714C60.4964 63.5714 58.0535 62.6582 56.1728 63.4268L56.3608 64.4166C56.3608 64.4166 59.1211 64.1958 60.5121 64.7288C60.6371 64.3477 60.6553 63.9628 60.4964 63.5714Z" fill="#18315B"/>
<path d="M48.8823 63.576C48.8823 63.576 51.3429 62.6559 53.2374 63.4302L53.0478 64.4273C53.0478 64.4273 50.2669 64.2046 48.8657 64.7418C48.7408 64.358 48.7222 63.9701 48.8823 63.576Z" fill="#18315B"/>
<path d="M54.8144 70.1551C55.1998 70.1551 55.5823 70.0132 55.6418 69.9902C55.7586 69.9451 55.8144 69.8188 55.7667 69.7086C55.7194 69.598 55.5855 69.5449 55.4691 69.59C55.2628 69.6692 54.7671 69.7936 54.5524 69.6719C54.5107 69.6485 54.4545 69.6019 54.4399 69.4706C54.3575 68.7154 54.5758 66.1845 54.5782 66.1593C54.5888 66.0403 54.4949 65.9359 54.3692 65.9263C54.243 65.9164 54.133 66.0051 54.1229 66.1241C54.1136 66.2297 53.8989 68.7208 53.9858 69.5154C54.0186 69.8146 54.1844 69.9676 54.3182 70.0434C54.4638 70.1256 54.6397 70.1551 54.8144 70.1551Z" fill="#F97853"/>
<path d="M51.9012 71.6227C52.0747 72.4488 52.6514 73.968 54.594 73.968C56.5415 73.968 57.0874 72.5796 57.275 71.6227H51.9012Z" fill="white"/>
<path d="M63.4637 62.7519C63.3748 64.5206 63.1964 66.7324 62.8398 68.5011L61.8183 68.4326C61.8183 68.4326 62.0658 66.9394 62.1803 65.9661C62.2947 64.9931 62.4888 63.1743 61.6109 62.9474C60.7354 62.7224 61.2494 60.6476 60.0314 59.7482C58.8134 58.8464 56.1073 58.0529 54.3111 59.0997C52.5149 60.1441 50.4715 59.5668 49.6446 59.7482C48.8152 59.9276 47.6906 61.0088 47.9947 62.0185C48.3008 63.0258 47.387 63.6403 47.1654 64.6844C46.9438 65.7289 47.6522 68.5394 47.6522 68.5394L46.6765 68.7253C46.2377 66.4462 46.1714 64.1438 46.2033 62.4982C46.2377 60.8183 47.2066 59.2829 48.7513 58.455C52.9358 56.2107 57.3512 57.0474 60.2578 58.1045C62.2753 58.8383 63.5665 60.7131 63.4637 62.7519Z" fill="#18315B"/>
<path d="M74.8799 147.549C70.2558 148.657 65.6318 149.373 61.0045 149.703C60.7947 149.718 60.5868 149.732 60.3769 149.746C59.7408 149.786 59.1048 149.82 58.4691 149.846C55.3218 149.974 52.1737 149.924 49.0253 149.694C48.3904 149.648 47.7563 149.595 47.1215 149.533C46.9189 149.515 46.7159 149.495 46.5121 149.472C42.7534 149.087 38.9955 148.444 35.2336 147.549C35.196 144.27 35.2389 133.905 35.4516 122.665C35.4762 121.314 35.5037 119.95 35.5353 118.585C35.8685 103.77 36.5114 88.7323 37.6684 87.226C38.7772 85.7844 42.1193 83.9522 45.3143 82.2994C45.5048 82.2011 45.6956 82.1027 45.8849 82.0052C46.6035 81.636 47.3055 81.2782 47.9662 80.9385C49.3819 80.2097 50.6027 79.5615 51.3569 79.0611V79.4728C51.3569 79.4728 53.0771 81.6272 55.0157 81.468C56.7828 81.3245 58.1282 79.3928 58.3567 79.0466C59.1905 79.6021 60.6875 80.3677 62.4231 81.2354C62.9063 81.4776 63.4057 81.7251 63.9152 81.9807C64.1029 82.074 64.2913 82.1685 64.4809 82.2642C68.0144 84.0375 71.824 86.0366 72.9676 87.5225C73.0533 87.6324 73.1346 87.8168 73.2122 88.0693C73.8892 90.237 74.3089 97.4306 74.5645 106.142C74.5657 106.173 74.5665 106.205 74.5677 106.236C74.579 106.588 74.5879 106.943 74.5972 107.3C74.5993 107.346 74.6001 107.394 74.6013 107.441C74.685 110.497 74.7481 113.713 74.797 116.946C74.801 117.202 74.8063 117.459 74.8091 117.715C74.8103 117.845 74.8124 117.972 74.8132 118.101C74.8245 118.737 74.8314 119.374 74.8378 120.007C74.8451 120.475 74.8512 120.942 74.8552 121.41C74.983 133.093 74.9308 144.114 74.8799 147.549Z" fill="#9C78ED"/>
<path d="M74.5978 107.3C73.485 105.581 72.2905 103.826 71.1651 102.273C71.1619 102.27 71.159 102.266 71.157 102.262C70.6843 101.61 70.2245 100.995 69.7874 100.433C69.7801 100.422 69.7732 100.413 69.7651 100.404C69.6285 100.227 69.493 100.056 69.3604 99.8887C69.3389 99.8597 69.3228 99.8298 69.3126 99.7981L69.3114 99.7969C69.2758 99.6841 69.3155 99.5589 69.4206 99.4836C69.5561 99.386 69.749 99.4113 69.8509 99.5394C71.2023 101.234 72.931 103.67 74.5655 106.142C74.5667 106.173 74.5675 106.205 74.5687 106.236C74.5796 106.589 74.5885 106.944 74.5978 107.3Z" fill="#7846D1"/>
<path d="M73.0154 87.2838C73.0154 87.2838 79.9888 99.3715 84.2396 105.498C84.2396 105.498 86.657 103.397 89.801 100.586C93.2099 97.5381 97.872 92.4446 97.872 92.4446L100.452 95.3393C100.452 95.3393 89.9769 113.174 85.2789 115.416C80.5804 117.657 71.9227 101.792 71.9227 101.792L73.0154 87.2838Z" fill="#9C78ED"/>
<path d="M43.4893 134.924C43.4853 134.924 43.4816 134.924 43.478 134.924C43.3041 134.919 43.1678 134.78 43.1739 134.615C43.5395 124.853 38.1896 121.691 38.1354 121.66C37.9866 121.575 37.9376 121.392 38.027 121.251C38.1164 121.11 38.3093 121.063 38.4589 121.148C38.5183 121.181 39.9328 121.994 41.3025 124.077C42.5528 125.979 44.0021 129.354 43.8039 134.636C43.7983 134.797 43.6584 134.924 43.4893 134.924Z" fill="#7846D1"/>
<path d="M66.3138 125.728C66.1508 125.728 66.0125 125.609 65.9996 125.453C65.8302 123.397 66.5459 121.897 67.4521 119.999C67.7174 119.443 67.9912 118.87 68.2718 118.226C70.0304 114.19 69.1465 109.577 69.1376 109.53C69.1056 109.369 69.218 109.213 69.3895 109.182C69.561 109.152 69.7255 109.259 69.7575 109.421C69.7963 109.616 70.6839 114.256 68.8549 118.453C68.5702 119.106 68.294 119.685 68.0267 120.245C67.1238 122.137 66.4715 123.503 66.6284 125.407C66.6418 125.571 66.512 125.715 66.3385 125.727C66.3304 125.727 66.3223 125.728 66.3138 125.728Z" fill="#7846D1"/>
<path d="M47.9662 80.9385C48.1008 81.8996 48.2986 83.1464 48.5145 84.5624C48.5804 84.9829 48.6463 85.419 48.7139 85.8671C48.933 87.3297 49.1599 88.9213 49.3528 90.5305C49.405 90.9624 49.4539 91.3959 49.5 91.8279C49.6702 93.421 49.7988 95.0038 49.8449 96.4752C49.8603 96.9202 49.8663 97.3552 49.8635 97.7772C49.8603 98.9005 49.7944 99.9327 49.6504 100.816C49.5582 101.374 49.4773 101.919 49.4054 102.452C49.3455 102.895 49.2921 103.329 49.2444 103.757C49.0604 105.417 48.9686 106.962 48.9427 108.419C48.9351 108.861 48.9334 109.295 48.9383 109.719C48.952 111.373 49.0515 112.915 49.1955 114.381C49.2383 114.821 49.2857 115.253 49.335 115.679C49.5234 117.282 49.7531 118.808 49.9695 120.318C50.0321 120.75 50.0936 121.18 50.1534 121.611C50.2469 122.301 50.3358 122.991 50.4123 123.685C50.4935 124.422 50.5457 125.283 50.57 126.238C50.5821 126.655 50.5882 127.092 50.5898 127.543C50.5958 128.97 50.5574 130.552 50.4871 132.206C50.4689 132.638 50.4486 133.076 50.426 133.518C50.348 135.054 50.2452 136.635 50.1304 138.194C50.0968 138.634 50.0629 139.07 50.0277 139.505C49.9003 141.128 49.7596 142.71 49.6168 144.181C49.574 144.628 49.5311 145.064 49.4883 145.487C49.3241 147.107 49.1652 148.546 49.0256 149.694C52.1741 149.924 55.323 149.974 58.4699 149.845C58.5435 148.623 58.744 146.652 58.9418 144.331C58.9786 143.906 59.0137 143.468 59.0489 143.022C59.167 141.546 59.2742 139.969 59.3445 138.377C59.3643 137.941 59.3813 137.503 59.3935 137.067C59.4412 135.478 59.4424 133.899 59.3704 132.42C59.349 131.97 59.3215 131.531 59.2847 131.103C59.2479 130.666 59.2034 130.239 59.15 129.828C58.9984 128.665 58.9401 127.549 58.9478 126.445C58.9494 126.007 58.9616 125.572 58.983 125.136C59.055 123.622 59.2297 122.106 59.4319 120.496C59.4857 120.068 59.5423 119.633 59.5989 119.189C59.7812 117.757 59.9713 116.238 60.1213 114.575C60.161 114.149 60.1965 113.713 60.2301 113.266C60.3344 111.84 60.4048 110.308 60.4157 108.638C60.4185 108.207 60.4173 107.768 60.4113 107.319C60.3943 105.873 60.33 104.327 60.2058 102.661C60.1949 102.513 60.1844 102.364 60.1723 102.213C60.1492 101.921 60.1294 101.627 60.1157 101.333C60.0344 99.8137 60.0558 98.2512 60.1464 96.6929C60.1711 96.2552 60.2014 95.8176 60.237 95.3795C60.364 93.8196 60.5496 92.2744 60.7639 90.7929C60.8266 90.3522 60.8925 89.916 60.96 89.4868C61.2176 87.863 61.4946 86.3354 61.7489 84.9699C61.8335 84.5207 61.9143 84.0884 61.9912 83.6767C62.1642 82.7547 62.3143 81.9329 62.4247 81.2369C60.6887 80.3684 59.1917 79.6032 58.3582 79.0481C58.1298 79.3947 56.7848 81.3253 55.0165 81.4691C53.0783 81.6287 51.3577 79.4743 51.3577 79.4743V79.0626C50.6027 79.5615 49.3819 80.2097 47.9662 80.9385Z" fill="white"/>
<path d="M48.5145 84.5628C48.5804 84.9832 48.6463 85.4194 48.7139 85.8674C50.4531 85.9049 52.4952 85.6585 54.9558 85.121C57.5911 84.5471 59.9155 84.6469 61.7477 84.9687C61.8322 84.5195 61.9131 84.0872 61.9899 83.6755C60.0045 83.3289 57.4993 83.2291 54.6465 83.8508C52.2178 84.3803 50.1951 84.6236 48.5145 84.5628Z" fill="#E3E3E3"/>
<path d="M49.3526 90.5309C49.4048 90.9628 49.4537 91.3963 49.4998 91.8283C51.0611 91.7892 52.857 91.5425 54.9561 91.083C57.1365 90.6074 59.1066 90.5959 60.7629 90.7914C60.8256 90.3507 60.8915 89.9145 60.959 89.4853C59.1632 89.2752 57.0261 89.2924 54.6467 89.8116C52.6083 90.2569 50.8557 90.5003 49.3526 90.5309Z" fill="#E3E3E3"/>
<path d="M49.8446 96.4756C49.8599 96.9206 49.866 97.3556 49.8632 97.7776C51.3387 97.7122 53.0181 97.4688 54.9559 97.0453C56.871 96.6279 58.624 96.5682 60.1452 96.6918C60.1699 96.2541 60.2002 95.8164 60.2358 95.3783C58.5993 95.2509 56.7133 95.3232 54.6465 95.7739C52.8276 96.1715 51.2356 96.4079 49.8446 96.4756Z" fill="#E3E3E3"/>
<path d="M49.2441 103.757C50.8653 103.74 52.7404 103.49 54.9559 103.008C56.8957 102.584 58.6697 102.529 60.2052 102.66C60.1942 102.512 60.1837 102.363 60.1716 102.212C60.1485 101.92 60.1287 101.626 60.115 101.332C58.5064 101.217 56.6632 101.295 54.6466 101.736C52.632 102.177 50.8972 102.418 49.4051 102.452C49.3452 102.895 49.2914 103.33 49.2441 103.757Z" fill="#E3E3E3"/>
<path d="M48.9376 109.719C50.6274 109.732 52.5996 109.485 54.9559 108.97C56.9891 108.527 58.8355 108.484 60.415 108.637C60.4178 108.206 60.4166 107.767 60.4105 107.318C58.7344 107.171 56.7885 107.232 54.6465 107.699C52.4204 108.184 50.5356 108.429 48.9424 108.419C48.9343 108.861 48.9327 109.295 48.9376 109.719Z" fill="#E3E3E3"/>
<path d="M49.1946 114.382C49.2375 114.821 49.2848 115.253 49.3341 115.679C50.9338 115.655 52.7814 115.407 54.9558 114.933C56.8632 114.517 58.6085 114.453 60.1209 114.575C60.1605 114.148 60.1961 113.712 60.2297 113.266C58.5931 113.138 56.7104 113.211 54.6464 113.661C52.538 114.121 50.7333 114.366 49.1946 114.382Z" fill="#E3E3E3"/>
<path d="M49.9687 120.318C50.0314 120.75 50.0929 121.18 50.1527 121.611C51.5579 121.528 53.1419 121.291 54.9559 120.895C56.5799 120.54 58.0862 120.442 59.4315 120.494C59.4853 120.067 59.5419 119.632 59.5985 119.188C58.1153 119.124 56.4501 119.229 54.6465 119.623C52.8798 120.008 51.329 120.242 49.9687 120.318Z" fill="#E3E3E3"/>
<path d="M50.5692 126.238C50.5813 126.655 50.5874 127.092 50.589 127.543C51.8838 127.44 53.3286 127.212 54.9554 126.855C56.3881 126.544 57.7286 126.431 58.9466 126.444C58.9482 126.006 58.9604 125.571 58.9818 125.135C57.6595 125.122 56.2041 125.245 54.6457 125.586C53.1357 125.915 51.7811 126.134 50.5692 126.238Z" fill="#E3E3E3"/>
<path d="M50.4251 133.518C51.7612 133.421 53.2582 133.187 54.9558 132.818C56.5539 132.47 58.0387 132.37 59.3699 132.419C59.3485 131.97 59.321 131.53 59.2842 131.103C57.8822 131.065 56.3242 131.181 54.6464 131.546C53.1005 131.884 51.7199 132.106 50.4866 132.206C50.468 132.638 50.4482 133.076 50.4251 133.518Z" fill="#E3E3E3"/>
<path d="M50.0269 139.505C51.4624 139.428 53.088 139.188 54.9558 138.78C56.5446 138.434 58.0202 138.332 59.3441 138.378C59.3639 137.941 59.3809 137.503 59.3931 137.067C57.9636 137.021 56.3687 137.134 54.6465 137.51C52.9505 137.881 51.4519 138.111 50.1296 138.195C50.0956 138.634 50.0621 139.07 50.0269 139.505Z" fill="#E3E3E3"/>
<path d="M49.4874 145.488C51.052 145.45 52.8506 145.202 54.9558 144.742C56.3853 144.431 57.7246 144.316 58.9409 144.331C58.9777 143.906 59.0129 143.468 59.0481 143.022C57.7076 143.003 56.2304 143.125 54.6461 143.471C52.7265 143.89 51.0592 144.129 49.616 144.182C49.5732 144.628 49.5303 145.065 49.4874 145.488Z" fill="#E3E3E3"/>
<path d="M60.3767 149.745C60.5866 149.732 60.7948 149.718 61.0047 149.703C62.2457 142.8 61.5304 132.667 61.2635 129.562C60.9877 126.338 61.5178 122.192 62.7176 118.191C63.6493 115.083 63.0775 107.877 62.6194 102.087C62.4908 100.462 62.3682 98.9269 62.2963 97.6659C62.0617 93.5894 63.6214 86.0458 64.4811 82.265C64.2911 82.1693 64.1026 82.0752 63.9158 81.9807C63.0549 85.7236 61.4382 93.4386 61.6832 97.6977C61.7568 98.9648 61.8794 100.503 62.0079 102.131C62.4629 107.876 63.0298 115.024 62.1289 118.032C60.9093 122.098 60.3714 126.318 60.6533 129.608C60.919 132.718 61.6392 142.914 60.3767 149.745Z" fill="#7846D1"/>
<path d="M47.6643 121.657C48.3938 125.902 48.1637 128.659 47.8972 131.85C47.8115 132.882 47.7225 133.947 47.6598 135.124C47.4653 138.818 46.805 146.256 46.5122 149.473C46.716 149.494 46.9182 149.515 47.122 149.533C47.4148 146.317 48.0768 138.86 48.2725 135.153C48.3339 133.985 48.4225 132.922 48.5086 131.896C48.7767 128.668 49.0097 125.878 48.268 121.564C48.1103 120.638 47.9417 119.699 47.7747 118.764C46.949 114.138 46.0937 109.354 46.4985 107.063C46.5963 106.503 46.7221 105.868 46.8572 105.195C47.4055 102.43 48.0905 98.9883 47.8746 96.0018C47.6598 93.0416 46.3776 85.0267 45.8858 82.0057C45.6958 82.1029 45.5061 82.2016 45.3145 82.3C45.8276 85.4586 47.0549 93.1664 47.2632 96.0408C47.473 98.9531 46.7973 102.355 46.255 105.088C46.12 105.764 45.993 106.401 45.8935 106.967C45.4738 109.354 46.2979 113.971 47.1714 118.861C47.338 119.795 47.505 120.733 47.6643 121.657Z" fill="#7846D1"/>
<path d="M35.604 92.1488C35.604 92.1488 29.3616 111.844 27.8157 118.863C26.2698 125.882 26.1501 140.474 26.1501 140.474C26.1501 140.474 23.4209 145.834 23.3566 148.219C23.2879 150.762 24.6988 152.786 24.5378 154.45C24.3769 156.114 26.5181 155.21 25.9131 151.84C25.3082 148.469 27.0243 145.416 27.7651 145.514C28.506 145.612 27.1521 149.194 27.81 150.485C28.4676 151.776 29.3192 149.268 30.1655 147.747C31.0446 146.167 30.9929 142.72 30.593 140.259C30.193 137.798 34.9077 122.851 34.9303 118.52L40.9005 99.4327C40.9005 99.4327 38.9284 91.4648 35.604 92.1488Z" fill="#FFA681"/>
<path d="M41.6656 98.9533C41.4542 100.219 40.7141 102.392 39.7582 105.126V105.127C39.6769 105.358 39.594 105.592 39.5115 105.832C39.5071 105.841 39.5022 105.853 39.4994 105.865C39.2604 106.545 39.0105 107.256 38.7533 107.993C38.7517 107.997 38.7505 108.002 38.7489 108.006C37.6902 111.047 36.5179 114.526 35.5345 118.101C35.196 119.324 34.8802 120.561 34.6 121.793C34.2413 123.366 33.938 124.934 33.716 126.469C32.9178 132 31.3917 139.004 31.3917 139.004C29.153 139.874 25.6536 138.726 25.6536 138.726C25.6536 138.726 25.563 128.638 26.0628 124.718C26.6803 119.872 27.4664 116.422 28.4405 112.462C31.1219 101.562 35.841 90.897 37.1354 88.0685C37.2381 87.8424 37.3194 87.6668 37.376 87.5451H38.4901C40.6822 88.8639 42.2374 95.5436 41.6656 98.9533Z" fill="#9C78ED"/>
<path d="M25.4712 136.707L25.6467 139.028C25.6467 139.028 28.9739 140.051 31.4681 139.331L32.1277 137.26C29.7261 137.38 27.5073 137.324 25.4712 136.707Z" fill="#6020BD"/>
<path d="M39.7581 105.126V105.127C39.7581 105.16 39.7521 105.194 39.7399 105.227C39.6647 105.423 39.5883 105.624 39.5115 105.831C39.507 105.841 39.5022 105.853 39.4993 105.865C39.2543 106.523 39.0044 107.239 38.7533 107.993C38.7516 107.997 38.7504 108.002 38.7488 108.006C37.4451 111.925 36.1196 116.857 35.5098 120.007C35.5158 119.374 35.5235 118.738 35.5344 118.101C35.196 119.325 34.8801 120.561 34.5999 121.793C34.7257 120.638 35.0751 118.907 35.5514 116.946C36.5138 112.977 37.9906 108.061 39.1641 105.028C39.2223 104.878 39.3987 104.801 39.558 104.856C39.6817 104.9 39.7581 105.008 39.7581 105.126Z" fill="#7846D1"/>
<path d="M151.423 157.212H166.168C166.119 156.244 166.071 155.317 166.024 154.441C165.767 149.664 165.548 146.411 165.548 146.411L153.557 146.915L152.562 146.957L150.798 147.032C150.798 147.032 150.969 149.94 151.233 154.202C151.292 155.144 151.355 156.154 151.423 157.212Z" fill="#18315B"/>
<path d="M152.562 146.957L150.798 147.032C150.798 147.032 150.968 149.94 151.233 154.202C155.84 154.565 160.871 154.713 166.023 154.44C165.766 149.663 165.548 146.411 165.548 146.411L153.556 146.914L152.562 146.957Z" fill="#000B29"/>
<path d="M154.168 157.212C153.898 152.79 153.677 149.013 153.556 146.915L152.562 146.958C152.682 149.045 152.902 152.806 153.171 157.212H154.168Z" fill="#000B29"/>
<path d="M147.097 157.212C147.173 156.014 147.244 154.878 147.309 153.831C147.563 149.772 147.722 147.032 147.722 147.032L145.808 146.951L144.815 146.909L132.97 146.411C132.97 146.411 132.84 148.349 132.662 151.431C132.568 153.073 132.46 155.041 132.351 157.212H147.097V157.212Z" fill="#18315B"/>
<path d="M132.662 151.431C135.877 152.146 141.061 153.15 147.308 153.831C147.562 149.772 147.722 147.031 147.722 147.031L145.807 146.951L144.815 146.908L132.97 146.41C132.97 146.41 132.84 148.349 132.662 151.431Z" fill="#000B29"/>
<path d="M145.198 157.212C145.467 152.801 145.687 149.038 145.807 146.952L144.815 146.909C144.693 149.005 144.472 152.786 144.202 157.212H145.198Z" fill="#000B29"/>
<path d="M167.689 148.585C164.685 149.367 161.682 149.958 158.678 150.354C157.634 150.492 156.59 150.608 155.547 150.699C154.139 150.822 152.732 150.905 151.325 150.947C148.998 151.014 146.672 150.966 144.344 150.803C139.844 150.491 135.345 149.748 130.844 148.585C130.803 144.615 130.866 130.378 131.181 116.647C131.196 116.03 131.21 115.414 131.226 114.801C131.229 114.671 131.233 114.54 131.236 114.41C131.239 114.268 131.243 114.127 131.247 113.986C131.257 113.55 131.269 113.116 131.281 112.684C131.304 111.802 131.328 110.928 131.355 110.062C131.371 109.544 131.388 109.029 131.404 108.519C131.407 108.413 131.411 108.308 131.414 108.202C131.425 107.866 131.436 107.531 131.448 107.198C131.448 107.198 131.448 107.198 131.448 107.197C131.452 107.094 131.455 106.991 131.459 106.888C131.469 106.581 131.48 106.276 131.491 105.975C131.501 105.717 131.51 105.463 131.519 105.209C131.868 95.946 132.377 88.6396 133.107 87.6097C134.345 85.8635 138.559 83.5454 141.949 81.6581C143.156 80.987 144.598 80.2888 145.424 79.7711C146.628 80.6882 147.501 81.5165 149.286 81.4595C151.282 81.3949 151.774 80.2589 152.536 79.2849C153.001 79.5703 154.181 80.4862 154.794 80.8267C155.319 81.1198 155.888 81.4304 156.481 81.7533C157.398 82.2499 158.374 82.7775 159.34 83.3155C160.772 84.1128 162.184 84.9354 163.355 85.7212C164.524 86.5071 165.452 87.2581 165.912 87.9093C166.574 88.8505 167.003 94.9436 167.279 102.963C167.291 103.243 167.299 103.528 167.31 103.814C167.311 103.849 167.311 103.883 167.311 103.919C167.323 104.21 167.332 104.51 167.339 104.808C167.366 105.711 167.392 106.633 167.419 107.57C167.424 107.768 167.429 107.967 167.432 108.166C167.436 108.316 167.441 108.466 167.442 108.613C167.451 108.999 167.46 109.386 167.47 109.776C167.472 109.854 167.473 109.932 167.475 110.011C167.497 111.039 167.518 112.083 167.538 113.135C167.544 113.442 167.549 113.751 167.554 114.06C167.805 128.497 167.747 144.319 167.689 148.585Z" fill="#9C78ED"/>
<path d="M167.553 114.061L162.797 118.626L158.365 114.375L153.935 118.626L149.487 114.358L145.038 118.626L140.56 114.33L136.082 118.626L131.247 113.986C131.257 113.551 131.269 113.117 131.28 112.685C131.304 111.803 131.328 110.928 131.355 110.062L136.082 105.526L140.56 109.823L145.038 105.526L149.487 109.794L153.935 105.526L158.365 109.777L162.797 105.526L167.474 110.012C167.497 111.041 167.518 112.084 167.537 113.136C167.543 113.444 167.548 113.752 167.553 114.061Z" fill="#7846D1"/>
<path d="M159.343 137.589H159.342C152.973 137.563 147.537 134.821 144.098 132.525C140.379 130.042 138.125 127.527 138.103 127.502C137.994 127.379 138.011 127.196 138.14 127.093C138.27 126.99 138.463 127.006 138.572 127.128C138.594 127.153 140.807 129.62 144.466 132.061C147.83 134.304 153.142 136.983 159.345 137.009C159.514 137.01 159.651 137.141 159.65 137.301C159.649 137.46 159.512 137.589 159.343 137.589Z" fill="#7846D1"/>
<path d="M155.37 134.025C149.948 133.017 145.148 129.087 144.93 128.907C144.802 128.801 144.79 128.618 144.901 128.498C145.012 128.377 145.206 128.365 145.333 128.47C145.389 128.517 151.038 133.138 156.794 133.635C156.965 133.649 157.087 133.791 157.072 133.95C157.056 134.11 156.907 134.227 156.739 134.213C156.28 134.173 155.823 134.109 155.37 134.025Z" fill="#7846D1"/>
<path d="M144.51 89.4343C144.366 89.4343 144.237 89.3375 144.209 89.1982C144.178 89.041 144.287 88.8891 144.453 88.8593C152.218 87.4651 154.558 82.7393 154.581 82.6915C154.651 82.5457 154.832 82.4807 154.987 82.5468C155.141 82.6127 155.21 82.7844 155.14 82.9306C155.041 83.136 152.642 87.9797 144.568 89.4293C144.549 89.4324 144.529 89.4343 144.51 89.4343Z" fill="#7846D1"/>
<path d="M135.036 102.156V102.158C135.029 102.19 135.013 102.221 134.994 102.25C134.878 102.427 134.757 102.609 134.636 102.795C134.63 102.806 134.622 102.814 134.618 102.826C134.229 103.42 133.825 104.069 133.408 104.755C133.406 104.76 133.404 104.763 133.4 104.766C132.749 105.845 132.074 107.015 131.414 108.203C131.425 107.867 131.436 107.532 131.448 107.199C131.448 107.199 131.448 107.199 131.448 107.198C131.452 107.095 131.455 106.992 131.459 106.889C132.524 105.018 133.586 103.268 134.477 101.941C134.569 101.805 134.757 101.766 134.901 101.851C135.012 101.92 135.063 102.041 135.036 102.156Z" fill="#7846D1"/>
<path d="M174.163 91.4104C174.163 91.4104 184.093 88.391 187.031 82.2262C187.881 80.4407 180.879 62.3138 180.879 62.3138L177.5 62.4684C177.5 62.4684 178.463 68.7578 179.047 72.319C179.527 75.247 180.302 78.7458 180.564 79.8978C180.621 80.1476 180.653 80.2865 180.653 80.2865C180.487 80.3137 180.321 80.3439 180.152 80.3756C175.513 81.2671 169.59 84.1262 169.59 84.1262L174.163 91.4104Z" fill="#FFA681"/>
<path d="M183.147 82.0243C183.288 82.1214 183.49 82.0924 183.591 81.9581C183.698 81.8219 183.665 81.6333 183.521 81.538C182.799 81.0414 181.709 80.4587 180.564 79.8982C180.621 80.148 180.653 80.2869 180.653 80.2869C180.487 80.3141 180.321 80.3443 180.152 80.3761C181.317 80.9427 182.433 81.5326 183.147 82.0243Z" fill="#F97853"/>
<path d="M158.97 83.1173C158.97 83.1173 155.967 89.7859 163.613 93.4986C168.905 96.0681 180.959 89.3597 180.959 89.3597L176.662 80.7265C176.662 80.7265 165.632 85.0311 158.97 83.1173Z" fill="#9C78ED"/>
<path d="M179.149 52.1223C178.85 52.3208 178.911 53.5455 179.043 54.6991C179.001 54.7048 178.958 54.7117 178.915 54.7189C178.559 53.1794 177.851 50.5609 177.246 51.0606C176.85 51.3877 177.381 53.6458 177.742 54.9959C177.667 55.0178 177.593 55.0399 177.518 55.0629C177.062 53.4598 176.079 50.3719 175.426 50.9722C174.989 51.3728 175.827 54.0919 176.292 55.4788C176.227 55.5029 176.164 55.5262 176.101 55.5496C175.656 54.204 174.706 51.6586 174.055 52.2566C173.466 52.7979 175.155 56.6461 175.155 56.6461L175.597 58.1565C175.597 58.1565 175.071 58.3716 174.25 57.4924C173.428 56.6132 172.446 56.4586 173.128 57.7303C173.899 59.1677 175.041 60.1984 175.543 61.2154C176.045 62.2323 177.626 62.5686 177.626 62.5686L180.799 62.4236C180.799 62.4236 181.414 57.3493 180.231 54.9305C180.028 53.4935 179.67 51.7768 179.149 52.1223Z" fill="#FFA681"/>
<path d="M139.889 63.8247C139.889 68.9384 143.216 72.4621 148.619 72.4621C154.024 72.4621 157.792 68.674 157.792 63.5599C157.792 62.1497 157.549 60.8328 157.081 59.6674C157.053 59.5982 157.026 59.5285 156.996 59.4612C156.938 59.3288 156.879 59.1964 156.815 59.0687C156.72 58.8712 156.615 58.678 156.505 58.4917C155.097 56.0963 152.574 54.5732 149.185 54.5732C142.705 54.5736 139.889 58.7109 139.889 63.8247Z" fill="#18315B"/>
<path d="M141.102 66.0265C141.102 66.0265 139.601 64.1323 138.484 65.6986C137.368 67.265 138.946 71.8913 141.68 70.7619L141.102 66.0265Z" fill="#F97853"/>
<path d="M141.083 69.3325C140.982 69.3325 140.889 69.2694 140.86 69.173C140.437 67.7448 138.873 67.1659 138.857 67.1602C138.738 67.1169 138.678 66.9911 138.723 66.8782C138.769 66.7653 138.902 66.7087 139.021 66.7512C139.094 66.7772 140.818 67.41 141.305 69.0548C141.34 69.1711 141.268 69.2916 141.145 69.3241C141.124 69.3298 141.103 69.3325 141.083 69.3325Z" fill="#EA5143"/>
<path d="M139.504 68.6128C139.461 68.6128 139.418 68.6017 139.379 68.578C139.272 68.5126 139.241 68.3775 139.31 68.2758C139.322 68.2589 139.598 67.8595 140.177 67.6146C140.293 67.5649 140.43 67.6147 140.482 67.7248C140.534 67.835 140.482 67.9643 140.366 68.0133C139.918 68.2027 139.701 68.5095 139.699 68.5126C139.654 68.5776 139.58 68.6128 139.504 68.6128Z" fill="#EA5143"/>
<path d="M156.576 66.0265C156.576 66.0265 158.078 64.1323 159.194 65.6986C160.311 67.265 158.732 71.8913 155.998 70.7619L156.576 66.0265Z" fill="#F97853"/>
<path d="M156.596 69.3325C156.696 69.3325 156.789 69.2694 156.818 69.173C157.242 67.7448 158.806 67.1659 158.821 67.1602C158.94 67.1169 159 66.9911 158.955 66.8782C158.91 66.7653 158.777 66.7087 158.658 66.7512C158.584 66.7772 156.861 67.41 156.373 69.0548C156.338 69.1711 156.41 69.2916 156.533 69.3241C156.554 69.3298 156.575 69.3325 156.596 69.3325Z" fill="#EA5143"/>
<path d="M158.175 68.6128C158.217 68.6128 158.261 68.6017 158.299 68.578C158.407 68.5126 158.438 68.3775 158.369 68.2758C158.357 68.2589 158.08 67.8595 157.502 67.6146C157.386 67.5649 157.248 67.6147 157.196 67.7248C157.144 67.835 157.196 67.9643 157.313 68.0133C157.76 68.2027 157.978 68.5095 157.98 68.5126C158.024 68.5776 158.098 68.6128 158.175 68.6128Z" fill="#EA5143"/>
<path d="M152.536 74.6857V79.2864C152.536 79.2864 151.085 81.6294 149.124 81.789C147.165 81.9508 145.424 79.7715 145.424 79.7715V75.009L152.536 74.6857Z" fill="#FFA681"/>
<path d="M152.536 74.6857V76.7272C151.22 78.1088 148.882 78.4539 145.424 77.9707V75.009L152.536 74.6857Z" fill="#F97853"/>
<path d="M157.662 62.8705C157.572 64.6583 157.392 66.8942 157.031 68.6821C156.941 69.1278 156.84 69.5475 156.726 69.9236C155.703 73.3134 153.144 79.1273 145.978 76.7055C142.813 75.6365 141.346 72.3014 140.693 68.9093C140.249 66.6057 140.182 64.2781 140.215 62.6149C140.249 60.917 141.229 59.3648 142.79 58.5277C147.02 56.2589 151.483 57.1048 154.422 58.1738C156.461 58.9145 157.766 60.8095 157.662 62.8705Z" fill="#FFA681"/>
<path d="M145.767 66.6268C145.767 67.118 145.499 67.5159 145.169 67.5159C144.839 67.5159 144.571 67.118 144.571 66.6268C144.571 66.1355 144.839 65.7376 145.169 65.7376C145.499 65.7376 145.767 66.1359 145.767 66.6268Z" fill="#18315B"/>
<path d="M152.81 66.6088C152.81 67.1001 152.542 67.498 152.212 67.498C151.882 67.498 151.614 67.1001 151.614 66.6088C151.614 66.1176 151.882 65.7197 152.212 65.7197C152.542 65.7193 152.81 66.1176 152.81 66.6088Z" fill="#18315B"/>
<path d="M154.16 63.5526C154.16 63.5526 152.275 62.8475 150.823 63.4409L150.968 64.2046C150.968 64.2046 153.099 64.0339 154.172 64.4456C154.268 64.1521 154.283 63.8549 154.16 63.5526Z" fill="#18315B"/>
<path d="M143.175 63.5526C143.175 63.5526 145.061 62.8475 146.512 63.4409L146.367 64.2046C146.367 64.2046 144.237 64.0339 143.163 64.4456C143.067 64.1521 143.053 63.8549 143.175 63.5526Z" fill="#18315B"/>
<path d="M148.92 70.3536C149.31 70.3536 149.696 70.2101 149.756 70.1868C149.874 70.1413 149.93 70.0139 149.882 69.9018C149.834 69.79 149.699 69.7365 149.581 69.782C149.373 69.862 148.872 69.9878 148.654 69.865C148.613 69.8413 148.555 69.7943 148.541 69.6615C148.457 68.8982 148.678 66.3398 148.68 66.3142C148.691 66.1941 148.596 66.0885 148.469 66.0785C148.341 66.0682 148.231 66.1581 148.22 66.2782C148.211 66.385 147.994 68.9032 148.081 69.7063C148.115 70.0085 148.282 70.1635 148.417 70.24C148.565 70.3241 148.743 70.3536 148.92 70.3536Z" fill="#F97853"/>
<path d="M145.818 71.4635C146.202 72.7245 147.293 73.9825 148.797 74.0001C150.299 73.9829 151.391 72.7245 151.775 71.4635H145.818Z" fill="white"/>
<path d="M148.668 75.3698C149.266 75.3698 149.773 75.0832 149.795 75.071C149.904 75.0086 149.939 74.874 149.873 74.7707C149.807 74.6674 149.664 74.6345 149.555 74.6968C149.552 74.6991 149.134 74.9321 148.668 74.9321C148.241 74.9321 147.832 74.7003 147.828 74.6976C147.719 74.6345 147.577 74.6658 147.51 74.7687C147.443 74.8713 147.476 75.0059 147.585 75.0695C147.606 75.0825 148.104 75.3698 148.668 75.3698Z" fill="#F97853"/>
<path d="M157.418 66.0651H156.371C156.487 65.0707 156.652 63.3192 155.789 63.0682C153.062 62.2755 156.597 60.4517 155.365 59.5423C154.134 58.6309 151.069 59.0216 148.938 58.9561C146.793 58.8903 143.347 58.919 142.511 59.1027C141.672 59.284 142.132 60.6013 142.439 61.622C142.749 62.6405 141.411 63.7684 141.187 64.8243C141.123 65.1274 141.136 65.5773 141.187 66.0651H140.315C140.211 64.7804 140.196 63.5844 140.215 62.6145C140.249 60.9165 141.229 59.3644 142.79 58.5272C147.02 56.2585 151.483 57.1044 154.421 58.1733C156.461 58.914 157.766 60.809 157.663 62.8701C157.613 63.8499 157.536 64.964 157.418 66.0651Z" fill="#18315B"/>
<path d="M145.064 69.2016C143.622 69.2016 142.449 68.0917 142.449 66.7274C142.449 65.3631 143.622 64.2532 145.064 64.2532C146.506 64.2532 147.679 65.3631 147.679 66.7274C147.679 68.0917 146.506 69.2016 145.064 69.2016ZM145.064 64.6388C143.847 64.6388 142.857 65.5758 142.857 66.7274C142.857 67.879 143.847 68.816 145.064 68.816C146.281 68.816 147.272 67.879 147.272 66.7274C147.272 65.5758 146.281 64.6388 145.064 64.6388Z" fill="white"/>
<path d="M152.212 69.2016C150.77 69.2016 149.597 68.0917 149.597 66.7274C149.597 65.3631 150.77 64.2532 152.212 64.2532C153.654 64.2532 154.827 65.3631 154.827 66.7274C154.827 68.0917 153.654 69.2016 152.212 69.2016ZM152.212 64.6388C150.995 64.6388 150.005 65.5758 150.005 66.7274C150.005 67.879 150.995 68.816 152.212 68.816C153.429 68.816 154.42 67.879 154.42 66.7274C154.42 65.5758 153.429 64.6388 152.212 64.6388Z" fill="white"/>
<path d="M142.891 65.9305C142.839 65.9305 142.787 65.9117 142.747 65.8746C142.736 65.8635 141.547 64.7731 139.989 65.1171C139.88 65.1415 139.77 65.0769 139.744 64.9732C139.719 64.8695 139.787 64.7658 139.896 64.7417C141.679 64.3484 142.98 65.5498 143.034 65.6014C143.114 65.6764 143.114 65.7988 143.035 65.8742C142.996 65.9117 142.943 65.9305 142.891 65.9305Z" fill="white"/>
<path d="M154.433 65.9304C154.367 65.9304 154.302 65.8994 154.262 65.8428C154.201 65.7537 154.227 65.6343 154.321 65.5761C154.399 65.5279 156.25 64.3985 157.824 64.6438C157.936 64.661 158.011 64.7604 157.992 64.8653C157.974 64.9701 157.87 65.0413 157.758 65.0241C156.341 64.8033 154.562 65.8876 154.544 65.8987C154.51 65.9205 154.472 65.9304 154.433 65.9304Z" fill="white"/>
<path d="M149.741 66.1719C149.736 66.1658 149.252 65.5464 148.615 65.5464C147.984 65.5464 147.547 66.165 147.543 66.1711L147.201 65.9603C147.224 65.9278 147.761 65.1607 148.615 65.1607C149.462 65.1607 150.047 65.9144 150.071 65.9466L149.741 66.1719Z" fill="white"/>
<path d="M134.175 101.792C134.175 101.792 131.42 106.84 128.176 110.837C127.219 112.017 126.22 113.104 125.236 113.944C123.641 115.307 122.086 116.02 120.819 115.415C116.121 113.174 105.646 95.3393 105.646 95.3393L108.226 92.4446C108.226 92.4446 112.888 97.5381 116.297 100.586C119.441 103.397 121.859 105.498 121.859 105.498C122.294 104.872 122.758 104.185 123.24 103.458C123.752 102.687 124.284 101.87 124.826 101.03C128.751 94.9318 133.108 87.6109 133.108 87.6109L134.175 101.792Z" fill="#FFA681"/>
<path d="M128.176 110.837C127.219 112.017 126.22 113.104 125.236 113.944L123.24 103.458C123.752 102.687 124.284 101.87 124.826 101.03L128.176 110.837Z" fill="#F97853"/>
<path d="M133.107 87.6109L123.691 101.621L126.851 113.944L134.643 101.941C134.643 101.941 135.588 93.729 133.107 87.6109Z" fill="#9C78ED"/>
<path d="M121.268 157.212C120.595 153.686 119.932 149.709 119.33 145.848C119.198 144.994 119.069 144.147 118.941 143.312C118.458 140.114 118.026 137.091 117.68 134.582C117.547 133.629 117.429 132.749 117.321 131.964C116.985 129.459 116.788 127.904 116.788 127.904L101.919 128.436L87.0048 127.904C87.0048 127.904 86.6203 130.982 86.0048 135.444C85.8924 136.257 85.7723 137.113 85.6461 138.008C85.3149 140.35 84.9364 142.936 84.5292 145.584C84.5232 145.623 84.5171 145.662 84.511 145.7C84.3833 146.526 84.2543 147.357 84.1204 148.188C84.1188 148.199 84.1176 148.209 84.1143 148.221V148.222C83.7953 150.23 83.4609 152.236 83.1208 154.165C82.9809 154.962 82.8398 155.744 82.6966 156.506C82.6525 156.743 82.608 156.978 82.564 157.211H121.268V157.212Z" fill="#9C78ED"/>
<path d="M90.4322 132.129C90.4322 132.861 89.805 133.455 89.0311 133.455C88.2571 133.455 87.6295 132.861 87.6295 132.129C87.6295 131.397 88.2571 130.803 89.0311 130.803C89.805 130.803 90.4322 131.397 90.4322 132.129Z" fill="#7846D1"/>
<path d="M93.9101 137.266C93.9101 137.998 93.2825 138.591 92.5089 138.591C91.7349 138.591 91.1073 137.998 91.1073 137.266C91.1073 136.534 91.7349 135.94 92.5089 135.94C93.2825 135.94 93.9101 136.534 93.9101 137.266Z" fill="#7846D1"/>
<path d="M100.752 134.614C100.752 135.346 100.124 135.94 99.3504 135.94C98.5764 135.94 97.9492 135.346 97.9492 134.614C97.9492 133.882 98.5764 133.288 99.3504 133.288C100.124 133.288 100.752 133.882 100.752 134.614Z" fill="#7846D1"/>
<path d="M89.9536 142.721C89.9536 143.453 89.326 144.047 88.5524 144.047C87.7785 144.047 87.1513 143.453 87.1513 142.721C87.1513 141.989 87.7785 141.395 88.5524 141.395C89.326 141.395 89.9536 141.989 89.9536 142.721Z" fill="#7846D1"/>
<path d="M98.5028 142.154C98.5028 142.886 97.8756 143.479 97.1017 143.479C96.3277 143.479 95.7005 142.886 95.7005 142.154C95.7005 141.422 96.3281 140.828 97.1017 140.828C97.8752 140.828 98.5028 141.422 98.5028 142.154Z" fill="#7846D1"/>
<path d="M86.9171 136.688C86.9171 137.378 86.3611 137.946 85.647 138.008C85.7731 137.114 85.8932 136.257 86.0057 135.445C86.539 135.633 86.9171 136.117 86.9171 136.688Z" fill="#7846D1"/>
<path d="M112.435 149.943C112.435 150.676 111.808 151.269 111.034 151.269C110.26 151.269 109.632 150.675 109.632 149.943C109.632 149.211 110.26 148.617 111.034 148.617C111.807 148.617 112.435 149.211 112.435 149.943Z" fill="#7846D1"/>
<path d="M111.773 142.721C111.773 143.453 111.145 144.047 110.372 144.047C109.598 144.047 108.971 143.453 108.971 142.721C108.971 141.989 109.598 141.395 110.372 141.395C111.145 141.395 111.773 141.989 111.773 142.721Z" fill="#7846D1"/>
<path d="M119.33 145.847C119.161 145.915 118.974 145.952 118.78 145.952C118.006 145.952 117.379 145.358 117.379 144.627C117.379 143.895 118.006 143.301 118.78 143.301C118.834 143.301 118.888 143.304 118.941 143.311C119.069 144.147 119.198 144.993 119.33 145.847Z" fill="#7846D1"/>
<path d="M113.174 155.237C113.174 155.969 112.547 156.562 111.773 156.562C110.999 156.562 110.372 155.969 110.372 155.237C110.372 154.504 110.999 153.911 111.773 153.911C112.547 153.911 113.174 154.504 113.174 155.237Z" fill="#7846D1"/>
<path d="M119.168 153.12C119.168 153.852 118.541 154.446 117.767 154.446C116.993 154.446 116.365 153.852 116.365 153.12C116.365 152.388 116.993 151.794 117.767 151.794C118.541 151.794 119.168 152.388 119.168 153.12Z" fill="#7846D1"/>
<path d="M106.695 157.212C106.444 156.863 106.021 156.634 105.541 156.634C105.06 156.634 104.638 156.863 104.386 157.212H106.695Z" fill="#7846D1"/>
<path d="M89.0311 151.097C89.0311 151.829 88.4035 152.422 87.6296 152.422C86.8556 152.422 86.2284 151.829 86.2284 151.097C86.2284 150.364 86.8556 149.77 87.6296 149.77C88.4039 149.77 89.0311 150.364 89.0311 151.097Z" fill="#7846D1"/>
<path d="M85.3341 146.908C85.3341 147.581 84.8039 148.138 84.1153 148.221C84.1185 148.209 84.1197 148.2 84.1213 148.188C84.2552 147.357 84.3842 146.526 84.512 145.701C84.9964 145.911 85.3341 146.372 85.3341 146.908Z" fill="#7846D1"/>
<path d="M83.6958 155.235C83.6958 155.835 83.2749 156.341 82.6974 156.506C82.8401 155.745 82.9817 154.962 83.1216 154.166C83.4694 154.407 83.6958 154.797 83.6958 155.235Z" fill="#7846D1"/>
<path d="M92.5087 155.797C92.5087 156.529 91.8811 157.123 91.1071 157.123C90.3332 157.123 89.706 156.529 89.706 155.797C89.706 155.064 90.3336 154.471 91.1071 154.471C91.8811 154.471 92.5087 155.064 92.5087 155.797Z" fill="#7846D1"/>
<path d="M99.9039 154.758C99.9039 155.491 99.2763 156.084 98.5028 156.084C97.7292 156.084 97.1016 155.491 97.1016 154.758C97.1016 154.026 97.7288 153.433 98.5028 153.433C99.2767 153.433 99.9039 154.026 99.9039 154.758Z" fill="#7846D1"/>
<path d="M94.6282 148.239C94.6282 148.972 94.0007 149.565 93.2267 149.565C92.4527 149.565 91.8255 148.972 91.8255 148.239C91.8255 147.507 92.4527 146.914 93.2267 146.914C94.0007 146.914 94.6282 147.507 94.6282 148.239Z" fill="#7846D1"/>
<path d="M102.153 146.914C102.153 147.646 101.526 148.239 100.752 148.239C99.9781 148.239 99.3509 147.646 99.3509 146.914C99.3509 146.181 99.9785 145.588 100.752 145.588C101.526 145.588 102.153 146.181 102.153 146.914Z" fill="#7846D1"/>
<path d="M105.541 139.918C105.541 140.65 104.913 141.243 104.139 141.243C103.365 141.243 102.738 140.649 102.738 139.918C102.738 139.185 103.365 138.591 104.139 138.591C104.913 138.591 105.541 139.185 105.541 139.918Z" fill="#7846D1"/>
<path d="M117.68 134.582C117.583 134.603 117.482 134.614 117.379 134.614C116.604 134.614 115.978 134.02 115.978 133.288C115.978 132.575 116.573 131.991 117.321 131.964C117.429 132.749 117.548 133.629 117.68 134.582Z" fill="#7846D1"/>
<path d="M110.371 134.614C110.371 135.346 109.744 135.94 108.97 135.94C108.196 135.94 107.569 135.346 107.569 134.614C107.569 133.882 108.196 133.288 108.97 133.288C109.744 133.288 110.371 133.882 110.371 134.614Z" fill="#7846D1"/>
<path d="M115.504 139.339C115.504 140.071 114.877 140.665 114.103 140.665C113.329 140.665 112.702 140.071 112.702 139.339C112.702 138.607 113.329 138.013 114.103 138.013C114.876 138.013 115.504 138.607 115.504 139.339Z" fill="#7846D1"/>
<path d="M106.942 151.097C106.942 151.829 106.314 152.422 105.541 152.422C104.767 152.422 104.14 151.829 104.14 151.097C104.14 150.364 104.767 149.77 105.541 149.77C106.315 149.77 106.942 150.364 106.942 151.097Z" fill="#7846D1"/>
<path d="M117.692 128.252C109.848 133.097 95.4465 132.717 86.3961 128.252C87.2607 123.157 88.399 118.056 88.1543 111.275C88.1269 110.531 88.0937 109.793 88.0541 109.061C88.0193 108.424 87.9797 107.791 87.9372 107.166C87.1559 95.8841 85.1215 86.6602 86.1211 85.4684C86.5575 84.9465 87.2849 84.383 88.1831 83.8064C88.5357 83.5791 88.9126 83.3492 89.3105 83.1193C90.2494 82.5771 91.2935 82.0308 92.3417 81.499C94.829 80.2425 97.3543 79.0764 98.6204 78.2802C99.8756 78.7979 100.875 79.081 101.953 79.0752C101.982 79.0752 102.014 79.0752 102.045 79.0722C102.075 79.0752 102.106 79.0752 102.135 79.0752C103.213 79.081 104.213 78.7979 105.469 78.2802C106.644 79.0194 108.854 80.0501 111.111 81.1742C112.769 82.0009 114.451 82.8778 115.76 83.7287C116.617 84.285 117.318 84.8314 117.746 85.3433C118.242 85.934 118.033 88.5249 117.61 92.3635C117.19 96.1401 116.563 101.128 116.183 106.609C116.078 108.132 115.992 109.692 115.934 111.275C115.691 118.056 116.827 123.157 117.692 128.252Z" fill="#6020BD"/>
<path d="M112.895 122.617H112.894C106.578 122.591 101.187 119.872 97.7762 117.595C94.0879 115.133 91.8525 112.638 91.8302 112.613C91.7222 112.492 91.7388 112.31 91.867 112.208C91.9956 112.106 92.1873 112.121 92.2953 112.243C92.3171 112.267 94.5116 114.715 98.1401 117.134C101.476 119.359 106.745 122.016 112.896 122.042C113.064 122.043 113.199 122.172 113.199 122.331C113.199 122.49 113.062 122.617 112.895 122.617Z" fill="#9C78ED"/>
<path d="M108.714 119.139C103.336 118.138 98.5751 114.241 98.3592 114.062C98.233 113.957 98.2201 113.776 98.3305 113.657C98.4409 113.537 98.633 113.526 98.7595 113.63C98.8153 113.676 104.418 118.259 110.126 118.752C110.296 118.765 110.416 118.907 110.401 119.064C110.386 119.222 110.238 119.339 110.071 119.324C109.615 119.285 109.162 119.222 108.714 119.139Z" fill="#9C78ED"/>
<path d="M100.752 92.8134C100.609 92.8134 100.481 92.7174 100.453 92.5793C100.422 92.4232 100.531 92.2728 100.695 92.243C108.396 90.8603 110.717 86.1731 110.739 86.126C110.809 85.9814 110.989 85.9172 111.142 85.9826C111.295 86.048 111.363 86.2183 111.293 86.3629C111.196 86.5668 108.817 91.3703 100.809 92.8077C100.789 92.8115 100.77 92.8134 100.752 92.8134Z" fill="#9C78ED"/>
<path d="M111.111 81.1745C109.582 84.4732 105.825 87.889 100.938 87.0902C96.2061 86.3162 93.9618 83.9483 92.3423 81.499C94.83 80.2421 97.3558 79.0775 98.6206 78.2806C99.8758 78.7975 100.876 79.0806 101.952 79.076C101.981 79.076 102.014 79.076 102.045 79.0729C102.074 79.076 102.107 79.076 102.136 79.076C103.212 79.0806 104.212 78.7975 105.47 78.2806C106.644 79.019 108.855 80.0497 111.111 81.1745Z" fill="#FFA681"/>
<path d="M107.026 78.522C106.891 78.5205 106.783 78.623 106.782 78.7493C106.781 78.9348 106.7 83.2948 102.564 83.6327C98.7266 83.9483 97.1382 80.4728 96.6477 79.0312C96.619 78.9467 96.5361 78.89 96.4423 78.89H96.397C96.2494 78.89 96.145 79.0262 96.1915 79.1586C96.7152 80.6461 98.3877 84.2383 102.297 84.1063C102.398 84.1029 102.501 84.0968 102.605 84.0883C107.184 83.7145 107.265 78.8017 107.266 78.7519C107.267 78.6257 107.159 78.5228 107.026 78.522Z" fill="white"/>
<path d="M109.95 55.3461C109.95 55.3461 113.647 60.7644 113.242 66.408C112.837 72.0516 113.787 78.5664 108.45 78.2803C103.112 77.9941 93.5916 80.3049 90.5657 75.9093C87.5397 71.5141 109.95 55.3461 109.95 55.3461Z" fill="#18315B"/>
<path d="M111.32 65.3088C111.32 65.3088 112.28 73.4894 108.177 75.7417C104.074 77.9941 101.105 75.4793 101.105 75.4793C101.105 75.4793 109.753 64.0768 111.32 65.3088Z" fill="#000B29"/>
<path d="M94.2781 65.2709C94.2781 65.2709 92.8049 63.4127 91.7095 64.9492C90.614 66.486 92.1628 71.0248 94.8446 69.9168L94.2781 65.2709Z" fill="#F97853"/>
<path d="M94.2591 68.5142C94.16 68.5142 94.069 68.4522 94.0407 68.3577C93.625 66.9563 92.0908 66.3885 92.075 66.3827C91.9582 66.3407 91.8995 66.2167 91.9436 66.1061C91.9881 65.9956 92.1187 65.9397 92.2356 65.9814C92.3071 66.007 93.9982 66.628 94.477 68.2418C94.5106 68.3558 94.4406 68.474 94.3201 68.5061C94.2999 68.5115 94.2793 68.5142 94.2591 68.5142Z" fill="#EA5143"/>
<path d="M92.7099 67.8083C92.6679 67.8083 92.6254 67.7972 92.5874 67.7742C92.4823 67.71 92.452 67.5776 92.5195 67.4777C92.5308 67.4613 92.8021 67.0695 93.3703 66.8289C93.4839 66.7803 93.6186 66.8289 93.6695 66.9371C93.7205 67.045 93.6695 67.172 93.5551 67.2202C93.1159 67.4062 92.9024 67.7069 92.9004 67.71C92.8575 67.7739 92.7847 67.8083 92.7099 67.8083Z" fill="#EA5143"/>
<path d="M109.46 65.2709C109.46 65.2709 110.933 63.4127 112.029 64.9492C113.124 66.486 111.576 71.0248 108.894 69.9168L109.46 65.2709Z" fill="#F97853"/>
<path d="M109.479 68.5142C109.578 68.5142 109.669 68.4522 109.697 68.3577C110.113 66.9563 111.647 66.3885 111.663 66.3827C111.78 66.3407 111.839 66.2167 111.794 66.1061C111.75 65.9956 111.619 65.9397 111.503 65.9814C111.431 66.007 109.74 66.628 109.261 68.2418C109.228 68.3558 109.297 68.474 109.418 68.5061C109.439 68.5115 109.459 68.5142 109.479 68.5142Z" fill="#EA5143"/>
<path d="M111.028 67.8083C111.07 67.8083 111.113 67.7972 111.151 67.7742C111.256 67.71 111.286 67.5776 111.219 67.4777C111.207 67.4613 110.936 67.0695 110.368 66.8289C110.254 66.7803 110.12 66.8289 110.069 66.9371C110.018 67.045 110.069 67.172 110.183 67.2202C110.622 67.4062 110.836 67.7069 110.838 67.71C110.881 67.7739 110.954 67.8083 111.028 67.8083Z" fill="#EA5143"/>
<path d="M105.495 73.7668V78.2806C105.495 78.2806 104.072 80.5792 102.148 80.7361C100.226 80.8949 98.5184 78.757 98.5184 78.757V74.0843L105.495 73.7668Z" fill="#FFA681"/>
<path d="M105.495 73.7668V75.7697C104.204 77.1252 101.912 77.6053 98.5188 77.1317L98.5184 74.0843L105.495 73.7668Z" fill="#F97853"/>
<path d="M110.525 62.1742C110.437 63.9284 110.26 66.1218 109.907 67.876C109.818 68.3133 109.719 68.725 109.607 69.0942C108.603 72.4201 106.092 78.1241 99.0617 75.7482C95.9565 74.6995 94.5174 71.4272 93.876 68.0994C93.4409 65.8391 93.375 63.5554 93.4069 61.9236C93.4409 60.2574 94.4017 58.7351 95.9339 57.9136C100.084 55.6877 104.463 56.5176 107.345 57.5662C109.347 58.2932 110.627 60.1522 110.525 62.1742Z" fill="#FFA681"/>
<path d="M98.7732 65.5357C98.7732 66.0174 98.5108 66.4084 98.1869 66.4084C97.863 66.4084 97.6005 66.0178 97.6005 65.5357C97.6005 65.054 97.863 64.6634 98.1869 64.6634C98.5104 64.6634 98.7732 65.054 98.7732 65.5357Z" fill="#18315B"/>
<path d="M106.012 65.5357C106.012 66.0174 105.75 66.4084 105.426 66.4084C105.102 66.4084 104.84 66.0178 104.84 65.5357C104.84 65.054 105.102 64.6634 105.426 64.6634C105.75 64.6634 106.012 65.054 106.012 65.5357Z" fill="#18315B"/>
<path d="M97.0254 62.9383C97.5123 62.8082 98.4958 62.5855 99.5334 62.5828C99.8063 62.5821 100.015 62.8116 99.9673 63.066L99.9661 63.0725C99.9277 63.2757 99.7356 63.4192 99.5176 63.4096C98.8116 63.3786 96.9587 63.4724 96.0837 63.8079C96.0659 63.664 96.1556 63.5064 96.283 63.3668C96.4763 63.1544 96.7408 63.0144 97.0254 62.9383Z" fill="#18315B"/>
<path d="M106.498 62.9562C106.011 62.8261 105.028 62.6034 103.99 62.6008C103.717 62.6 103.508 62.8296 103.556 63.084L103.557 63.0905C103.596 63.2936 103.788 63.4371 104.005 63.4276C104.711 63.3966 106.564 63.4903 107.439 63.8258C107.457 63.682 107.367 63.5244 107.24 63.3843C107.047 63.172 106.782 63.032 106.498 62.9562Z" fill="#18315B"/>
<path d="M101.948 69.5162C101.774 69.5162 101.6 69.4871 101.455 69.4049C101.323 69.3299 101.158 69.178 101.125 68.8815C101.039 68.0933 101.252 65.6229 101.262 65.5181C101.272 65.3999 101.381 65.3123 101.506 65.3218C101.631 65.3314 101.724 65.4351 101.714 65.5533C101.711 65.5785 101.495 68.0887 101.577 68.8375C101.591 68.9676 101.647 69.0138 101.688 69.0372C101.901 69.1577 102.393 69.0345 102.597 68.9561C102.713 68.9109 102.846 68.9641 102.893 69.0735C102.94 69.183 102.884 69.3081 102.768 69.3528C102.709 69.3754 102.33 69.5162 101.948 69.5162Z" fill="#F97853"/>
<path d="M99.0696 70.8702C99.241 71.6859 99.8104 73.1864 101.729 73.1864C103.652 73.1864 104.191 71.8152 104.377 70.8702H99.0696Z" fill="white"/>
<path d="M101.702 74.4378C101.148 74.4378 100.659 74.1558 100.639 74.1436C100.532 74.0812 100.499 73.9492 100.565 73.8486C100.631 73.748 100.77 73.717 100.876 73.7786C100.88 73.7809 101.279 74.0089 101.702 74.0089C102.159 74.0089 102.568 73.7798 102.572 73.7775C102.68 73.7166 102.819 73.7492 102.883 73.8505C102.948 73.9515 102.914 74.0832 102.807 74.1444C102.785 74.1566 102.288 74.4378 101.702 74.4378Z" fill="#F97853"/>
<path d="M111.438 61.8249C111.366 62.0204 111.163 62.1455 110.893 62.2201C110.913 62.693 110.86 63.2619 110.811 63.8071C110.531 66.9065 109.705 67.4505 109.518 66.6842C109.395 66.1753 109.402 63.2565 109.462 62.3046C108.814 62.2645 108.261 62.1623 108.261 62.1623L107.501 59.1532L107.235 62.1248C106.096 62.5002 103.437 61.8991 103.437 61.8991L102.544 58.9332L101.993 61.787C100.284 62.5748 98.1469 62.0502 98.1469 62.0502L97.656 58.9723L96.5225 62.0502C96.5225 62.0502 92.8758 63.2879 92.8362 62.0502C92.812 61.3298 93.3696 59.3013 93.8407 57.73C94.3542 56.0163 95.5439 54.5686 97.1533 53.7522C101.677 51.4547 106.46 52.6767 108.101 53.6041C111.581 55.5695 111.438 61.8249 111.438 61.8249Z" fill="#18315B"/>
<path d="M94.8447 55.5752C94.8447 55.5752 91.8426 58.9535 90.8547 64.9874C89.8668 71.0213 88.4992 75.4792 92.3424 77.4718C96.5018 79.6281 96.1415 75.2057 96.0816 74.0036C96.0218 72.8015 92.4839 69.5161 94.8447 60.2627C95.6069 57.2754 94.8447 55.5752 94.8447 55.5752Z" fill="#18315B"/>
<path d="M94.1431 68.0439C94.1431 68.0439 94.1431 68.047 94.1431 68.0512C94.1448 68.096 94.1476 68.3359 94.1658 68.7112C94.1751 68.9442 94.19 69.2273 94.2127 69.5494C94.3542 71.5822 94.7719 75.0932 95.9996 76.3106C96.4845 76.7923 97.419 77.0337 98.5189 77.1317V75.5344C97.3596 75.014 96.4554 74.1586 95.755 73.106C95.3219 72.2188 94.5758 70.8304 94.2264 68.6465L94.1431 68.0439Z" fill="#000B29"/>
<path d="M110.58 70.0189C110.58 70.2963 110.342 70.5212 110.049 70.5212C109.756 70.5212 109.518 70.2963 109.518 70.0189C109.518 69.7415 109.756 69.5165 110.049 69.5165C110.342 69.5165 110.58 69.7411 110.58 70.0189Z" fill="white"/>
<path d="M121.401 107.865C119.897 111.939 113.161 111.643 105.489 109.416C105.478 109.413 105.467 109.409 105.456 109.406C105.432 109.4 105.409 109.392 105.384 109.385L104.329 109.067C104.183 109.022 104.037 108.976 103.891 108.929C103.064 108.667 102.232 108.384 101.396 108.083C98.6543 107.098 95.892 105.931 93.287 104.686L93.3052 104.643L94.0897 102.715L94.3574 102.059C94.3574 102.059 108.58 103.525 115.731 102.11C115.852 102.086 115.971 102.063 116.087 102.037C116.059 101.887 116.05 101.734 116.005 101.59C112.216 89.3857 116.36 87.0458 117.747 85.3436C117.747 85.3429 124.24 100.174 121.401 107.865Z" fill="#6020BD"/>
<path d="M119.083 104.088C119.041 104.107 118.996 104.117 118.951 104.117C118.839 104.117 118.73 104.057 118.678 103.956C118.136 102.906 116.296 102.281 115.731 102.11C115.853 102.086 115.971 102.063 116.087 102.037C116.059 101.887 116.032 101.738 116.006 101.59C116.724 101.815 118.601 102.5 119.223 103.705C119.296 103.846 119.234 104.018 119.083 104.088Z" fill="#9C78ED"/>
<path d="M99.163 103.576C96.2604 103.576 93.9033 103.418 93.6979 103.404C93.5308 103.393 93.4055 103.255 93.4176 103.097C93.4298 102.939 93.5749 102.822 93.7423 102.832C93.8495 102.84 104.518 103.554 108.724 101.939C108.879 101.88 109.056 101.95 109.12 102.097C109.182 102.244 109.108 102.411 108.953 102.471C106.624 103.365 102.527 103.576 99.163 103.576Z" fill="#9C78ED"/>
<path d="M104.329 109.066C104.33 109.066 104.33 109.066 104.33 109.066C106.764 108.431 108.977 107.813 110.254 107.425C112.028 106.887 113.496 105.191 114.163 103.748C114.23 103.603 114.408 103.537 114.562 103.601C114.716 103.664 114.785 103.833 114.719 103.979C113.997 105.538 112.394 107.378 110.439 107.972C109.512 108.253 108.096 108.655 106.459 109.097C105.762 109.286 105.02 109.275 104.329 109.066Z" fill="#9C78ED"/>
<path d="M110.89 107.094C88.9097 114.098 82.1477 109.514 82.1477 109.514C80.6681 96.8532 86.1211 85.468 86.1211 85.468C87.7321 87.9812 89.5538 92.368 89.5538 92.368L90.0351 102.073L89.9987 102.343L89.9813 102.47L89.8903 103.133L89.8883 103.147C89.9348 103.156 89.9821 103.166 90.0298 103.176C96.6786 104.503 108.838 103.02 108.838 103.02L110.89 107.094Z" fill="#6020BD"/>
<path d="M90.0296 103.176C88.8427 104.117 87.7157 105.201 86.7113 106.447C86.6102 106.573 86.4193 106.598 86.2859 106.502C86.1524 106.406 86.1273 106.226 86.2272 106.1C86.2284 106.1 86.2284 106.099 86.2284 106.099C87.3575 104.696 88.6369 103.495 89.9815 102.47L89.8905 103.133L89.8884 103.147C89.9345 103.156 89.9819 103.166 90.0296 103.176Z" fill="#9C78ED"/>
<path d="M108.838 103.02C108.838 103.02 111.272 97.7897 114.971 98.2554L116.087 102.037C114.062 102.851 113.765 106.136 110.89 107.094L108.838 103.02Z" fill="#FFA681"/>
<path d="M94.3581 102.059C94.3581 102.059 92.8215 98.646 88.7769 97.6555C84.7323 96.6645 82.1556 98.4681 81.8843 99.1483C81.613 99.829 83.4096 99.1786 83.4096 99.1786C83.4096 99.1786 82.2393 99.4919 81.5681 100.533C80.8968 101.573 83.2022 100.45 83.2022 100.45C83.2022 100.45 81.5491 101.136 81.3388 101.771C81.1285 102.407 83.3089 101.333 83.7186 101.354C83.7186 101.354 81.7715 102.086 81.7848 102.742C81.7982 103.397 84.0214 102.328 85.6814 102.413C87.3418 102.497 89.8873 103.148 89.8873 103.148C91.246 103.392 92.5445 103.574 93.7192 103.625L94.3581 102.059Z" fill="#FFA681"/>
<path d="M133.413 48.9953C131.916 48.9953 130.698 47.8429 130.698 46.4266C130.698 45.0102 131.916 43.8578 133.413 43.8578C134.91 43.8578 136.127 45.0102 136.127 46.4266C136.127 47.8429 134.91 48.9953 133.413 48.9953ZM133.413 44.664C132.385 44.664 131.549 45.4548 131.549 46.427C131.549 47.3991 132.385 48.1896 133.413 48.1896C134.44 48.1896 135.275 47.3988 135.275 46.427C135.276 45.4548 134.44 44.664 133.413 44.664Z" fill="#9C78ED"/>
<path d="M157.099 44.6315C155.602 44.6315 154.384 43.4791 154.384 42.0627C154.384 40.6464 155.602 39.494 157.099 39.494C158.596 39.494 159.814 40.6464 159.814 42.0627C159.814 43.4791 158.596 44.6315 157.099 44.6315ZM157.099 40.3001C156.071 40.3001 155.236 41.091 155.236 42.0631C155.236 43.0353 156.071 43.8261 157.099 43.8261C158.126 43.8261 158.962 43.0353 158.962 42.0631C158.962 41.0906 158.126 40.3001 157.099 40.3001Z" fill="#6020BD"/>
<path d="M160.453 52.9785C160.218 52.9785 160.027 52.7983 160.027 52.5756V50.7989C160.027 50.5762 160.218 50.396 160.453 50.396C160.688 50.396 160.879 50.5762 160.879 50.7989V52.5756C160.879 52.7979 160.688 52.9785 160.453 52.9785Z" fill="#9C78ED"/>
<path d="M160.453 56.0878C160.218 56.0878 160.027 55.9076 160.027 55.6849V53.9082C160.027 53.6855 160.218 53.5053 160.453 53.5053C160.688 53.5053 160.879 53.6855 160.879 53.9082V55.6849C160.879 55.9076 160.688 56.0878 160.453 56.0878Z" fill="#9C78ED"/>
<path d="M163.089 53.6446H161.402C161.167 53.6446 160.976 53.4644 160.976 53.2417C160.976 53.0191 161.167 52.8389 161.402 52.8389H163.089C163.324 52.8389 163.515 53.0191 163.515 53.2417C163.515 53.4644 163.324 53.6446 163.089 53.6446Z" fill="#9C78ED"/>
<path d="M159.504 53.6446H157.817C157.582 53.6446 157.391 53.4644 157.391 53.2417C157.391 53.0191 157.582 52.8389 157.817 52.8389H159.504C159.739 52.8389 159.93 53.0191 159.93 53.2417C159.93 53.4644 159.739 53.6446 159.504 53.6446Z" fill="#9C78ED"/>
<path d="M146.113 42.2143C145.878 42.2143 145.687 42.0337 145.687 41.8114V40.0346C145.687 39.812 145.878 39.6318 146.113 39.6318C146.348 39.6318 146.539 39.812 146.539 40.0346V41.8114C146.539 42.0337 146.349 42.2143 146.113 42.2143Z" fill="#D1B8F4"/>
<path d="M146.113 45.3236C145.878 45.3236 145.687 45.1434 145.687 44.9207V43.144C145.687 42.9213 145.878 42.7411 146.113 42.7411C146.348 42.7411 146.539 42.9213 146.539 43.144V44.9207C146.539 45.1434 146.349 45.3236 146.113 45.3236Z" fill="#D1B8F4"/>
<path d="M148.75 42.8808H147.063C146.828 42.8808 146.637 42.7002 146.637 42.4779C146.637 42.2552 146.828 42.075 147.063 42.075H148.75C148.985 42.075 149.175 42.2552 149.175 42.4779C149.175 42.7002 148.985 42.8808 148.75 42.8808Z" fill="#D1B8F4"/>
<path d="M145.164 42.8808H143.477C143.242 42.8808 143.051 42.7002 143.051 42.4779C143.051 42.2552 143.242 42.075 143.477 42.075H145.164C145.4 42.075 145.59 42.2552 145.59 42.4779C145.59 42.7002 145.4 42.8808 145.164 42.8808Z" fill="#D1B8F4"/>
<path d="M36.3754 39.9092C36.3754 38.4928 37.5934 37.3405 39.0904 37.3405C40.5874 37.3405 41.8054 38.4928 41.8054 39.9092C41.8054 41.3255 40.5874 42.4779 39.0904 42.4779C37.5934 42.4775 36.3754 41.3255 36.3754 39.9092ZM37.2274 39.9092C37.2274 40.8814 38.0633 41.6718 39.0904 41.6718C40.1179 41.6718 40.9534 40.881 40.9534 39.9092C40.9534 38.937 40.1175 38.1462 39.0904 38.1462C38.0633 38.1462 37.2274 38.937 37.2274 39.9092Z" fill="#9C78ED"/>
<path d="M25.4731 49.6997C25.4731 48.2834 26.6911 47.131 28.1881 47.131C29.6851 47.131 30.9031 48.2834 30.9031 49.6997C30.9031 51.1161 29.6851 52.2684 28.1881 52.2684C26.6907 52.2684 25.4731 51.1161 25.4731 49.6997ZM26.3247 49.6997C26.3247 50.6719 27.1606 51.4623 28.1881 51.4623C29.2156 51.4623 30.0511 50.6715 30.0511 49.6997C30.0511 48.7275 29.2152 47.9367 28.1881 47.9367C27.1606 47.9367 26.3247 48.7275 26.3247 49.6997Z" fill="#6020BD"/>
<path d="M19.8282 53.3041C20.0636 53.3041 20.2541 53.1239 20.2541 52.9012V51.1245C20.2541 50.9018 20.0632 50.7216 19.8282 50.7216C19.5933 50.7216 19.4024 50.9018 19.4024 51.1245V52.9012C19.4024 53.1239 19.5933 53.3041 19.8282 53.3041Z" fill="#9C78ED"/>
<path d="M19.8282 56.4139C20.0636 56.4139 20.254 56.2337 20.254 56.011V54.2342C20.254 54.0116 20.0632 53.8314 19.8282 53.8314C19.5933 53.8314 19.4024 54.0116 19.4024 54.2342V56.011C19.4024 56.2333 19.5933 56.4139 19.8282 56.4139Z" fill="#9C78ED"/>
<path d="M17.1922 53.9706H18.8792C19.1146 53.9706 19.305 53.79 19.305 53.5677C19.305 53.3451 19.1142 53.1649 18.8792 53.1649H17.1922C16.9572 53.1649 16.7664 53.3451 16.7664 53.5677C16.7664 53.79 16.9572 53.9706 17.1922 53.9706Z" fill="#9C78ED"/>
<path d="M20.7773 53.9706H22.4644C22.6997 53.9706 22.8902 53.79 22.8902 53.5677C22.8902 53.3451 22.6993 53.1649 22.4644 53.1649H20.7773C20.542 53.1649 20.3515 53.3451 20.3515 53.5677C20.3515 53.79 20.5424 53.9706 20.7773 53.9706Z" fill="#9C78ED"/>
<path d="M29.6413 39.6456C29.8762 39.6456 30.0671 39.4654 30.0671 39.2427V37.4659C30.0671 37.2433 29.8762 37.063 29.6413 37.063C29.4063 37.063 29.2155 37.2433 29.2155 37.4659V39.2427C29.2155 39.4654 29.4059 39.6456 29.6413 39.6456Z" fill="#D1B8F4"/>
<path d="M29.6413 42.7553C29.8762 42.7553 30.0671 42.5751 30.0671 42.3524V40.5757C30.0671 40.353 29.8762 40.1728 29.6413 40.1728C29.4063 40.1728 29.2155 40.3534 29.2155 40.5757V42.3524C29.2155 42.5747 29.4059 42.7553 29.6413 42.7553Z" fill="#D1B8F4"/>
<path d="M27.0052 40.312H28.6922C28.9272 40.312 29.1181 40.1318 29.1181 39.9092C29.1181 39.6865 28.9272 39.5063 28.6922 39.5063H27.0052C26.7698 39.5063 26.5794 39.6869 26.5794 39.9092C26.5794 40.1314 26.7698 40.312 27.0052 40.312Z" fill="#D1B8F4"/>
<path d="M30.5903 40.312H32.2774C32.5127 40.312 32.7032 40.1318 32.7032 39.9092C32.7032 39.6865 32.5123 39.5063 32.2774 39.5063H30.5903C30.355 39.5063 30.1645 39.6869 30.1645 39.9092C30.1645 40.1314 30.355 40.312 30.5903 40.312Z" fill="#D1B8F4"/>
<path d="M110.83 40.0936C110.781 40.0986 110.73 40.0921 110.681 40.0725C110.164 39.8663 109.861 39.7699 109.858 39.7688C109.699 39.7186 109.614 39.5568 109.666 39.4068C109.719 39.2568 109.891 39.1761 110.049 39.2259C110.062 39.2301 110.375 39.3292 110.916 39.5449C111.069 39.6065 111.142 39.7741 111.077 39.9199C111.032 40.0197 110.936 40.0829 110.83 40.0936Z" fill="#E0D5F8"/>
<path d="M126.24 55.439C126.446 55.9582 126.639 56.4934 126.813 57.0302C126.856 57.163 126.992 57.2448 127.134 57.2307C127.153 57.2288 127.172 57.2249 127.191 57.2196C127.351 57.1733 127.44 57.013 127.391 56.8622C127.213 56.3144 127.017 55.768 126.807 55.2385C126.748 55.0908 126.575 55.0159 126.418 55.0709C126.261 55.126 126.182 55.2909 126.24 55.439Z" fill="#E0D5F8"/>
<path d="M127.284 58.6508C127.423 59.1884 127.548 59.7416 127.657 60.2956C127.686 60.4433 127.83 60.5435 127.985 60.5279C127.993 60.5271 128.001 60.5259 128.009 60.5248C128.173 60.4957 128.281 60.3465 128.251 60.1912C128.141 59.6268 128.013 59.0629 127.872 58.515C127.832 58.3616 127.668 58.2675 127.506 58.305C127.344 58.3425 127.245 58.4974 127.284 58.6508Z" fill="#E0D5F8"/>
<path d="M128.559 67.2906C128.709 67.2757 128.827 67.1567 128.829 67.0105C128.839 66.4367 128.834 65.8605 128.817 65.2984C128.812 65.1404 128.672 65.0165 128.505 65.0211C128.336 65.0268 128.207 65.1576 128.212 65.3157C128.23 65.8689 128.234 66.4363 128.225 67.0017C128.223 67.1598 128.356 67.2898 128.523 67.2921C128.535 67.2925 128.547 67.2917 128.559 67.2906Z" fill="#E0D5F8"/>
<path d="M128.193 61.637C128.027 61.6573 127.91 61.8008 127.932 61.9577C127.968 62.2163 128 62.4776 128.029 62.7343C128.062 63.0304 128.092 63.3331 128.116 63.633C128.129 63.7907 128.275 63.9081 128.441 63.8959C128.444 63.8955 128.447 63.8955 128.45 63.8951C128.612 63.879 128.732 63.7432 128.719 63.5883C128.694 63.2833 128.664 62.9757 128.631 62.6742C128.602 62.4129 128.568 62.147 128.532 61.8838C128.511 61.7296 128.364 61.6198 128.201 61.6363C128.198 61.6367 128.196 61.6367 128.193 61.637Z" fill="#E0D5F8"/>
<path d="M125.566 53.8846C125.62 54.0005 125.747 54.0648 125.874 54.0521C125.904 54.0491 125.935 54.0414 125.965 54.0288C126.118 53.9641 126.186 53.795 126.118 53.6508C125.872 53.1297 125.605 52.6101 125.325 52.107C125.247 51.967 125.064 51.9134 124.916 51.9869C124.769 52.0604 124.712 52.2333 124.789 52.3733C125.064 52.8661 125.324 53.3742 125.566 53.8846Z" fill="#E0D5F8"/>
<path d="M112.287 40.7838C112.806 41.0347 113.33 41.3079 113.845 41.596C113.903 41.6285 113.968 41.6408 114.03 41.6343C114.122 41.6251 114.208 41.5765 114.259 41.4954C114.344 41.3596 114.297 41.184 114.153 41.1036C113.628 40.8094 113.093 40.5305 112.563 40.2741C112.414 40.2026 112.232 40.2581 112.156 40.3989C112.08 40.5393 112.138 40.7114 112.287 40.7838Z" fill="#E0D5F8"/>
<path d="M116.794 43.4776C116.857 43.5239 116.935 43.5423 117.009 43.5346C117.088 43.5266 117.165 43.4887 117.217 43.4237C117.319 43.2982 117.293 43.1184 117.16 43.0227C116.681 42.6768 116.186 42.3402 115.687 42.0215C115.548 41.9331 115.36 41.9675 115.267 42.0987C115.174 42.2296 115.21 42.4075 115.349 42.4959C115.838 42.8081 116.324 43.1386 116.794 43.4776Z" fill="#E0D5F8"/>
<path d="M121.874 48.1617C121.941 48.2409 122.043 48.2772 122.142 48.2673C122.198 48.2616 122.252 48.2417 122.299 48.2061C122.43 48.1074 122.451 47.9272 122.346 47.804C121.971 47.3602 121.574 46.9206 121.168 46.4982C121.056 46.3811 120.865 46.3723 120.741 46.4787C120.618 46.585 120.609 46.766 120.721 46.8827C121.118 47.2966 121.506 47.7271 121.874 48.1617Z" fill="#E0D5F8"/>
<path d="M119.486 45.6741C119.553 45.7357 119.642 45.7621 119.729 45.7536C119.797 45.7468 119.862 45.7184 119.914 45.6687C120.03 45.5555 120.027 45.3745 119.908 45.2643C119.478 44.8683 119.028 44.4785 118.569 44.1047C118.443 44.0014 118.252 44.0151 118.143 44.1345C118.034 44.2543 118.048 44.4348 118.175 44.5378C118.623 44.9039 119.064 45.2861 119.486 45.6741Z" fill="#E0D5F8"/>
<path d="M123.914 50.9118C123.977 51.0094 124.091 51.0587 124.204 51.0472C124.247 51.043 124.29 51.0296 124.329 51.0071C124.472 50.9248 124.517 50.7484 124.43 50.6138C124.116 50.1275 123.781 49.6443 123.436 49.1775C123.34 49.0482 123.151 49.0168 123.014 49.1075C122.878 49.1982 122.844 49.3768 122.94 49.5062C123.279 49.963 123.606 50.4359 123.914 50.9118Z" fill="#E0D5F8"/>
<path d="M110.824 38.1362L112.148 33.4992L95.9329 33.6308L110.824 38.1362Z" fill="#6020BD"/>
<path d="M95.9328 33.6304L110.037 39.2557L110.074 39.271L110.681 40.2218L110.824 38.1362L95.9328 33.6304Z" fill="#9C78ED"/>
<path d="M110.681 40.2217L109.367 40.0259L110.074 39.271L110.681 40.2217Z" fill="#9C78ED"/>
<path d="M108.3 38.5628L110.075 39.2706L106.419 43.1673L95.9328 33.6308L108.3 38.5628Z" fill="#6020BD"/>
<path d="M185.383 160.132V160.411C185.383 162.023 184.001 163.331 182.296 163.331H22.1841C20.4789 163.331 19.0979 162.023 19.0979 160.411V160.132C19.0979 158.519 20.4789 157.212 22.1841 157.212H182.296C184.001 157.212 185.383 158.519 185.383 160.132Z" fill="#D1B8F4"/>
<path d="M185.383 160.132V160.271H19.0979V160.132C19.0979 158.519 20.4789 157.212 22.1841 157.212H182.296C184.001 157.212 185.383 158.519 185.383 160.132Z" fill="#9C78ED"/>
<path d="M126.744 148.026H76.4456C75.2438 148.026 74.2696 147.104 74.2696 145.967V121.069C74.2696 119.932 75.2438 119.01 76.4456 119.01H126.744C127.946 119.01 128.92 119.932 128.92 121.069V145.967C128.92 147.104 127.946 148.026 126.744 148.026Z" fill="#18315B"/>
<path d="M105.827 147.993H97.3631V157.122H105.827V147.993Z" fill="#000B29"/>
<path d="M101.5 137.848C103.82 137.848 105.701 136.069 105.701 133.874C105.701 131.679 103.82 129.899 101.5 129.899C99.1803 129.899 97.2996 131.679 97.2996 133.874C97.2996 136.069 99.1803 137.848 101.5 137.848Z" fill="white"/>
<path d="M112.375 157.122H90.5435V156.426C90.5435 155.022 91.7466 153.883 93.2306 153.883H109.688C111.172 153.883 112.375 155.021 112.375 156.426V157.122H112.375Z" fill="#18315B"/>
</svg>
