<svg width="71" height="22" viewBox="0 0 71 22" fill="none" xmlns="http://www.w3.org/2000/svg">
<path d="M0.19043 21V0H13.4204V2.93994H3.43042V8.96997H12.5804V11.91H3.43042V18.0601H13.5704V21H0.19043ZM17.0385 21V6.20996H20.0684V7.94995H20.5484C20.8284 7.42995 21.2784 6.96995 21.8984 6.56995C22.5184 6.16995 23.3585 5.96997 24.4185 5.96997C25.5185 5.96997 26.3984 6.20003 27.0584 6.66003C27.7384 7.10003 28.2484 7.67 28.5884 8.37H29.0684C29.4084 7.69 29.8985 7.12003 30.5385 6.66003C31.1985 6.20003 32.1284 5.96997 33.3284 5.96997C34.2884 5.96997 35.1384 6.16995 35.8784 6.56995C36.6184 6.94995 37.2084 7.53006 37.6484 8.31006C38.0884 9.07006 38.3084 10.02 38.3084 11.16V21H35.2184V11.4C35.2184 10.5 34.9684 9.80996 34.4684 9.32996C33.9884 8.82996 33.2984 8.57996 32.3984 8.57996C31.4384 8.57996 30.6684 8.89001 30.0884 9.51001C29.5084 10.13 29.2184 11.0201 29.2184 12.1801V21H26.1284V11.4C26.1284 10.5 25.8784 9.80996 25.3784 9.32996C24.8984 8.82996 24.2084 8.57996 23.3084 8.57996C22.3484 8.57996 21.5784 8.89001 20.9984 9.51001C20.4184 10.13 20.1284 11.0201 20.1284 12.1801V21H17.0385ZM47.3504 21.42C46.2904 21.42 45.3404 21.24 44.5004 20.88C43.6804 20.52 43.0204 19.99 42.5204 19.29C42.0404 18.59 41.8004 17.74 41.8004 16.74C41.8004 15.72 42.0404 14.88 42.5204 14.22C43.0204 13.54 43.6905 13.0299 44.5305 12.6899C45.3905 12.3499 46.3604 12.1801 47.4404 12.1801H51.9404V11.22C51.9404 10.36 51.6804 9.67002 51.1604 9.15002C50.6404 8.63002 49.8404 8.37 48.7604 8.37C47.7004 8.37 46.8904 8.62 46.3304 9.12C45.7704 9.62 45.4004 10.2699 45.2204 11.0699L42.3405 10.14C42.5805 9.34001 42.9604 8.61998 43.4804 7.97998C44.0204 7.31998 44.7304 6.79001 45.6104 6.39001C46.4904 5.99001 47.5504 5.79004 48.7904 5.79004C50.7104 5.79004 52.2204 6.28001 53.3204 7.26001C54.4204 8.24001 54.9704 9.63005 54.9704 11.4301V17.52C54.9704 18.12 55.2504 18.42 55.8104 18.42H57.0704V21H54.7604C54.0604 21 53.4904 20.82 53.0504 20.46C52.6104 20.1 52.3904 19.61 52.3904 18.99V18.9H51.9404C51.7804 19.2 51.5404 19.55 51.2204 19.95C50.9004 20.35 50.4304 20.7 49.8104 21C49.1904 21.28 48.3704 21.42 47.3504 21.42ZM47.8004 18.87C49.0404 18.87 50.0404 18.5199 50.8004 17.8199C51.5604 17.0999 51.9404 16.12 51.9404 14.88V14.58H47.6204C46.8004 14.58 46.1404 14.76 45.6404 15.12C45.1404 15.46 44.8904 15.97 44.8904 16.65C44.8904 17.33 45.1504 17.87 45.6704 18.27C46.1904 18.67 46.9004 18.87 47.8004 18.87ZM60.0754 21V6.20996H63.1654V21H60.0754ZM61.6354 4.19995C61.0354 4.19995 60.5254 4.01 60.1054 3.63C59.7054 3.23 59.5054 2.71998 59.5054 2.09998C59.5054 1.47998 59.7054 0.979976 60.1054 0.599976C60.5254 0.199976 61.0354 0 61.6354 0C62.2554 0 62.7654 0.199976 63.1654 0.599976C63.5654 0.979976 63.7654 1.47998 63.7654 2.09998C63.7654 2.71998 63.5654 3.23 63.1654 3.63C62.7654 4.01 62.2554 4.19995 61.6354 4.19995ZM67.7514 21V0H70.8414V21H67.7514Z" fill="black"/>
</svg>
