<svg width="143" height="27" viewBox="0 0 143 27" fill="none" xmlns="http://www.w3.org/2000/svg">
<path d="M0.19043 21V0H6.28046L10.8704 18.84H11.3504L15.9404 0H22.0305V21H18.8804V2.28003H18.4005L13.8405 21H8.38043L3.82043 2.28003H3.34045V21H0.19043ZM31.0914 21.42C30.0314 21.42 29.0815 21.24 28.2415 20.88C27.4215 20.52 26.7614 19.99 26.2614 19.29C25.7814 18.59 25.5414 17.74 25.5414 16.74C25.5414 15.72 25.7814 14.88 26.2614 14.22C26.7614 13.54 27.4314 13.0299 28.2714 12.6899C29.1314 12.3499 30.1015 12.1801 31.1815 12.1801H35.6815V11.22C35.6815 10.36 35.4214 9.67002 34.9014 9.15002C34.3814 8.63002 33.5814 8.37 32.5014 8.37C31.4414 8.37 30.6314 8.62 30.0714 9.12C29.5114 9.62 29.1414 10.2699 28.9614 11.0699L26.0814 10.14C26.3214 9.34001 26.7014 8.61998 27.2214 7.97998C27.7614 7.31998 28.4714 6.79001 29.3514 6.39001C30.2314 5.99001 31.2914 5.79004 32.5314 5.79004C34.4514 5.79004 35.9614 6.28001 37.0614 7.26001C38.1614 8.24001 38.7114 9.63005 38.7114 11.4301V17.52C38.7114 18.12 38.9915 18.42 39.5515 18.42H40.8114V21H38.5014C37.8014 21 37.2314 20.82 36.7914 20.46C36.3514 20.1 36.1314 19.61 36.1314 18.99V18.9H35.6815C35.5215 19.2 35.2814 19.55 34.9614 19.95C34.6414 20.35 34.1715 20.7 33.5515 21C32.9315 21.28 32.1114 21.42 31.0914 21.42ZM31.5414 18.87C32.7814 18.87 33.7814 18.5199 34.5414 17.8199C35.3014 17.0999 35.6815 16.12 35.6815 14.88V14.58H31.3615C30.5415 14.58 29.8814 14.76 29.3814 15.12C28.8814 15.46 28.6314 15.97 28.6314 16.65C28.6314 17.33 28.8914 17.87 29.4114 18.27C29.9314 18.67 30.6414 18.87 31.5414 18.87ZM43.8154 21V6.20996H46.8454V7.94995H47.3254C47.5654 7.32995 47.9455 6.87998 48.4655 6.59998C49.0055 6.29998 49.6654 6.15002 50.4454 6.15002H52.2155V8.93994H50.3254C49.3254 8.93994 48.5054 9.22003 47.8654 9.78003C47.2254 10.32 46.9055 11.16 46.9055 12.3V21H43.8154ZM55.4174 21V0H58.5074V11.97H58.9874L64.8074 6.20996H68.9174L61.4474 13.38L69.1574 21H65.0775L58.9874 14.85H58.5074V21H55.4174ZM77.8714 21.42C76.3714 21.42 75.0614 21.11 73.9414 20.49C72.8214 19.85 71.9415 18.9599 71.3015 17.8199C70.6814 16.6599 70.3714 15.32 70.3714 13.8V13.4399C70.3714 11.8999 70.6814 10.56 71.3015 9.42004C71.9215 8.26004 72.7814 7.37 73.8814 6.75C75.0014 6.11 76.2914 5.79004 77.7514 5.79004C79.1714 5.79004 80.4114 6.11 81.4714 6.75C82.5514 7.37 83.3915 8.23999 83.9915 9.35999C84.5915 10.48 84.8914 11.79 84.8914 13.29V14.46H73.5214C73.5614 15.76 73.9914 16.8 74.8114 17.58C75.6514 18.34 76.6915 18.72 77.9315 18.72C79.0915 18.72 79.9614 18.4599 80.5414 17.9399C81.1414 17.4199 81.6014 16.82 81.9214 16.14L84.4714 17.46C84.1914 18.02 83.7815 18.61 83.2415 19.23C82.7215 19.85 82.0314 20.37 81.1714 20.79C80.3114 21.21 79.2114 21.42 77.8714 21.42ZM73.5515 12.09H81.7415C81.6615 10.97 81.2614 10.1 80.5414 9.47998C79.8214 8.83998 78.8814 8.52002 77.7214 8.52002C76.5614 8.52002 75.6114 8.83998 74.8714 9.47998C74.1514 10.1 73.7115 10.97 73.5515 12.09ZM93.6035 21C92.7035 21 91.9834 20.7299 91.4434 20.1899C90.9234 19.6499 90.6635 18.93 90.6635 18.03V8.81995H86.5834V6.20996H90.6635V1.31995H93.7534V6.20996H98.1635V8.81995H93.7534V17.49C93.7534 18.09 94.0334 18.39 94.5934 18.39H97.6834V21H93.6035ZM101.794 21V6.20996H104.884V21H101.794ZM103.354 4.19995C102.754 4.19995 102.244 4.01 101.824 3.63C101.424 3.23 101.224 2.71998 101.224 2.09998C101.224 1.47998 101.424 0.979976 101.824 0.599976C102.244 0.199976 102.754 0 103.354 0C103.974 0 104.484 0.199976 104.884 0.599976C105.284 0.979976 105.484 1.47998 105.484 2.09998C105.484 2.71998 105.284 3.23 104.884 3.63C104.484 4.01 103.974 4.19995 103.354 4.19995ZM109.469 21V6.20996H112.499V8.43005H112.979C113.259 7.83005 113.759 7.27 114.479 6.75C115.199 6.23 116.269 5.96997 117.689 5.96997C118.809 5.96997 119.799 6.21997 120.659 6.71997C121.539 7.21997 122.229 7.92998 122.729 8.84998C123.229 9.74998 123.479 10.84 123.479 12.12V21H120.389V12.36C120.389 11.08 120.069 10.14 119.429 9.54004C118.789 8.92004 117.909 8.60999 116.789 8.60999C115.509 8.60999 114.479 9.02999 113.699 9.87C112.939 10.71 112.559 11.93 112.559 13.53V21H109.469ZM127.206 13.6801V13.23C127.206 11.67 127.516 10.34 128.136 9.23999C128.776 8.13999 129.616 7.28994 130.656 6.68994C131.696 6.08994 132.836 5.79004 134.076 5.79004C135.516 5.79004 136.616 6.05998 137.376 6.59998C138.156 7.13998 138.726 7.71997 139.086 8.33997H139.566V6.20996H142.566V24.03C142.566 24.93 142.296 25.6499 141.756 26.1899C141.236 26.7299 140.516 27 139.596 27H129.636V24.3H138.636C139.216 24.3 139.506 24 139.506 23.4V18.6899H139.026C138.806 19.0499 138.496 19.42 138.096 19.8C137.696 20.18 137.166 20.49 136.506 20.73C135.866 20.97 135.056 21.09 134.076 21.09C132.836 21.09 131.686 20.8 130.626 20.22C129.586 19.62 128.756 18.77 128.136 17.67C127.516 16.55 127.206 15.2201 127.206 13.6801ZM134.916 18.39C136.256 18.39 137.356 17.97 138.216 17.13C139.096 16.27 139.536 15.09 139.536 13.59V13.3199C139.536 11.7799 139.106 10.6 138.246 9.78003C137.386 8.94003 136.276 8.52002 134.916 8.52002C133.596 8.52002 132.496 8.94003 131.616 9.78003C130.756 10.6 130.326 11.7799 130.326 13.3199V13.59C130.326 15.09 130.756 16.27 131.616 17.13C132.496 17.97 133.596 18.39 134.916 18.39Z" fill="black"/>
</svg>
